<svg id="Layer_1" data-name="Layer 1" xmlns="http://www.w3.org/2000/svg" viewBox="0 0 512 512"><defs><style>.cls-1{fill:#e5e7e6;}</style></defs><title>bento-menu</title><path class="cls-1" d="M106.67,0H21.33A21.34,21.34,0,0,0,0,21.33v85.34A21.34,21.34,0,0,0,21.33,128h85.34A21.34,21.34,0,0,0,128,106.67V21.33A21.34,21.34,0,0,0,106.67,0Z"/><path class="cls-1" d="M106.67,192H21.33A21.34,21.34,0,0,0,0,213.33v85.34A21.34,21.34,0,0,0,21.33,320h85.34A21.34,21.34,0,0,0,128,298.67V213.33A21.34,21.34,0,0,0,106.67,192Z"/><path class="cls-1" d="M106.67,384H21.33A21.34,21.34,0,0,0,0,405.33v85.34A21.34,21.34,0,0,0,21.33,512h85.34A21.34,21.34,0,0,0,128,490.67V405.33A21.34,21.34,0,0,0,106.67,384Z"/><path class="cls-1" d="M298.67,0H213.33A21.34,21.34,0,0,0,192,21.33v85.34A21.34,21.34,0,0,0,213.33,128h85.34A21.34,21.34,0,0,0,320,106.67V21.33A21.34,21.34,0,0,0,298.67,0Z"/><path class="cls-1" d="M298.67,192H213.33A21.34,21.34,0,0,0,192,213.33v85.34A21.34,21.34,0,0,0,213.33,320h85.34A21.34,21.34,0,0,0,320,298.67V213.33A21.34,21.34,0,0,0,298.67,192Z"/><path class="cls-1" d="M298.67,384H213.33A21.34,21.34,0,0,0,192,405.33v85.34A21.34,21.34,0,0,0,213.33,512h85.34A21.34,21.34,0,0,0,320,490.67V405.33A21.34,21.34,0,0,0,298.67,384Z"/><path class="cls-1" d="M490.67,0H405.33A21.34,21.34,0,0,0,384,21.33v85.34A21.34,21.34,0,0,0,405.33,128h85.34A21.34,21.34,0,0,0,512,106.67V21.33A21.34,21.34,0,0,0,490.67,0Z"/><path class="cls-1" d="M490.67,192H405.33A21.34,21.34,0,0,0,384,213.33v85.34A21.34,21.34,0,0,0,405.33,320h85.34A21.34,21.34,0,0,0,512,298.67V213.33A21.34,21.34,0,0,0,490.67,192Z"/><path class="cls-1" d="M490.67,384H405.33A21.34,21.34,0,0,0,384,405.33v85.34A21.34,21.34,0,0,0,405.33,512h85.34A21.34,21.34,0,0,0,512,490.67V405.33A21.34,21.34,0,0,0,490.67,384Z"/></svg>