<svg xmlns="http://www.w3.org/2000/svg" xmlns:xlink="http://www.w3.org/1999/xlink" width="434" height="434" viewBox="0 0 434 434">
  <defs>
    <clipPath id="clip-path">
      <circle id="Ellipse_7" data-name="Ellipse 7" cx="217" cy="217" r="217" transform="translate(1207 160)" fill="#f9cb40"/>
    </clipPath>
  </defs>
  <g id="Circle" transform="translate(-1187 -140)">
    <circle id="Ellipse_8" data-name="Ellipse 8" cx="217" cy="217" r="217" transform="translate(1187 140)" fill="#f9cb40"/>
    <g id="Mask_Group_1" data-name="Mask Group 1" transform="translate(-20 -20)" opacity="0.24" clip-path="url(#clip-path)">
      <g id="violin" transform="translate(1074.484 248.685) rotate(-45)">
        <path id="Path_28" data-name="Path 28" d="M371.457,359.616,330.836,319l-87.358-87.358.674-.842a73.9,73.9,0,0,0,4.443-83.807l62.688-62.682,4.7,4.7a12.083,12.083,0,0,0,17.075,0l.549-.549,8.824,8.824,8.824-8.824-8.824-8.824,8.824-8.824,8.824,8.824,8.824-8.824L358.271,60.172A31.014,31.014,0,0,0,351.4,26.828L342.282,17.7a30.906,30.906,0,0,0-33.351-6.865L298.3.205l-8.824,8.824,8.824,8.824-8.824,8.831-8.824-8.831-8.824,8.824,8.824,8.831-.543.543a12.087,12.087,0,0,0,0,17.081l4.693,4.693-62.333,62.339a74.009,74.009,0,0,0-40.684-12.276c-16.469,0-53.862,9.138-70.171,43.242,4.35,11.545-.281,27.21-11.6,38.543C91.584,198.1,80.938,202.924,70.8,202.924a23.641,23.641,0,0,1-15.689-5.355l-3.988-3.42L28.4,212.946a73.414,73.414,0,0,0-15.664,99.309L44.76,280.228l44.122,44.128L56.811,356.421a73.548,73.548,0,0,0,99.3-15.646L174.6,317.7l-3.258-3.919c-9.311-11.2-5.754-30.817,8.1-44.671,8.419-8.419,19.065-13.243,29.213-13.243a26.9,26.9,0,0,1,7.944,1.211c1.928,2.128,4.749,4.993,9.08,9.355l56.629,56.984a31.192,31.192,0,0,0,39.267,3.969l41.064,41.064ZM83.883,253.717a18.743,18.743,0,0,1-26.473,0,6.24,6.24,0,0,1,8.824-8.824,6.234,6.234,0,0,0,8.824,0l26.48-26.473a19.171,19.171,0,0,1,26.473,0,6.24,6.24,0,0,1-8.824,8.824,6.378,6.378,0,0,0-8.818,0Zm66.2,13.243-26.473,26.473a6.224,6.224,0,0,0-1.829,4.412,6.152,6.152,0,0,0,1.829,4.406,6.244,6.244,0,0,1-8.824,8.837,18.72,18.72,0,0,1,0-26.48l26.473-26.473a6.253,6.253,0,0,0,0-8.831,6.24,6.24,0,1,1,8.824-8.824A18.743,18.743,0,0,1,150.079,266.96ZM291.133,314.6c-15.246-15.327-51.4-51.68-63.163-63.581l2-2.5,5.66-7.071,76.8,76.805A19.14,19.14,0,0,1,291.133,314.6Z" transform="translate(0.976 0.705)" fill="#fff"/>
        <path id="Path_29" data-name="Path 29" d="M44.76,47.9,20.646,72.016a18.691,18.691,0,0,0-3.6,21.25L1.83,108.481a6.24,6.24,0,1,0,8.824,8.824l15.2-15.2A18.506,18.506,0,0,0,47.119,98.49L71.233,74.382Z" transform="translate(0 249.703)" fill="#fff"/>
      </g>
    </g>
  </g>
</svg>
