<svg xmlns="http://www.w3.org/2000/svg" xmlns:xlink="http://www.w3.org/1999/xlink" width="231.333" height="152.727" viewBox="0 0 231.333 152.727">
  <defs>
    <linearGradient id="linear-gradient" x1="-0.232" y1="0.5" x2="0.769" y2="0.5" gradientUnits="objectBoundingBox">
      <stop offset="0" stop-color="gray" stop-opacity="0.251"/>
      <stop offset="0.54" stop-color="gray" stop-opacity="0.122"/>
      <stop offset="1" stop-color="gray" stop-opacity="0.102"/>
    </linearGradient>
    <linearGradient id="linear-gradient-2" x1="-3.46" y1="0.929" x2="-3.46" y2="-0.082" xlink:href="#linear-gradient"/>
  </defs>
  <g id="undraw_compose_music_ovo2_1_" data-name="undraw_compose_music_ovo2 (1)" transform="translate(0 -0.005)">
    <circle id="Ellipse_9" data-name="Ellipse 9" cx="4.552" cy="4.552" r="4.552" transform="translate(202.869 73.55)" fill="#20222b" opacity="0.1"/>
    <circle id="Ellipse_10" data-name="Ellipse 10" cx="7.629" cy="7.629" r="7.629" transform="translate(216.075 50.177)" fill="#20222b" opacity="0.1"/>
    <circle id="Ellipse_11" data-name="Ellipse 11" cx="4.552" cy="4.552" r="4.552" transform="translate(91.273 1.298)" fill="#20222b" opacity="0.1"/>
    <circle id="Ellipse_12" data-name="Ellipse 12" cx="4.552" cy="4.552" r="4.552" transform="translate(143.489 6.53)" fill="#20222b" opacity="0.1"/>
    <circle id="Ellipse_13" data-name="Ellipse 13" cx="7.629" cy="7.629" r="7.629" transform="translate(0 61.03)" fill="#20222b" opacity="0.1"/>
    <path id="Path_216" data-name="Path 216" d="M195.4,112.3c-13.621-.507-26.593-5.23-38.981-10.4S131.761,91.008,118.477,88.27c-8.551-1.762-18.329-2.012-25.219,2.913-6.64,4.748-8.782,12.92-9.927,20.509-.867,5.712-1.376,11.722,1,17.068,1.648,3.712,4.575,6.831,6.6,10.386,7.044,12.371,2.065,27.627-5.569,39.7-3.578,5.665-7.732,11.07-10.5,17.1s-4.047,12.943-1.635,19.1c2.395,6.1,8.1,10.679,14.29,13.89,12.562,6.543,27.359,8.418,41.8,9.471,31.951,2.349,64.075,1.332,96.113.314,11.855-.377,23.765-.76,35.428-2.736,6.478-1.094,13.164-2.831,17.866-7.021a16.887,16.887,0,0,0,3.449-21C275.465,196.783,256.919,194,252.224,182c-2.58-6.608.069-13.97,3.822-20.1,8.046-13.149,21.536-24.684,22.245-39.715.488-10.312-6-20.658-16.022-25.543-10.51-5.12-25.082-4.476-32.831,4C221.458,109.4,207.426,112.748,195.4,112.3Z" transform="translate(-67.421 -87.11)" fill="#20222b" opacity="0.1"/>
    <path id="Path_217" data-name="Path 217" d="M872.34,436.088a1.243,1.243,0,0,0,.28.728,4.137,4.137,0,0,0,1.12.951v1.141a35.226,35.226,0,0,1,4.06,3.877,11.531,11.531,0,0,0,2.3,2.8,2.072,2.072,0,0,0,.856.455h.057a.89.89,0,0,1-.328.211.779.779,0,0,0,.918.659,1.531,1.531,0,0,0,.454-.227l1.334-.863a3.825,3.825,0,0,0,.621-.465c.248-.25.421-.564.665-.821.421-.438,1.019-.7,1.311-1.225a5.922,5.922,0,0,0,.328-1.078c.074-.236.181-.459.253-.694a2.5,2.5,0,0,0,.086-.434c.046.04.095.08.145.118.1-.067.3.109.255.223s-.158.2-.2.314c-.084.269.248.469.387.716a1.9,1.9,0,0,1,.082.842c.015.28.143.617.183.93.1.732-.265,1.5,0,2.2a.693.693,0,0,0-.684.532,2.018,2.018,0,0,0,.027.937,1.288,1.288,0,0,0-.631,1.176.289.289,0,0,1-.03.211.3.3,0,0,1-.12.069,1.187,1.187,0,0,0-.732,1.1.359.359,0,0,1-.194.41,1.372,1.372,0,0,0-.511,1.073.779.779,0,0,0,.362.7h.015a3.788,3.788,0,0,0-1.263,2.4,9.841,9.841,0,0,0,.164,2.481h.076v.061a1.106,1.106,0,0,0,.12.358,5.13,5.13,0,0,1,.452,1.844,1.637,1.637,0,0,0,.063.465,2.337,2.337,0,0,0,.238.408,4.342,4.342,0,0,1,.44,1.536,12.151,12.151,0,0,0,.537,2.014,5.7,5.7,0,0,1,.608,2.736,2.729,2.729,0,0,0-.084.676,1.976,1.976,0,0,0,.265.709,6.61,6.61,0,0,1,.295.657.531.531,0,0,0,.13.356c.025.069.046.141.067.211s.036.112.052.168a2.168,2.168,0,0,1,.065.286l-.013.221v.211a.526.526,0,0,1-.1.187.752.752,0,0,1-.055.061l-.051.057a.38.38,0,0,0-.057.082h0a.394.394,0,0,0-.017.242.382.382,0,0,0,.021.095c.053.227.109.455.166.68.017.069.036.137.053.21.046.177.093.356.141.532v.023l.032.118.12.434c.025.086.05.171.074.257l.093.314q.107.366.221.732a76.6,76.6,0,0,1,2.054,7.486.806.806,0,0,0,.3.45,1.735,1.735,0,0,0,.524.282c.048.373.168.827.183,1.052a5.109,5.109,0,0,1-.187,2.187.177.177,0,0,0-.16.051,6.477,6.477,0,0,0-.482.511l-.987,1.052a1.633,1.633,0,0,0-.223.271.949.949,0,0,0-.095.777,1.051,1.051,0,0,0,.507.6.846.846,0,0,1,.16.091.942.942,0,0,0,.1.084.383.383,0,0,0,.21.04,7.519,7.519,0,0,0,1.656-.282,1.328,1.328,0,0,0,.684-.322,1.279,1.279,0,0,0,.234-.455l.2-.547a6.243,6.243,0,0,0,.3-1.021,2.106,2.106,0,0,0-.053-1.052.209.209,0,0,0-.05.086c.048-.305.095-.612.143-.92.015-.091.027-.183.04-.278.063.819-.057,1.644-.019,2.464a2.865,2.865,0,0,0-.082.461,2.786,2.786,0,0,0,.977,2.025,1,1,0,0,0,.335.175,1.185,1.185,0,0,0,.345,0,4.4,4.4,0,0,0,1.313-.248,1.614,1.614,0,0,0,.945-.9,2.109,2.109,0,0,0,.095-.648,2.488,2.488,0,0,0-.061-.684,5.21,5.21,0,0,0-.345-.8,7.626,7.626,0,0,1-.391-1.174l-.183-.667c-.05-.189-.1-.379-.168-.564a.946.946,0,0,0-.234-.444c-.076-.059-.126-.063-.16-.029v-.072a7.519,7.519,0,0,0,.048-.781,3.307,3.307,0,0,0-.6-1.139,2.218,2.218,0,0,1-.24-.6c-.013-.046-.021-.091-.03-.139a.488.488,0,0,1,.12-.078l.375.211c-.33-2.483-.156-5.087-1.12-7.4-.421-1.006-1.231-2.054-1.141-3.138a.884.884,0,0,1,.1-1.41c.162-.088.362-.13.473-.28a.761.761,0,0,0,.107-.271,43.084,43.084,0,0,1,2.079-6.24c.187-.444.381-.884.577-1.324l.652-1.484.8-1.806a2.5,2.5,0,0,0,.286-1.915,1.621,1.621,0,0,1-.255-.73,4.6,4.6,0,0,1,.156-.482,1.2,1.2,0,0,0-.04-.524c-.053-.227-.112-.455-.173-.68a3.792,3.792,0,0,1,.507.1c.1-.17-.061-.368-.16-.541a1.828,1.828,0,0,1-.183-.751l-.211-2.124a3.763,3.763,0,0,1-.017-.884c.042-.311.162-.608.223-.92a14.149,14.149,0,0,0,.038-1.818,8.143,8.143,0,0,1,.278-1.583c.019-.078.036-.154.055-.232a1.262,1.262,0,0,0,.305.053h.261a.824.824,0,0,0,.116-.029h.025a1.271,1.271,0,0,0,.124-.048c-.05-.107-.1-.211-.141-.324-.019-.044-.036-.088-.053-.133s-.048-.124-.069-.187-.042-.116-.061-.173-.031-.1-.046-.145-.04-.133-.059-.21-.038-.139-.057-.21l.031-.065a1.855,1.855,0,0,0,.347.238c.421.726.8,1.473,1.153,2.227a.708.708,0,0,0,.107-.271,1.31,1.31,0,0,0,.149.192,2.237,2.237,0,0,0,.49.36,1.263,1.263,0,0,0,.581.21,1.084,1.084,0,0,0,.743-.322,4.959,4.959,0,0,0,1.2-2.1,15.851,15.851,0,0,0,.9-3.1,26.26,26.26,0,0,1,.421-3.439c-.293-.581-.478-1.223-.806-1.785a7.974,7.974,0,0,1-.556-1.042,3.6,3.6,0,0,1-.1-2.408.33.33,0,0,0-.385.021.806.806,0,0,0-.232.337,2.985,2.985,0,0,0-.229,1.414.566.566,0,0,1-.04.345.434.434,0,0,1-.375.158,3.23,3.23,0,0,1-.867-.158,8.054,8.054,0,0,0-2.416-.236,1.925,1.925,0,0,0-.21-.21l-.091-.074-.093-.072-.046-.038a1,1,0,0,1-.088-.078.583.583,0,0,1-.211-.368.455.455,0,0,1,0-.055.435.435,0,0,1,0-.05.71.71,0,0,1,.048-.147.984.984,0,0,1,.046-.095l.023-.048c0-.015.015-.032.023-.046a1.387,1.387,0,0,0,.067-.177,1.307,1.307,0,0,0,.044-.183,1.376,1.376,0,0,0,.019-.187v-.284a1.913,1.913,0,0,0-.078-.375,2.076,2.076,0,0,0-.1-.269,2.982,2.982,0,0,0-.179-.333,5.091,5.091,0,0,0-.45-.612l-.124-.145-.126-.143a4.966,4.966,0,0,1-.366-.448,1.75,1.75,0,0,1-.21-.375c-.017-.044-.031-.088-.044-.135a1.365,1.365,0,0,1-.038-.261v-.086a3.19,3.19,0,0,1,.017-.352c.017-.164.04-.33.063-.5.015-.112.031-.223.046-.335a1.123,1.123,0,0,1,.021-.166c.013-.112.025-.223.034-.335a3.208,3.208,0,0,0-.055-.974,1.831,1.831,0,0,0-.1-.312,1.966,1.966,0,0,0-.21-.379,2.736,2.736,0,0,0-1.17-.911,5.387,5.387,0,0,0-1.071-.343c-.147-.032-.293-.059-.438-.082a6.13,6.13,0,0,0-5.893,2.1,8.166,8.166,0,0,0-1.593,3.121,4.456,4.456,0,0,0,.5,3.4c.272.421.631.774.869,1.208.2.354.316.751.528,1.1a2.589,2.589,0,0,0,1.168.983l-.093.084a2.839,2.839,0,0,0-.655.013c-.223.038-.44.124-.665.152-.278.036-.562-.019-.842.017a2.657,2.657,0,0,0-1.336.768,2.349,2.349,0,0,0-.991,1.473v.017l-.309.421a1.66,1.66,0,0,0-.194.305,5.13,5.13,0,0,0-.122.943,2.016,2.016,0,0,1-.244.562,12.637,12.637,0,0,1-1.052,1.57,2.662,2.662,0,0,1-.655.648,1.178,1.178,0,0,1-.682.194,4.372,4.372,0,0,1-1-.667,6.435,6.435,0,0,1-.882-1.1c-.5-.722,1.052,1.438.551.714l-4.491-7.484a6.1,6.1,0,0,1-.177-1.065c0-.137-.057-.318-.2-.322a.237.237,0,0,0-.158.076.913.913,0,0,0-.293.779,1.079,1.079,0,0,0-.688.122.393.393,0,0,0-.086.56v.057a.3.3,0,0,0-.158.316,1.069,1.069,0,0,0-.739.036c-.221.124-.305.488-.091.631A.646.646,0,0,0,872.34,436.088Zm28.134,1.073a3.477,3.477,0,0,0,.394.1,6.284,6.284,0,0,1,1.221.421.669.669,0,0,1,.318.238.707.707,0,0,1-.038.6l-.556,1.5c-.089.236-.175.471-.284.7-.042.091-.091.181-.139.269q-.025-.076-.05-.145a12.314,12.314,0,0,1-.4-1.4c-.093-.408-.17-.821-.236-1.233a6.024,6.024,0,0,0-.234-1.048Zm-.581-1.176.042.029a.475.475,0,0,1,.145.1.225.225,0,0,1,0,.21Zm-1-1.446.665.1a.873.873,0,0,1,.448.154.3.3,0,0,1,.061.421,1.008,1.008,0,0,1-.147.1.421.421,0,0,0-.158.436,4.718,4.718,0,0,0-.381-.591,2.924,2.924,0,0,0-.444-.455C898.918,434.646,898.906,434.591,898.889,434.539ZM892.5,482.382a2.4,2.4,0,0,0,.246,0,2.365,2.365,0,0,0-.04.6Z" transform="translate(-699.358 -352.819)" fill="url(#linear-gradient)"/>
    <path id="Path_218" data-name="Path 218" d="M943.7,425.88c1.155.185,2.439.631,2.881,1.713a5.669,5.669,0,0,1,0,2.618,1.989,1.989,0,0,0,.025.7,2.442,2.442,0,0,0,.61.958,5.1,5.1,0,0,1,.88,1.231,1.793,1.793,0,0,1,.059,1.473,1.069,1.069,0,0,0-.145.387c-.015.3.3.49.53.682.867.718.829,2.025.842,3.157a15.937,15.937,0,0,0,1.507,6.659,2.035,2.035,0,0,1-2.277-.3,7.673,7.673,0,0,0,.518,1.49,1.636,1.636,0,0,1-1.985-.956,16.354,16.354,0,0,1-.673-2.345c-.253-.77-.735-1.45-.945-2.227a2.139,2.139,0,0,0-.263-.745,1.89,1.89,0,0,0-.463-.394,4.5,4.5,0,0,1-1.631-2.214,8.673,8.673,0,0,1-2.736.316,3.012,3.012,0,0,1-2.332-1.282c-.21-.345-.33-.743-.528-1.1-.242-.434-.6-.789-.871-1.206a4.453,4.453,0,0,1-.5-3.4,8.1,8.1,0,0,1,1.593-3.117A6.165,6.165,0,0,1,943.7,425.88Z" transform="translate(-749.68 -354.508)" fill="#3a3768"/>
    <path id="Path_219" data-name="Path 219" d="M943.7,425.88c1.155.185,2.439.631,2.881,1.713a5.669,5.669,0,0,1,0,2.618,1.989,1.989,0,0,0,.025.7,2.442,2.442,0,0,0,.61.958,5.1,5.1,0,0,1,.88,1.231,1.793,1.793,0,0,1,.059,1.473,1.069,1.069,0,0,0-.145.387c-.015.3.3.49.53.682.867.718.829,2.025.842,3.157a15.937,15.937,0,0,0,1.507,6.659,2.035,2.035,0,0,1-2.277-.3,7.673,7.673,0,0,0,.518,1.49,1.636,1.636,0,0,1-1.985-.956,16.354,16.354,0,0,1-.673-2.345c-.253-.77-.735-1.45-.945-2.227a2.139,2.139,0,0,0-.263-.745,1.89,1.89,0,0,0-.463-.394,4.5,4.5,0,0,1-1.631-2.214,8.673,8.673,0,0,1-2.736.316,3.012,3.012,0,0,1-2.332-1.282c-.21-.345-.33-.743-.528-1.1-.242-.434-.6-.789-.871-1.206a4.453,4.453,0,0,1-.5-3.4,8.1,8.1,0,0,1,1.593-3.117A6.165,6.165,0,0,1,943.7,425.88Z" transform="translate(-749.68 -354.508)" fill="#3f3d56"/>
    <path id="Path_220" data-name="Path 220" d="M993.967,487.646c.065.421.143.825.238,1.235a11.793,11.793,0,0,0,.4,1.393,1.34,1.34,0,0,1,.124.631,1.175,1.175,0,0,1-.154.383,7.13,7.13,0,0,0-1.3,2.915,1.568,1.568,0,0,1-.143.777q-.612-1.313-1.349-2.563a7.893,7.893,0,0,1-1.231-2.753,5.226,5.226,0,0,1,.017-1.414,3.078,3.078,0,0,1,.509-1.488c.347-.455,1.3-1.143,1.923-1C993.726,485.937,993.875,487.058,993.967,487.646Z" transform="translate(-792.658 -401.843)" fill="#266dd3"/>
    <path id="Path_221" data-name="Path 221" d="M881.95,479.974a6.27,6.27,0,0,1-1.943-1.086,6.337,6.337,0,0,1-.882-1.094l-1.623-2.345a4.231,4.231,0,0,1-.863-1.814,5.971,5.971,0,0,1-1.623-3.683c0-.139-.055-.318-.194-.322a.244.244,0,0,0-.16.076.915.915,0,0,0-.291.779,1.08,1.08,0,0,0-.688.12c-.194.139-.244.482-.036.6a.3.3,0,0,0-.21.335,1.052,1.052,0,0,0-.739.036c-.21.124-.305.486-.09.631a.632.632,0,0,0-.421.617,1.238,1.238,0,0,0,.28.726c.631.842,1.726,1.174,2.448,1.928a5.6,5.6,0,0,1,.631.842l2.094,3.186a11.447,11.447,0,0,0,2.3,2.8,2.081,2.081,0,0,0,.854.455.945.945,0,0,0,.9-.248,1.467,1.467,0,0,0,.263-.9C882.007,481.073,881.914,480.515,881.95,479.974Z" transform="translate(-699.238 -389.122)" fill="#a1616a"/>
    <path id="Path_222" data-name="Path 222" d="M950.525,722.21a1.81,1.81,0,0,0-.223.271.95.95,0,0,0-.095.777,1.053,1.053,0,0,0,.507.6.99.99,0,0,1,.16.093.972.972,0,0,0,.1.084.383.383,0,0,0,.211.04,7.667,7.667,0,0,0,1.656-.282,1.326,1.326,0,0,0,.684-.322,1.358,1.358,0,0,0,.234-.452l.2-.547a6.425,6.425,0,0,0,.3-1.019,2.12,2.12,0,0,0-.055-1.052.345.345,0,0,0-.074.21,2.328,2.328,0,0,1-.421,1.021,1.038,1.038,0,0,1-.164.21,1.07,1.07,0,0,1-.493.21,6.034,6.034,0,0,1-1.052.135.327.327,0,0,1-.143-.017.25.25,0,0,1-.12-.149.632.632,0,0,1,0-.421c.095-.265.356-.44.482-.694.093-.187-.036-.394-.227-.236a5.842,5.842,0,0,0-.482.511Z" transform="translate(-760.803 -587.116)" fill="#3f3d56"/>
    <path id="Path_223" data-name="Path 223" d="M955.984,703.519a4.172,4.172,0,0,1-.387,2.572c-.173.267-.406.49-.6.741a.869.869,0,0,0-.211.446.683.683,0,0,0,.594.659,1.962,1.962,0,0,0,.953-.137,2.3,2.3,0,0,0,.81-.381,2.334,2.334,0,0,0,.615-1.49l.2-1.263a3.981,3.981,0,0,0,.072-.92,4.094,4.094,0,0,0-.246-.991l-.324-.947a.447.447,0,0,0-.143-.236.42.42,0,0,0-.246-.044c-.309.015-1.09.128-1.24.455C955.685,702.277,955.963,703.186,955.984,703.519Z" transform="translate(-764.448 -572.213)" fill="#ee8e9e"/>
    <path id="Path_224" data-name="Path 224" d="M955.984,703.519a4.172,4.172,0,0,1-.387,2.572c-.173.267-.406.49-.6.741a.869.869,0,0,0-.211.446.683.683,0,0,0,.594.659,1.962,1.962,0,0,0,.953-.137,2.3,2.3,0,0,0,.81-.381,2.334,2.334,0,0,0,.615-1.49l.2-1.263a3.981,3.981,0,0,0,.072-.92,4.094,4.094,0,0,0-.246-.991l-.324-.947a.447.447,0,0,0-.143-.236.42.42,0,0,0-.246-.044c-.309.015-1.09.128-1.24.455C955.685,702.277,955.963,703.186,955.984,703.519Z" transform="translate(-764.448 -572.213)" opacity="0.05"/>
    <path id="Path_225" data-name="Path 225" d="M927.547,578.571a.086.086,0,0,0,0,.023,1.052,1.052,0,0,0,.118.358,5.173,5.173,0,0,1,.455,1.841,1.564,1.564,0,0,0,.061.465,2.477,2.477,0,0,0,.238.408,4.328,4.328,0,0,1,.44,1.534,12.13,12.13,0,0,0,.537,2.012,5.69,5.69,0,0,1,.608,2.736,2.736,2.736,0,0,0-.084.673,1.944,1.944,0,0,0,.263.709,6.609,6.609,0,0,1,.3.657c.086.223.179.486.25.732a1,1,0,0,1-.055.9,1.028,1.028,0,0,0-.162.2.526.526,0,0,0,0,.341q.171.72.366,1.437c.1.375.21.747.318,1.12.812,2.723,1.73,5.419,2.275,8.208.078.4.591.69.991.777a1.292,1.292,0,0,0,1.139-.305.683.683,0,0,0,.08-.078,2.392,2.392,0,0,0,.448-1.764c-.141-2.871-1.587-5.5-2.275-8.288a15.955,15.955,0,0,1-.446-3.075,32.134,32.134,0,0,1,.753-10.455,2.681,2.681,0,0,0,.078-2.1,2.053,2.053,0,0,0-1.082-.791,6.966,6.966,0,0,0-5.407.139,1.729,1.729,0,0,0,0,.21,2.132,2.132,0,0,1-.109.955A1.171,1.171,0,0,0,927.547,578.571Z" transform="translate(-742.945 -473.393)" fill="#3f3d56"/>
    <path id="Path_226" data-name="Path 226" d="M972.558,711.338l.183.667a7.456,7.456,0,0,0,.389,1.174,5.1,5.1,0,0,1,.347.8,2.565,2.565,0,0,1,.059.684,2.089,2.089,0,0,1-.095.646,1.614,1.614,0,0,1-.945.9,4.463,4.463,0,0,1-1.311.246,1.052,1.052,0,0,1-.345,0,.963.963,0,0,1-.335-.175,2.768,2.768,0,0,1-.977-2.022,2.492,2.492,0,0,1,.1-.516c.046-.063.507.2.309.421-.29.322.562.156,1,.128a4.011,4.011,0,0,0,.564-.093l.7-.149c.229-.05.495-.128.575-.349s-.1-.482-.234-.694a4.542,4.542,0,0,1-.547-1.93c-.017-.133-.181-.985.158-.72a.947.947,0,0,1,.236.444C972.455,710.962,972.506,711.149,972.558,711.338Z" transform="translate(-776.093 -579.14)" fill="#3f3d56"/>
    <path id="Path_227" data-name="Path 227" d="M941.717,640.748a.961.961,0,0,0,.055-.9c-.034-.114-.067-.225-.105-.337l2.755-.93c0,.246.021.492.032.739a16.005,16.005,0,0,0,.446,3.077c.688,2.788,2.134,5.415,2.275,8.284a2.3,2.3,0,0,1-.526,1.846,1.3,1.3,0,0,1-1.141.3c-.4-.086-.913-.375-.991-.776-.545-2.789-1.473-5.484-2.275-8.208q-.379-1.263-.684-2.559a.535.535,0,0,1,0-.339A1.023,1.023,0,0,1,941.717,640.748Z" transform="translate(-753.986 -522.516)" opacity="0.05"/>
    <path id="Path_228" data-name="Path 228" d="M970.954,696.55a3.329,3.329,0,0,1,.6,1.137,6.518,6.518,0,0,1-.048.781,2.448,2.448,0,0,0,.116.631q.4,1.452.926,2.866a.786.786,0,0,1,.074.389.687.687,0,0,1-.457.455,4.824,4.824,0,0,1-2.1.231,1.1,1.1,0,0,1-.594-.139,1.032,1.032,0,0,1-.335-.827c-.048-.895.1-1.793,0-2.683-.034-.324-.1-.644-.154-.964a2.824,2.824,0,0,1,.042-1.347,3.085,3.085,0,0,1,.5-.842,2.634,2.634,0,0,1,.7-.7c.084-.051.322-.211.406-.107.044.048.025.179.031.24a2.435,2.435,0,0,0,.048.278A2.281,2.281,0,0,0,970.954,696.55Z" transform="translate(-775.609 -567.376)" fill="#ee8e9e"/>
    <path id="Path_229" data-name="Path 229" d="M932.728,579.673a.762.762,0,0,1,.052.631c-.093.381-.244.745-.368,1.117a15.548,15.548,0,0,0-.476,2.031,5.947,5.947,0,0,0-.259,1.936,13.794,13.794,0,0,0-1.473,4.59c-.057.41.857.943.842,1.357-.034.825-.692.89-.211,1.549.023.034-.183.77-.156.8.2.238.448.421.661.65a4.973,4.973,0,0,1,.7,1.021c1.263,2.269,3.071,4.84,2.511,7.366a.45.45,0,0,0,.24.455,1.239,1.239,0,0,0,.53.122h.089a2.393,2.393,0,0,0,.448-1.764c-.141-2.87-1.587-5.5-2.275-8.288a15.953,15.953,0,0,1-.446-3.075,32.127,32.127,0,0,1,.753-10.455,2.681,2.681,0,0,0,.078-2.1,2.052,2.052,0,0,0-1.082-.791,6.965,6.965,0,0,0-5.406.139,1.658,1.658,0,0,0,0,.21,2.131,2.131,0,0,1-.11.955,1.173,1.173,0,0,0-.107.421s-.051-.558-.051-.549c1.126.162,2.3.9,3.426,1.052a7.827,7.827,0,0,1,1.717.379A.747.747,0,0,1,932.728,579.673Z" transform="translate(-742.68 -473.378)" opacity="0.05"/>
    <path id="Path_230" data-name="Path 230" d="M939.765,559.133c.151.482.286.968.4,1.458a1.193,1.193,0,0,1,.04.522,4.572,4.572,0,0,0-.156.482,1.615,1.615,0,0,0,.255.728,2.511,2.511,0,0,1-.284,1.915l-.8,1.8-.652,1.473c-.194.44-.387.88-.575,1.324a43.043,43.043,0,0,0-2.079,6.232.765.765,0,0,1-.107.272c-.111.147-.311.189-.474.28a.882.882,0,0,0-.1,1.408c-.093,1.084.72,2.13,1.139,3.134.962,2.315.787,4.908,1.12,7.387l-.375-.21c-.36.164-.347.674-.539,1.016-.29.518-1,.591-1.591.551a1.242,1.242,0,0,1-.532-.122.448.448,0,0,1-.238-.455c.558-2.525-1.263-5.1-2.513-7.366a4.9,4.9,0,0,0-.7-1.019c-.21-.225-.461-.421-.661-.652a3.536,3.536,0,0,1-.587-2.469,13.832,13.832,0,0,1,1.572-5.83,5.983,5.983,0,0,1,.261-1.936,15.216,15.216,0,0,1,.474-2.031c.124-.372.276-.737.368-1.117a.761.761,0,0,0-.051-.631.741.741,0,0,0-.356-.229,7.921,7.921,0,0,0-1.717-.379l-3.868-.556a9.844,9.844,0,0,1-.164-2.479,3.811,3.811,0,0,1,2.736-3.19.575.575,0,0,1,.5.032A20.169,20.169,0,0,1,939.765,559.133Z" transform="translate(-741.926 -458.975)" fill="#666"/>
    <path id="Path_231" data-name="Path 231" d="M952.985,456.576a1.894,1.894,0,0,0,.168,1.107,1.729,1.729,0,0,0,.44.486,3.261,3.261,0,0,0,1.275.631,1.358,1.358,0,0,1,.762.335c.271.328.09.823-.141,1.181a3.02,3.02,0,0,1-1.671,1.383c-.57.156-1.181.061-1.764.162-.421.074-.821.248-1.238.347a3.651,3.651,0,0,1-3.367-.937,4.809,4.809,0,0,0,1.585-1.7,2.411,2.411,0,0,0,.12-1.62,3.6,3.6,0,0,1-.379-1.583,1.659,1.659,0,0,1,1.16-1.092,7.441,7.441,0,0,1,1.458-.295c.271-.038,2-.421,2.1-.232.061.107-.3.739-.343.878A3.379,3.379,0,0,0,952.985,456.576Z" transform="translate(-758.66 -377.335)" fill="#a1616a"/>
    <path id="Path_232" data-name="Path 232" d="M952.985,456.576a1.894,1.894,0,0,0,.168,1.107,1.729,1.729,0,0,0,.44.486,3.261,3.261,0,0,0,1.275.631,1.358,1.358,0,0,1,.762.335c.271.328.09.823-.141,1.181a3.02,3.02,0,0,1-1.671,1.383c-.57.156-1.181.061-1.764.162-.421.074-.821.248-1.238.347a3.651,3.651,0,0,1-3.367-.937,4.809,4.809,0,0,0,1.585-1.7,2.411,2.411,0,0,0,.12-1.62,3.6,3.6,0,0,1-.379-1.583,1.659,1.659,0,0,1,1.16-1.092,7.441,7.441,0,0,1,1.458-.295c.271-.038,2-.421,2.1-.232.061.107-.3.739-.343.878A3.379,3.379,0,0,0,952.985,456.576Z" transform="translate(-758.66 -377.335)" opacity="0.05"/>
    <circle id="Ellipse_14" data-name="Ellipse 14" cx="3.513" cy="3.513" r="3.513" transform="translate(188.634 73.479)" fill="#a1616a"/>
    <path id="Path_233" data-name="Path 233" d="M938.524,476.055l-2.38.4a8.917,8.917,0,0,1-1.78.179,5.092,5.092,0,0,0-.981,0c-.225.038-.44.124-.667.151-.278.036-.56-.017-.842.019a2.653,2.653,0,0,0-1.336.766,2.327,2.327,0,0,0-.989,1.473.42.42,0,0,0,.027.21.615.615,0,0,0,.177.185,5.639,5.639,0,0,1,1,1.368,5.284,5.284,0,0,0,1.183,1.275c.105-.067.3.109.257.223s-.158.2-.2.314c-.084.269.248.467.385.716a1.936,1.936,0,0,1,.084.842c.015.282.141.617.183.932.095.73-.265,1.5,0,2.193a.688.688,0,0,0-.684.532,2.01,2.01,0,0,0,.027.934,1.286,1.286,0,0,0-.631,1.174.21.21,0,0,1-.152.28,1.185,1.185,0,0,0-.73,1.1.541.541,0,0,1-.021.234.514.514,0,0,1-.173.177,1.372,1.372,0,0,0-.511,1.073.787.787,0,0,0,.362.7,6.549,6.549,0,0,0,1.6.476,14.4,14.4,0,0,0,1.549.274,13.9,13.9,0,0,0,1.45.044l3.186-.013c.895,0,1.791,0,2.685-.067a7.614,7.614,0,0,1,2.494.059c.1-.17-.061-.368-.16-.541a1.812,1.812,0,0,1-.183-.749l-.2-2.123a3.721,3.721,0,0,1-.017-.88c.044-.314.162-.61.223-.92a14.1,14.1,0,0,0,.038-1.816,8.12,8.12,0,0,1,.278-1.581l.631-2.6a10.041,10.041,0,0,1,.312-1.3q.726-1.873,1.526-3.712a.382.382,0,0,0-.027-.328l-.526-.945a6.03,6.03,0,0,0-.482-.768,3.041,3.041,0,0,0-1.778-1.092,3.144,3.144,0,0,0-2.067.307c-.246.13-.474.293-.724.421A2.962,2.962,0,0,1,938.524,476.055Z" transform="translate(-744.523 -393.258)" fill="#266dd3"/>
    <path id="Path_234" data-name="Path 234" d="M916.149,491.5l-.829,1.107a1.4,1.4,0,0,0-.193.305,4.938,4.938,0,0,0-.124.939,1.963,1.963,0,0,1-.242.562,12.962,12.962,0,0,1-1.052,1.57,2.813,2.813,0,0,1-.655.648,1.086,1.086,0,0,1-.884.156.553.553,0,0,1,.29.263,3.211,3.211,0,0,1,.211,2.054,2.107,2.107,0,0,1-.232.673,1.01,1.01,0,0,1-.528.457.779.779,0,0,0,.917.659,1.534,1.534,0,0,0,.455-.227l1.332-.863a3.53,3.53,0,0,0,.621-.465c.248-.248.421-.562.665-.819.421-.436,1.019-.7,1.311-1.223a5.76,5.76,0,0,0,.326-1.078c.074-.234.183-.457.253-.692a3.094,3.094,0,0,0-.274-2.218A9.474,9.474,0,0,0,916.149,491.5Z" transform="translate(-730.6 -406.389)" fill="#f86d70"/>
    <path id="Path_235" data-name="Path 235" d="M945.484,429.8a4.6,4.6,0,0,1,1.235-1.286,4.216,4.216,0,0,1,2.229-.943,2.37,2.37,0,0,1,1,.164c.017-.993.263-1.652.882-1.553,1.155.185,2.439.631,2.881,1.713a5.67,5.67,0,0,1,0,2.618,1.991,1.991,0,0,0,.025.7,2.444,2.444,0,0,0,.61.958,5.105,5.105,0,0,1,.88,1.231,1.793,1.793,0,0,1,.059,1.473,1.069,1.069,0,0,0-.145.387c-.015.3.3.49.53.682.867.718.829,2.025.842,3.157a15.934,15.934,0,0,0,1.507,6.659,2.035,2.035,0,0,1-2.277-.3,7.671,7.671,0,0,0,.518,1.49,1.636,1.636,0,0,1-1.985-.956,16.358,16.358,0,0,1-.673-2.344c-.253-.77-.734-1.45-.945-2.227a2.139,2.139,0,0,0-.263-.745,1.887,1.887,0,0,0-.463-.394c-.755-.543.358-4.655.063-5.537-.44.095-1.248-2.027-1.709-4.184a2.179,2.179,0,0,1-1,.1,1.2,1.2,0,0,0-.358-.025.953.953,0,0,0-.311.126,7.672,7.672,0,0,1-1.063.547,6.111,6.111,0,0,1-2.412.21,2.392,2.392,0,0,1,.341-1.724Z" transform="translate(-756.808 -354.811)" fill="#3a3768"/>
    <path id="Path_236" data-name="Path 236" d="M945.484,429.8a4.6,4.6,0,0,1,1.235-1.286,4.216,4.216,0,0,1,2.229-.943,2.37,2.37,0,0,1,1,.164c.017-.993.263-1.652.882-1.553,1.155.185,2.439.631,2.881,1.713a5.67,5.67,0,0,1,0,2.618,1.991,1.991,0,0,0,.025.7,2.444,2.444,0,0,0,.61.958,5.105,5.105,0,0,1,.88,1.231,1.793,1.793,0,0,1,.059,1.473,1.069,1.069,0,0,0-.145.387c-.015.3.3.49.53.682.867.718.829,2.025.842,3.157a15.934,15.934,0,0,0,1.507,6.659,2.035,2.035,0,0,1-2.277-.3,7.671,7.671,0,0,0,.518,1.49,1.636,1.636,0,0,1-1.985-.956,16.358,16.358,0,0,1-.673-2.344c-.253-.77-.734-1.45-.945-2.227a2.139,2.139,0,0,0-.263-.745,1.887,1.887,0,0,0-.463-.394c-.755-.543.358-4.655.063-5.537-.44.095-1.248-2.027-1.709-4.184a2.179,2.179,0,0,1-1,.1,1.2,1.2,0,0,0-.358-.025.953.953,0,0,0-.311.126,7.672,7.672,0,0,1-1.063.547,6.111,6.111,0,0,1-2.412.21,2.392,2.392,0,0,1,.341-1.724Z" transform="translate(-756.808 -354.811)" fill="#3f3d56"/>
    <g id="Group_62" data-name="Group 62" transform="translate(188.971 71.355)" opacity="0.1">
      <path id="Path_237" data-name="Path 237" d="M977.88,445.726a15.971,15.971,0,0,1-1.507-6.659c0-1.126.032-2.433-.842-3.157-.231-.192-.545-.381-.532-.682a1.076,1.076,0,0,1,.147-.387,1.8,1.8,0,0,0-.059-1.473,5.1,5.1,0,0,0-.88-1.231,2.447,2.447,0,0,1-.612-.958,2.093,2.093,0,0,1-.025-.7,5.374,5.374,0,0,0,0-2.618,3.4,3.4,0,0,0-2.77-1.694.631.631,0,0,1,.3-.019c1.155.185,2.439.631,2.881,1.713a5.67,5.67,0,0,1,0,2.618,1.988,1.988,0,0,0,.025.7,2.444,2.444,0,0,0,.61.958,5.1,5.1,0,0,1,.88,1.231,1.793,1.793,0,0,1,.059,1.473,1.07,1.07,0,0,0-.145.387c-.015.3.3.49.53.682.867.718.829,2.025.842,3.157a15.935,15.935,0,0,0,1.507,6.659,1.969,1.969,0,0,1-1.115.21A1.9,1.9,0,0,0,977.88,445.726Z" transform="translate(-966.067 -426.141)"/>
      <path id="Path_238" data-name="Path 238" d="M994.148,519.28a7.54,7.54,0,0,1-.518-1.49,1.922,1.922,0,0,0,.5.33,7.842,7.842,0,0,0,.421,1.16,1.1,1.1,0,0,1-.68.086A1.073,1.073,0,0,0,994.148,519.28Z" transform="translate(-984.092 -498.502)"/>
      <path id="Path_239" data-name="Path 239" d="M963.659,433a2.428,2.428,0,0,0-.669-.158h.08a2.354,2.354,0,0,1,.594.044C963.661,432.916,963.659,432.954,963.659,433Z" transform="translate(-959.9 -431.426)"/>
      <path id="Path_240" data-name="Path 240" d="M949.678,448.058a7.708,7.708,0,0,0,1.065-.547.938.938,0,0,1,.312-.126,1.154,1.154,0,0,1,.328.019,1.307,1.307,0,0,0-.227.107,7.693,7.693,0,0,1-1.063.547,4.8,4.8,0,0,1-1.783.231A4.226,4.226,0,0,0,949.678,448.058Z" transform="translate(-948.31 -442.91)"/>
      <path id="Path_241" data-name="Path 241" d="M965.913,447l.019.095a2.061,2.061,0,0,1-.522.015A2.314,2.314,0,0,0,965.913,447Z" transform="translate(-961.811 -442.61)"/>
    </g>
    <path id="Path_242" data-name="Path 242" d="M993.681,477.038a1.284,1.284,0,0,0,.345,1.027,2.29,2.29,0,0,0,.488.36,1.326,1.326,0,0,0,.581.21,1.1,1.1,0,0,0,.743-.324,4.943,4.943,0,0,0,1.2-2.094,15.714,15.714,0,0,0,.907-3.1,26.251,26.251,0,0,1,.421-3.437c-.291-.581-.476-1.221-.806-1.78a8.385,8.385,0,0,1-.556-1.042,3.6,3.6,0,0,1-.1-2.4.324.324,0,0,0-.383.019.806.806,0,0,0-.232.337,2.983,2.983,0,0,0-.229,1.412.561.561,0,0,1-.04.345.434.434,0,0,1-.375.158,3.325,3.325,0,0,1-.867-.156,8.04,8.04,0,0,0-2.671-.221,1.263,1.263,0,0,0-.522.126.484.484,0,0,0-.267.436l2.134.314a.883.883,0,0,1,.45.154.305.305,0,0,1,.061.421.835.835,0,0,1-.147.1.44.44,0,0,0,.017.7.45.45,0,0,1,.145.1c.088.118-.027.271-.065.421a.522.522,0,0,0,.257.532,1.878,1.878,0,0,0,.6.2,6.273,6.273,0,0,1,1.221.421.669.669,0,0,1,.318.238.714.714,0,0,1-.038.6l-.556,1.5c-.089.236-.175.469-.284.7-.141.293-.316.568-.461.861a8.528,8.528,0,0,0-.347.842C994.336,475.771,993.778,476.227,993.681,477.038Z" transform="translate(-793.298 -384.997)" fill="#a1616a"/>
    <path id="Path_243" data-name="Path 243" d="M467.137,249.17v70.589a23.38,23.38,0,0,0-7.288-1.124c-10.5,0-19.019,7.427-19.019,17.922s8.523,17.84,19.019,17.84,19.071-7.728,19.071-18.941V286.438h55.35v33.322a23.369,23.369,0,0,0-7.288-1.124c-10.5,0-19.019,7.427-19.019,17.922s8.523,17.84,19.019,17.84,19.072-7.728,19.072-18.941V249.17Zm67.135,26.307h-55.35V260.956h55.35Z" transform="translate(-358.662 -215.059)" fill="#20222b"/>
    <path id="Path_244" data-name="Path 244" d="M199,212.17v47.374a17.92,17.92,0,1,0,8.965,15.49V230.122h17.973V212.17Z" transform="translate(-146.51 -185.846)" fill="#20222b"/>
    <path id="Path_245" data-name="Path 245" d="M223.1,720.008a11.443,11.443,0,0,0-3.294-1.166,15.069,15.069,0,0,0,2.464-.553c2.14-.678,3.22-1.587,2.41-2.031s-3.2-.257-5.344.421a8.25,8.25,0,0,0-2.052.911,4.112,4.112,0,0,0-1.762-1.53c-1.894-1.052-4.457-1.572-5.708-1.176s-.722,1.562,1.181,2.608a11.4,11.4,0,0,0,2.946,1.1,17.321,17.321,0,0,0-2.031.36c-2.33.56-3.677,1.4-3.01,1.894s3.1.421,5.43-.135a10.142,10.142,0,0,0,2.441-.863,3.932,3.932,0,0,0,1.793,1.6c1.894,1.052,4.457,1.572,5.708,1.176S224.991,721.052,223.1,720.008Z" transform="translate(-175.407 -582.656)" fill="#20222b"/>
    <path id="Path_246" data-name="Path 246" d="M314.557,657.1a5.578,5.578,0,0,0-1.6-.566,7.515,7.515,0,0,0,1.2-.267c1.04-.33,1.564-.77,1.17-.987a4.466,4.466,0,0,0-2.595.211,4.137,4.137,0,0,0-1,.442,2.005,2.005,0,0,0-.854-.743,4.361,4.361,0,0,0-2.772-.57c-.606.192-.349.76.572,1.263a5.519,5.519,0,0,0,1.435.53,8.587,8.587,0,0,0-.987.177c-1.13.269-1.785.68-1.461.915a4.561,4.561,0,0,0,2.635-.065,5,5,0,0,0,1.187-.421,1.891,1.891,0,0,0,.869.777,4.361,4.361,0,0,0,2.772.572C315.74,658.177,315.481,657.609,314.557,657.1Z" transform="translate(-253.46 -535.13)" fill="#20222b"/>
    <path id="Path_247" data-name="Path 247" d="M152.925,586.576a3.5,3.5,0,0,0-1.006-.354,4.384,4.384,0,0,0,.753-.168c.65-.211.979-.482.732-.617a2.816,2.816,0,0,0-1.623.128,2.592,2.592,0,0,0-.631.276,1.231,1.231,0,0,0-.535-.463,2.723,2.723,0,0,0-1.734-.358c-.381.12-.21.474.36.791a3.429,3.429,0,0,0,.9.333,5.186,5.186,0,0,0-.619.112c-.707.168-1.118.421-.915.572a2.857,2.857,0,0,0,1.65-.04,3.141,3.141,0,0,0,.743-.263,1.172,1.172,0,0,0,.543.486,2.727,2.727,0,0,0,1.734.358C153.656,587.249,153.5,586.893,152.925,586.576Z" transform="translate(-127.898 -480.197)" fill="#20222b"/>
    <path id="Path_248" data-name="Path 248" d="M238.3,212.17v15.006H220.323v44.911a17.946,17.946,0,0,1-29.083,14.077,17.948,17.948,0,0,0,32.029-11.131V230.122h17.973V212.17Z" transform="translate(-161.599 -185.846)" opacity="0.1"/>
    <path id="Path_249" data-name="Path 249" d="M173.87,220.714l.061.459,1.989.282s.162-.122.421-.288a6.181,6.181,0,0,1,1.936-.9c1.042-.21,4.354-1.694,3.287-1.791s-.958.124-.958.124a1.757,1.757,0,0,0-2.391-.1,16.61,16.61,0,0,1-3.87,2.033C174.051,220.648,173.87,220.714,173.87,220.714Z" transform="translate(-147.885 -190.492)" fill="#efb7b9"/>
    <path id="Path_250" data-name="Path 250" d="M200.595,204.691a3.368,3.368,0,0,1,.953-.244,1.16,1.16,0,0,1,.907.3c.128.133.21.3.337.438.606.648,1.783.164,2.513.667a2.5,2.5,0,0,1,.747,1.423c.16.524.45,1.1.985,1.21a2.921,2.921,0,0,0,.777-.029.764.764,0,0,1,.7.257c.248.377-.095,1.006.265,1.275.322.238.9-.095,1.13.236a.492.492,0,0,1-.078.547,3.805,3.805,0,0,0-.366.459.695.695,0,0,0,.684,1.014c.227-.023.469-.152.667-.04a.471.471,0,0,1,.21.372.979.979,0,0,1-.88,1.029,2.176,2.176,0,0,1-1.088-.362,1.366,1.366,0,0,0-1.109-.179,1.712,1.712,0,0,0-.446.314,4.885,4.885,0,0,1-1.372.812,1.691,1.691,0,0,1-1.368.061c-.474-.242-.718-.831-1.219-1.01s-1.073.156-1.553.44-1.122.522-1.555.173c-.467-.377-.324-1.132-.608-1.66a1.631,1.631,0,0,0-.457-.5c-.32-.246-.684-.431-1.006-.673a1.684,1.684,0,0,1-.686-.964,1.952,1.952,0,0,1,.391-1.368,3.791,3.791,0,0,0,.644-1.294c.063-.358,0-.73.082-1.084a1.336,1.336,0,0,1,.867-.915c.236-.08.278-.059.4-.267A.842.842,0,0,1,200.595,204.691Z" transform="translate(-166.665 -179.744)" fill="#3f3d56"/>
    <g id="Group_63" data-name="Group 63" transform="translate(30.993 29.117)" opacity="0.1">
      <path id="Path_251" data-name="Path 251" d="M249.459,225.44a1.789,1.789,0,0,1,.038.631A1.708,1.708,0,0,1,249.459,225.44Z" transform="translate(-238.548 -225.44)"/>
      <path id="Path_252" data-name="Path 252" d="M253.327,233.045a.687.687,0,0,0-.072.231.711.711,0,0,1,.025-.589,3.745,3.745,0,0,1,.366-.457.776.776,0,0,0,.105-.21l.017.019a.492.492,0,0,1-.076.545,3.759,3.759,0,0,0-.366.461Z" transform="translate(-241.515 -230.635)"/>
      <path id="Path_253" data-name="Path 253" d="M198.331,230.989c.322.244.684.421,1,.676a1.6,1.6,0,0,1,.457.5c.284.528.141,1.284.608,1.66.434.349,1.078.114,1.557-.173s1.027-.631,1.551-.44.745.768,1.221,1.01a1.717,1.717,0,0,0,1.368-.061,4.9,4.9,0,0,0,1.37-.812,1.81,1.81,0,0,1,.446-.316,1.363,1.363,0,0,1,1.111.181,2.135,2.135,0,0,0,1.086.362.989.989,0,0,0,.873-.865.632.632,0,0,1,.046.185.977.977,0,0,1-.873,1.035,2.187,2.187,0,0,1-1.086-.36,1.386,1.386,0,0,0-1.111-.181,1.86,1.86,0,0,0-.446.314,4.909,4.909,0,0,1-1.37.814,1.708,1.708,0,0,1-1.368.061c-.476-.242-.718-.831-1.221-1.01a1.988,1.988,0,0,0-1.551.44c-.478.286-1.124.522-1.557.17-.467-.377-.324-1.13-.608-1.66a1.62,1.62,0,0,0-.457-.5c-.318-.246-.682-.431-1-.676a1.684,1.684,0,0,1-.688-.964,1.138,1.138,0,0,1-.021-.253A1.759,1.759,0,0,0,198.331,230.989Z" transform="translate(-197.668 -229.143)"/>
    </g>
    <path id="Path_254" data-name="Path 254" d="M202.162,286.049l-.722.154a1.235,1.235,0,0,0,1.808.4C204.344,285.836,202.162,286.049,202.162,286.049Z" transform="translate(-169.653 -244.155)" fill="#4c4981"/>
    <path id="Path_255" data-name="Path 255" d="M202.162,286.049l-.722.154a1.235,1.235,0,0,0,1.808.4C204.344,285.836,202.162,286.049,202.162,286.049Z" transform="translate(-169.653 -244.155)" opacity="0.1"/>
    <path id="Path_256" data-name="Path 256" d="M279.32,331.623s1,.518,1.934,1.117a5.215,5.215,0,0,1,1.509,1.25c.5.842,2.911,1.755,2.911,1.755l2.4,1.823a3.422,3.422,0,0,1,1.339,1.181c.067.093.107.152.107.152l.96-.124.505-.657s.128-1.448-.869-1.431a1.371,1.371,0,0,1-.562-.145,11.867,11.867,0,0,1-2.574-1.968s-2.551-3.186-3.315-3.292a1.258,1.258,0,0,1-.24-.061,7.823,7.823,0,0,1-1.894-1.273Z" transform="translate(-231.142 -278.839)" fill="#efb7b9"/>
    <path id="Path_257" data-name="Path 257" d="M232.123,367.735a22.83,22.83,0,0,0,1.787,5.066,8.045,8.045,0,0,1,.705,2.269l.137,1.052a1.222,1.222,0,0,0,.152.408,2.225,2.225,0,0,0,.135.21l1.921-.591s-.112-.442-.28-.949a4.283,4.283,0,0,0-.661-1.381c-.469-.461-.539-2.088-.539-2.088s-.391-3.127-.511-3.521a5.43,5.43,0,0,1-.21-1.153c-.019-.21-.032-.45-.034-.722a14.751,14.751,0,0,0-.3-2.315l-2.241.406-.059,2.507A1.671,1.671,0,0,0,232.123,367.735Z" transform="translate(-193.839 -305.738)" fill="#efb7b9"/>
    <path id="Path_258" data-name="Path 258" d="M327.25,363.486c.067.093.107.151.107.151l.96-.124.505-.657s.128-1.448-.869-1.431a1.373,1.373,0,0,1-.562-.145c-.082.434.4.793.4.793s.211.147.154.827C327.917,363.364,327.507,363.462,327.25,363.486Z" transform="translate(-268.985 -303.575)" opacity="0.1"/>
    <path id="Path_259" data-name="Path 259" d="M326.75,356.279c.063.234.669.577,1.09.791.21.105.368.179.4.2.1.048.606-.518.676-.974a8.476,8.476,0,0,1,1.284-1.877,5.09,5.09,0,0,0,.45-1.778c.046-.621-.21-.671-.516-.53a2.038,2.038,0,0,0-.577.452,1.541,1.541,0,0,1-.747.387,3.654,3.654,0,0,0-1.075.459c-.295.189-.581.421-.631.631-.112.448.4.827.4.827s.21.147.154.827S326.744,356.258,326.75,356.279Z" transform="translate(-268.59 -296.28)" fill="#444053"/>
    <path id="Path_260" data-name="Path 260" d="M331.93,357.07c.21.105.368.179.4.2.1.048.606-.518.676-.974a8.478,8.478,0,0,1,1.284-1.877,5.094,5.094,0,0,0,.45-1.778c.046-.621-.21-.671-.516-.53a7.006,7.006,0,0,1-.421,1.949C333.5,354.648,332.265,356.555,331.93,357.07Z" transform="translate(-272.68 -296.28)" opacity="0.1"/>
    <path id="Path_261" data-name="Path 261" d="M245.263,418.339l-.019.036a2.213,2.213,0,0,0,.135.211l1.921-.591s-.112-.442-.28-.949c-.76-.21-1.85,1.118-1.85,1.118Z" transform="translate(-204.179 -347.586)" opacity="0.1"/>
    <path id="Path_262" data-name="Path 262" d="M244.791,420.113a7.844,7.844,0,0,0,2.315.476c.549-.065.572-.32.535-.842-.013-.168-.029-.362-.04-.585-.036-.926-.408-1.113-.408-1.113-.61-1.6-2.368.547-2.368.547l.09.177a1.937,1.937,0,0,0-.179.873A2.554,2.554,0,0,0,244.791,420.113Z" transform="translate(-203.837 -347.928)" fill="#444053"/>
    <path id="Path_263" data-name="Path 263" d="M244.795,428.327a7.843,7.843,0,0,0,2.315.476c.549-.065.572-.32.535-.842a1.7,1.7,0,0,1-1.307.375,5.141,5.141,0,0,1-1.6-.476,2.551,2.551,0,0,0,.055.467Z" transform="translate(-203.84 -356.143)" opacity="0.1"/>
    <path id="Path_264" data-name="Path 264" d="M207.23,234.583l.631,2.736.128.564,1.16.147,1.2.152,1.3-.471a4.392,4.392,0,0,0,.063-2.166,1.372,1.372,0,0,0-.6-.793,1.334,1.334,0,0,1-.25-.194,1.1,1.1,0,0,1-.21-.3,1.244,1.244,0,0,1-.112-.436,3.111,3.111,0,0,1,.4-1.547s-2.757-.941-2.542-.333c.141.394-.248,1.08-.539,1.513-.158.234-.286.4-.286.4Z" transform="translate(-174.224 -201.295)" fill="#efb7b9"/>
    <circle id="Ellipse_15" data-name="Ellipse 15" cx="2.395" cy="2.395" r="2.395" transform="translate(33.098 27.443)" opacity="0.1"/>
    <circle id="Ellipse_16" data-name="Ellipse 16" cx="2.395" cy="2.395" r="2.395" transform="translate(33.088 27.355)" fill="#efb7b9"/>
    <path id="Path_265" data-name="Path 265" d="M207.047,253.141a5.86,5.86,0,0,0,.631,1.36l3.344.821,2.389-2.5V252.8c-.074-.234-.985-3.182-.326-3.908.69-.756.421-2.887.421-2.887s-1.193-1.372-1.435-1.7-1.791-.593-1.791-.593c.078.105.149.21.21.3a2.946,2.946,0,0,1,.381.808,1.208,1.208,0,0,1-.032.878.962.962,0,0,0-.082.225c-.261,1.143-1.452.983-1.926.869-.122-.029-.2-.055-.2-.055l-1.139.036-.716.023s.326,5.636.248,6.084A.72.72,0,0,0,207.047,253.141Z" transform="translate(-173.869 -210.748)" fill="#266dd3"/>
    <path id="Path_266" data-name="Path 266" d="M206.815,258.526l2.073-.271h-.038c-.122-.029-.2-.055-.2-.055l-1.141.036-.713.023S206.8,258.351,206.815,258.526Z" transform="translate(-173.885 -222.189)" fill="#925978"/>
    <path id="Path_267" data-name="Path 267" d="M167.52,208.261l.9.219,1.416-.185.368-.385Z" transform="translate(-132.264 -164.15)" fill="#925978"/>
    <path id="Path_268" data-name="Path 268" d="M174.63,211.036l.406.1.166-.175Z" transform="translate(-137.878 -166.558)" fill="#925978"/>
    <path id="Path_269" data-name="Path 269" d="M207.063,250.117c.535.055,1.027.082,1.027.082l2.755-.1v-2.877a4.082,4.082,0,0,0-1.111-.732c-.48-.166-1.052-.676-.939-2.018a1.918,1.918,0,0,1,.023-.24,3.089,3.089,0,0,0,.025-.452A2.42,2.42,0,0,0,208.08,242a.362.362,0,0,0-.04-.036l-.448-2.088a.446.446,0,0,0-.09.013c-.158.234-.286.4-.286.4l-.33.724.631,2.736-.716.023s.326,5.636.248,6.084A.72.72,0,0,0,207.063,250.117Z" transform="translate(-173.885 -207.724)" opacity="0.1"/>
    <path id="Path_270" data-name="Path 270" d="M197.214,250.241l2.755-.1v-2.879a4.105,4.105,0,0,0-1.109-.732c-.507-.177-1.111-.732-.915-2.258a2.5,2.5,0,0,0-.732-2.237L197.17,242l-.448-2.088a.97.97,0,0,0-.709.406,1.781,1.781,0,0,1-.166.244.421.421,0,0,1-.553.164c-.29-.128-1.541-.657-1.82-.139a18.667,18.667,0,0,0-.333,3.6,2.355,2.355,0,0,1,.81,1.332c.192.882.511.9.511.9l.345,2.525s.314.549.08.852" transform="translate(-163.1 -207.748)" fill="#444053"/>
    <path id="Path_271" data-name="Path 271" d="M206,240.6l.469,1.406.9.078-.042-.036-.448-2.088a.97.97,0,0,0-.709.406A1.78,1.78,0,0,1,206,240.6Z" transform="translate(-173.253 -207.788)" fill="#444053"/>
    <path id="Path_272" data-name="Path 272" d="M173.87,230.027l.061.459,1.989.282s.162-.122.421-.288c-.21-.048-1.2-.263-1.717-.421-.191-.059-.318-.109-.322-.143s.013-.04.044-.065C174.051,229.962,173.87,230.027,173.87,230.027Z" transform="translate(-147.885 -199.805)" opacity="0.1"/>
    <path id="Path_273" data-name="Path 273" d="M160.764,230.621a12.806,12.806,0,0,0,3.651,1.987,9.663,9.663,0,0,1,2.736,1.263l.842-3.245-.516-.356a1.8,1.8,0,0,1-1.147.255c-.53-.126-1.118-.21-1.118-.21a8.641,8.641,0,0,0-1.429-.391c-.379-.032-.225-.524.154-.785a.824.824,0,0,1,.158-.088.488.488,0,0,0,.631.143,1.441,1.441,0,0,0,.37-.345h0a4.8,4.8,0,0,0,.421-.631s-1.176-.253-1.762-.434c-.192-.059-.318-.109-.322-.143-.017-.135,1.052-.56,1.052-.56s-.913-.442-1.284-.12c0,0,.24.179.046.356s-2.525,1.972-2.525,1.972S159.573,229.853,160.764,230.621Z" transform="translate(-137.111 -197.43)" fill="#444053"/>
    <path id="Path_274" data-name="Path 274" d="M172,232.868l1.248.179a.823.823,0,0,1,.158-.088.488.488,0,0,0,.631.143,1.441,1.441,0,0,0,.37-.345h0a4.936,4.936,0,0,0,.341-.532s-1.176-.253-1.762-.434Z" transform="translate(-146.409 -201.337)" opacity="0.1"/>
    <path id="Path_275" data-name="Path 275" d="M172.34,232.38l1.328.191a.488.488,0,0,0,.631.143,3.071,3.071,0,0,0,.791-.981s-1.176-.253-1.762-.434Z" transform="translate(-146.677 -200.95)" fill="#444053"/>
    <path id="Path_276" data-name="Path 276" d="M281.532,330l-2.212,1.673s1,.518,1.934,1.117c.814-.551,1.583-1.052,2.166-1.517A8.067,8.067,0,0,1,281.532,330Z" transform="translate(-231.142 -278.878)" opacity="0.1"/>
    <path id="Path_277" data-name="Path 277" d="M232.123,367.735a7.5,7.5,0,0,0,1.62-.387s.408-.088,1.014-.29c-.019-.21-.032-.45-.034-.722a14.745,14.745,0,0,0-.3-2.315l-2.241.406-.059,2.507A1.671,1.671,0,0,0,232.123,367.735Z" transform="translate(-193.839 -305.738)" opacity="0.1"/>
    <path id="Path_278" data-name="Path 278" d="M208.318,294.647c.45.667,1.684,3.5,1.684,3.5a12.069,12.069,0,0,0,.939,1.446,12.858,12.858,0,0,1,1.2,3.113c.372,1.109-.109.9-.057,1.473s2.159-.168,2.159-.168,4.3-.947,5.619-3.578,6.568-5.013,7.631-6.493-.3-.869-.248-1.671a2.268,2.268,0,0,0-.554-1.473,8.611,8.611,0,0,1-2.3-.949,13.844,13.844,0,0,0-1.9-1.364,10.591,10.591,0,0,1-1.684-.871,10.886,10.886,0,0,0-2.5-1.052c-.541-.128-1.071-.9-1.071-.9s-.335.044-.829-.436a8.281,8.281,0,0,0-2.57-.892c-3.542,2.61-5.99,2.246-5.99,2.246l-.057.492C205.9,289.522,207.868,293.979,208.318,294.647Z" transform="translate(-174.029 -242.82)" fill="#266dd3"/>
    <path id="Path_279" data-name="Path 279" d="M210.79,287.111s3.062,1.008,6.049-2.721c-3.544,2.6-5.992,2.233-5.992,2.233Z" transform="translate(-177.035 -242.867)" opacity="0.1"/>
    <path id="Path_280" data-name="Path 280" d="M235.83,305.588s4.112,5.937,4.367,6.154A62.9,62.9,0,0,0,235.83,305.588Z" transform="translate(-196.805 -259.603)" opacity="0.1"/>
    <path id="Path_281" data-name="Path 281" d="M226.8,303.43s2.847,4.42,2.791,5.017C229.591,308.447,226.842,304.2,226.8,303.43Z" transform="translate(-189.676 -257.9)" opacity="0.1"/>
    <path id="Path_282" data-name="Path 282" d="M217.925,309.2s.526,2.473-.265,3.875Z" transform="translate(-182.459 -262.456)" opacity="0.1"/>
    <path id="Path_283" data-name="Path 283" d="M212.694,309.88a11.5,11.5,0,0,1-.274,2.58Z" transform="translate(-178.322 -262.993)" opacity="0.1"/>
    <path id="Path_284" data-name="Path 284" d="M196.46,213.7l3.782,1.482-1.385.181Z" transform="translate(-155.114 -168.721)" opacity="0.1"/>
    <path id="Path_285" data-name="Path 285" d="M208.544,216.655c.189.126.347.326.572.356a.9.9,0,0,0,.465-.114,1.711,1.711,0,0,1,1.193-.162c.556.183.861.823,1.414,1.012a1.008,1.008,0,0,0,.53.029,1.027,1.027,0,0,0,.3-.122.962.962,0,0,0,.421-.6,1.237,1.237,0,0,0-.421-1.166,2.582,2.582,0,0,0-1.176-.535,11.647,11.647,0,0,0-3.4-.078.494.494,0,0,0-.265.069,1.58,1.58,0,0,0-.406.993C207.853,216.625,208.512,216.415,208.544,216.655Z" transform="translate(-174.643 -188.233)" opacity="0.1"/>
    <path id="Path_286" data-name="Path 286" d="M208.494,216.231c.189.124.345.326.572.356a.89.89,0,0,0,.463-.116,1.712,1.712,0,0,1,1.193-.162c.556.185.861.825,1.414,1.012a.989.989,0,0,0,.53.029.967.967,0,0,0,.3-.12.984.984,0,0,0,.434-.6,1.244,1.244,0,0,0-.431-1.168,2.59,2.59,0,0,0-1.176-.532,11.646,11.646,0,0,0-3.4-.08.5.5,0,0,0-.265.072,1.586,1.586,0,0,0-.406.993C207.8,216.21,208.462,215.987,208.494,216.231Z" transform="translate(-174.604 -187.897)" fill="#3f3d56"/>
    <path id="Path_287" data-name="Path 287" d="M281,220.057l.362,1.463.469-.284,2.551-1.538s1.932-.072,2.081-1.625-2.147-.015-2.269.1-.4.326-.4.326l-2.374,1.326Z" transform="translate(-232.469 -189.962)" fill="#efb7b9"/>
    <path id="Path_288" data-name="Path 288" d="M281,229.221l.362,1.463.469-.284a3.483,3.483,0,0,0-.421-1.41Z" transform="translate(-232.469 -199.126)" opacity="0.1"/>
    <path id="Path_289" data-name="Path 289" d="M221.18,248.835l.52,3.052,3.077-.638c-.074-.234-.985-3.182-.326-3.908.69-.756.421-2.887.421-2.887s-1.193-1.372-1.435-1.7-1.791-.593-1.791-.593a1.244,1.244,0,0,1-.112-.436,1.749,1.749,0,0,0-.118.326,1.229,1.229,0,0,0,.821,1.219c.053.025.107.048.166.072.093.038.2.074.305.107l.051.015a1.731,1.731,0,0,1,1.206.888,2.271,2.271,0,0,1,.45,1.6C224.318,246.882,221.18,248.835,221.18,248.835Z" transform="translate(-185.238 -209.177)" opacity="0.1"/>
    <path id="Path_290" data-name="Path 290" d="M222,238.682l.52,3.049,3.479-.724a6.269,6.269,0,0,0-.347-1.618,8.557,8.557,0,0,1-.194-2.292c1.473-1.587.7-2.877.7-2.877s4.329-.7,4.4-.842a12.8,12.8,0,0,1,1.517-.909,8.122,8.122,0,0,0,1.78-.631,1.9,1.9,0,0,1,.257-.234.681.681,0,0,1,.084-.055l.116,1h.053a1.425,1.425,0,0,0,.682-.269c.358-.274-.095-3.273-.442-3.378a.4.4,0,0,0-.2,0,2.26,2.26,0,0,0-.747.4l-.061.048-.021.019a14.735,14.735,0,0,0-2.351,1.122,16.162,16.162,0,0,1-3.439.8s-1.366.324-1.543.128-2.262-.516-2.437-.21-.659.25-.659.25c-.343-.4-.581-.242-.726-.015a1.59,1.59,0,0,0-.185.44,1.285,1.285,0,0,0,.987,1.29c.109.042.227.084.356.122a1.724,1.724,0,0,1,1.206.888,2.266,2.266,0,0,1,.452,1.6C225.144,236.729,222,238.682,222,238.682Z" transform="translate(-185.886 -199.047)" fill="#444053"/>
    <path id="Path_291" data-name="Path 291" d="M277.984,229a.324.324,0,0,1,.112.013c.347.105.8,3.106.44,3.38a1.41,1.41,0,0,1-.608.263h-.053l-.116-1a.676.676,0,0,0-.084.055v-.042a2.6,2.6,0,0,0-.495-2.22Z" transform="translate(-229.453 -199.132)" opacity="0.1"/>
    <path id="Path_292" data-name="Path 292" d="M277.93,231.563l.116,1a1.4,1.4,0,0,0,.743-.284c.358-.274-.095-3.273-.442-3.378-.274-.084-.756.257-.947.4A2.6,2.6,0,0,1,277.93,231.563Z" transform="translate(-229.626 -199.045)" fill="#444053"/>
    <path id="Path_293" data-name="Path 293" d="M224.157,242.76l.5-.467-1.3-1.263a1.589,1.589,0,0,0-.185.44A1.29,1.29,0,0,0,224.157,242.76Z" transform="translate(-186.809 -208.632)" fill="#444053"/>
    <path id="Path_294" data-name="Path 294" d="M208.485,219.859c.189.124.345.326.572.356a.89.89,0,0,0,.463-.116,1.712,1.712,0,0,1,1.193-.162c.556.185.861.825,1.414,1.012a.989.989,0,0,0,.53.029.953.953,0,0,0,.756-.985,1,1,0,0,1,0,.446.977.977,0,0,1-.434.6.948.948,0,0,1-.3.12.98.98,0,0,1-.528-.029c-.556-.187-.861-.827-1.416-1.012a1.724,1.724,0,0,0-1.193.162.89.89,0,0,1-.463.116c-.225-.029-.383-.231-.572-.356-.032-.244-.69-.021-.772-.314a.35.35,0,0,1,0-.135C207.866,219.815,208.453,219.63,208.485,219.859Z" transform="translate(-174.618 -191.705)" opacity="0.1"/>
    <path id="Path_295" data-name="Path 295" d="M219,253.6s-.276.774.076,1.035c0,0-.385-1.025-.608-1" transform="translate(-183.099 -218.557)" opacity="0.1"/>
    <path id="Path_296" data-name="Path 296" d="M298.851,217.76s-1.778,1.538-.492,1.787S298.851,217.76,298.851,217.76Z" transform="translate(-245.806 -190.26)" fill="#efb7b9"/>
    <g id="Group_64" data-name="Group 64" transform="translate(91.128 34.111)" opacity="0.1">
      <path id="Path_297" data-name="Path 297" d="M565.15,420.25H509.8v49.024c0,11.209-8.576,18.941-19.072,18.941a21.071,21.071,0,0,1-7.328-1.286,20.527,20.527,0,0,0,10.064,2.549c10.5,0,19.072-7.728,19.072-18.941V421.513H565.15Z" transform="translate(-483.4 -384.245)"/>
      <path id="Path_298" data-name="Path 298" d="M558.42,226.564h2.736V213.3h52.618V212.04H558.42Z" transform="translate(-532.025 -201.521)"/>
      <path id="Path_299" data-name="Path 299" d="M828.79,249.17v85.024c0,11.209-8.576,18.941-19.072,18.941a21.074,21.074,0,0,1-7.328-1.286,20.529,20.529,0,0,0,10.064,2.549c10.5,0,19.072-7.728,19.072-18.941V249.17Z" transform="translate(-735.257 -249.17)"/>
    </g>
    <path id="Path_300" data-name="Path 300" d="M627.894,127.928c1.357,2.805,3.578,6,6.089,4.777s4.386-6.387,3.028-9.2a5.1,5.1,0,1,0-9.117,4.42Z" transform="translate(-505.865 -113.215)" fill="#20222b"/>
    <path id="Path_301" data-name="Path 301" d="M650.934,181.2s.49-.082.3-.486a.758.758,0,0,0-.059-.1,1.3,1.3,0,0,1-.187-.522,1.893,1.893,0,0,1,.023-.65l-1.336-.088s.52.442.459.673a.132.132,0,0,1-.061.08.21.21,0,0,1-.088.038l-.1.029c-.351.124-.21.3-.21.3C649.722,181.048,650.934,181.2,650.934,181.2Z" transform="translate(-523.532 -159.933)" fill="#20222b"/>
    <path id="Path_302" data-name="Path 302" d="M651.68,182.63l.943.13a1.2,1.2,0,0,1-.027-.145c-.24-.011-.617-.042-.854-.065A.132.132,0,0,1,651.68,182.63Z" transform="translate(-525.137 -162.46)" fill="#444053"/>
    <path id="Path_303" data-name="Path 303" d="M650.934,184.279s.49-.082.3-.486a1.516,1.516,0,0,1-.579.023,1.282,1.282,0,0,1-.772-.566c-.351.124-.21.3-.21.3C649.722,184.128,650.934,184.279,650.934,184.279Z" transform="translate(-523.532 -163.013)" fill="#20222b"/>
    <path id="Path_304" data-name="Path 304" d="M650.934,184.279s.49-.082.3-.486a1.516,1.516,0,0,1-.579.023,1.282,1.282,0,0,1-.772-.566c-.351.124-.21.3-.21.3C649.722,184.128,650.934,184.279,650.934,184.279Z" transform="translate(-523.532 -163.013)" opacity="0.1"/>
    <path id="Path_305" data-name="Path 305" d="M652.37,123.722s1.494-.181,1.917.814a1.2,1.2,0,0,0-.537.032.763.763,0,0,1-.349.067A2,2,0,0,0,652.37,123.722Z" transform="translate(-525.682 -116.002)" fill="#fff" opacity="0.1"/>
    <path id="Path_306" data-name="Path 306" d="M657.839,213.155a.53.53,0,0,0,.084-.084,1.4,1.4,0,0,1,.453-.32,1.954,1.954,0,0,1,.421-.126,1.683,1.683,0,0,1,.21-.023l-.189-.9v-.013l-.082-.394a2.865,2.865,0,0,1-.189.33c-.1.147-.21.288-.337.29a.15.15,0,0,1-.095-.036.289.289,0,0,1-.059-.076c-.021-.034-.038-.063-.057-.091-.211-.3-.343-.114-.343-.114-.24.086-.339.373-.375.661a.41.41,0,0,1-.013.124,3.3,3.3,0,0,0,.021.612S657.507,213.445,657.839,213.155Z" transform="translate(-529.545 -185.151)" fill="#20222b"/>
    <path id="Path_307" data-name="Path 307" d="M661.558,215.013a1.113,1.113,0,0,1,.133-.067c-.046-.2-.1-.49-.143-.722v-.048a.143.143,0,0,0-.013-.069.15.15,0,0,1-.095-.036l.021.141v.057Z" transform="translate(-532.843 -187.346)" fill="#444053"/>
    <path id="Path_308" data-name="Path 308" d="M657.839,214.08a1.52,1.52,0,0,1-.177-.551,1.194,1.194,0,0,1,.04-.349c.01-.034.019-.067.032-.1a1.025,1.025,0,0,1,.265-.446c-.21-.3-.343-.114-.343-.114-.24.086-.339.373-.375.661a.408.408,0,0,1-.013.124,3.318,3.318,0,0,0,.021.612S657.507,214.371,657.839,214.08Z" transform="translate(-529.545 -186.077)" fill="#20222b"/>
    <path id="Path_309" data-name="Path 309" d="M657.839,214.08a1.52,1.52,0,0,1-.177-.551,1.194,1.194,0,0,1,.04-.349c.01-.034.019-.067.032-.1a1.025,1.025,0,0,1,.265-.446c-.21-.3-.343-.114-.343-.114-.24.086-.339.373-.375.661a.408.408,0,0,1-.013.124,3.318,3.318,0,0,0,.021.612S657.507,214.371,657.839,214.08Z" transform="translate(-529.545 -186.077)" opacity="0.1"/>
    <path id="Path_310" data-name="Path 310" d="M606.447,143.342a15.417,15.417,0,0,0,3.693,1.812,4.54,4.54,0,0,0,2.643.139,2.421,2.421,0,0,0,.9-.518,2.554,2.554,0,0,0,.452-.539c.89-1.391.873-3.837.168-5.954a6.546,6.546,0,0,0-2.385-3.468,5.095,5.095,0,1,0-5.47,8.528Z" transform="translate(-487.255 -123.999)" fill="#20222b"/>
    <path id="Path_311" data-name="Path 311" d="M606.447,143.342a15.417,15.417,0,0,0,3.693,1.812,4.54,4.54,0,0,0,2.643.139,2.421,2.421,0,0,0,.9-.518,2.554,2.554,0,0,0,.452-.539c.89-1.391.873-3.837.168-5.954a6.546,6.546,0,0,0-2.385-3.468,5.095,5.095,0,1,0-5.47,8.528Z" transform="translate(-487.255 -123.999)" opacity="0.1"/>
    <path id="Path_312" data-name="Path 312" d="M645.668,186.5c.335.467,1.444-.034,1.444-.034s.377-.324,0-.57a.9.9,0,0,0-.1-.059,1.175,1.175,0,0,1-.335-.238c-.034-.034-.067-.069-.1-.107a1.969,1.969,0,0,1-.236-.373,1.559,1.559,0,0,1-.082-.2l-1.187.631a2.689,2.689,0,0,1,.372.09c.17.055.339.135.37.244a.132.132,0,0,1,0,.1.249.249,0,0,1-.057.078,1.037,1.037,0,0,0-.069.078C645.447,186.423,645.668,186.5,645.668,186.5Z" transform="translate(-519.918 -164.331)" fill="#20222b"/>
    <path id="Path_313" data-name="Path 313" d="M648.58,188.16l.869-.383c-.034-.034-.067-.069-.1-.107-.21.114-.545.284-.762.389A.133.133,0,0,1,648.58,188.16Z" transform="translate(-522.689 -166.502)" fill="#444053"/>
    <path id="Path_314" data-name="Path 314" d="M647.553,190.144c.335.467,1.444-.034,1.444-.034s.377-.324,0-.57a1.455,1.455,0,0,1-.482.32,1.282,1.282,0,0,1-.951-.078C647.332,190.07,647.553,190.144,647.553,190.144Z" transform="translate(-521.803 -167.979)" fill="#20222b"/>
    <path id="Path_315" data-name="Path 315" d="M647.553,190.144c.335.467,1.444-.034,1.444-.034s.377-.324,0-.57a1.455,1.455,0,0,1-.482.32,1.282,1.282,0,0,1-.951-.078C647.332,190.07,647.553,190.144,647.553,190.144Z" transform="translate(-521.803 -167.979)" opacity="0.1"/>
    <path id="Path_316" data-name="Path 316" d="M618.28,137.161s1.181-.932,2.06-.305a1.212,1.212,0,0,0-.44.307.764.764,0,0,1-.265.24A2.006,2.006,0,0,0,618.28,137.161Z" transform="translate(-498.766 -126.211)" fill="#fff" opacity="0.1"/>
    <g id="Group_65" data-name="Group 65" transform="translate(130.447 19.457)" opacity="0.1">
      <path id="Path_317" data-name="Path 317" d="M676.823,180.851l-.274-1.311a2.527,2.527,0,0,1-.189.33,2.368,2.368,0,0,0,.253,1.006A1.468,1.468,0,0,1,676.823,180.851Z" transform="translate(-675.07 -179.54)"/>
      <path id="Path_318" data-name="Path 318" d="M670.815,181.407a.637.637,0,0,0,.084-.084,1.177,1.177,0,0,1,.32-.255,1.117,1.117,0,0,1,.133-.067,1.8,1.8,0,0,1,.421-.124,1.467,1.467,0,0,1,.21-.025l-.274-1.311a2.522,2.522,0,0,1-.189.33c-.1.147-.221.29-.337.293a.154.154,0,0,1-.093-.038.26.26,0,0,1-.065-.067c-.019-.034-.038-.063-.055-.091-.211-.3-.345-.112-.345-.112-.541.2-.366,1.4-.366,1.4S670.476,181.7,670.815,181.407Z" transform="translate(-670.232 -179.54)"/>
      <path id="Path_319" data-name="Path 319" d="M674.446,183.247a1.117,1.117,0,0,1,.133-.067c-.055-.229-.122-.6-.166-.842a.153.153,0,0,1-.093-.038Z" transform="translate(-673.46 -181.719)"/>
      <path id="Path_320" data-name="Path 320" d="M670.838,182.336a1.545,1.545,0,0,1-.177-.553,1.293,1.293,0,0,1,.339-.894c-.21-.3-.345-.112-.345-.112-.541.2-.366,1.4-.366,1.4S670.5,182.624,670.838,182.336Z" transform="translate(-670.256 -180.469)"/>
      <path id="Path_321" data-name="Path 321" d="M670.838,182.336a1.545,1.545,0,0,1-.177-.553,1.293,1.293,0,0,1,.339-.894c-.21-.3-.345-.112-.345-.112-.541.2-.366,1.4-.366,1.4S670.5,182.624,670.838,182.336Z" transform="translate(-670.256 -180.469)" opacity="0.1"/>
    </g>
    <path id="Path_322" data-name="Path 322" d="M670.01,180.175a.525.525,0,0,0,.084-.084,1.174,1.174,0,0,1,.32-.253,1.118,1.118,0,0,1,.132-.067,1.807,1.807,0,0,1,.421-.124,1.472,1.472,0,0,1,.21-.025l-.274-1.311a2.686,2.686,0,0,1-.189.33c-.1.147-.21.29-.337.29a.139.139,0,0,1-.093-.036.293.293,0,0,1-.061-.076c-.019-.034-.038-.063-.055-.09-.21-.3-.345-.114-.345-.114-.541.2-.366,1.4-.366,1.4S669.672,180.465,670.01,180.175Z" transform="translate(-539.153 -159.112)" fill="#20222b"/>
    <path id="Path_323" data-name="Path 323" d="M673.626,182.025a1.127,1.127,0,0,1,.133-.067c-.055-.229-.122-.6-.166-.842a.139.139,0,0,1-.093-.036Z" transform="translate(-542.365 -161.299)" fill="#444053"/>
    <path id="Path_324" data-name="Path 324" d="M670.058,181.1a1.517,1.517,0,0,1-.177-.551,1.292,1.292,0,0,1,.349-.894c-.211-.3-.345-.114-.345-.114-.541.2-.366,1.4-.366,1.4S669.719,181.391,670.058,181.1Z" transform="translate(-539.2 -160.038)" fill="#20222b"/>
    <path id="Path_325" data-name="Path 325" d="M670.058,181.1a1.517,1.517,0,0,1-.177-.551,1.292,1.292,0,0,1,.349-.894c-.211-.3-.345-.114-.345-.114-.541.2-.366,1.4-.366,1.4S669.719,181.391,670.058,181.1Z" transform="translate(-539.2 -160.038)" opacity="0.1"/>
    <g id="Group_66" data-name="Group 66" transform="translate(129.227 16.895)" opacity="0.1">
      <path id="Path_326" data-name="Path 326" d="M666.368,167.713a2.4,2.4,0,0,0,.972.36,1.762,1.762,0,0,1,.1-.189l-1.237-.514A2.526,2.526,0,0,1,666.368,167.713Z" transform="translate(-665.828 -167.37)"/>
      <path id="Path_327" data-name="Path 327" d="M665.407,169.545s.49.082.444-.362a.685.685,0,0,0-.023-.118,1.161,1.161,0,0,1-.029-.406,1.109,1.109,0,0,1,.021-.147,2.023,2.023,0,0,1,.232-.608l-1.238-.513a2.511,2.511,0,0,1,.173.339c.067.164.114.347.051.442a.146.146,0,0,1-.084.057.224.224,0,0,1-.095,0h-.107c-.37,0-.286.21-.286.21C664.311,169.013,665.407,169.545,665.407,169.545Z" transform="translate(-664.446 -167.386)"/>
      <path id="Path_328" data-name="Path 328" d="M666.8,171.153l.842.421a1.131,1.131,0,0,1,.021-.147c-.223-.086-.568-.24-.787-.337A.145.145,0,0,1,666.8,171.153Z" transform="translate(-666.302 -170.307)"/>
      <path id="Path_329" data-name="Path 329" d="M665.395,172.711s.49.082.444-.362a1.515,1.515,0,0,1-.556-.164,1.3,1.3,0,0,1-.549-.785c-.37,0-.286.21-.286.21C664.3,172.179,665.395,172.711,665.395,172.711Z" transform="translate(-664.434 -170.552)"/>
      <path id="Path_330" data-name="Path 330" d="M665.395,172.711s.49.082.444-.362a1.515,1.515,0,0,1-.556-.164,1.3,1.3,0,0,1-.549-.785c-.37,0-.286.21-.286.21C664.3,172.179,665.395,172.711,665.395,172.711Z" transform="translate(-664.434 -170.552)" opacity="0.1"/>
    </g>
    <path id="Path_331" data-name="Path 331" d="M664.967,168.907s.49.082.444-.36a.64.64,0,0,0-.023-.118,1.179,1.179,0,0,1-.029-.408,1.11,1.11,0,0,1,.021-.145,1.715,1.715,0,0,1,.135-.421,1.783,1.783,0,0,1,.1-.189l-1.237-.516a2.524,2.524,0,0,1,.168.343c.067.166.114.347.051.444a.152.152,0,0,1-.084.055.258.258,0,0,1-.095,0h-.107c-.37,0-.286.21-.286.21C663.875,168.377,664.967,168.907,664.967,168.907Z" transform="translate(-534.87 -149.985)" fill="#20222b"/>
    <path id="Path_332" data-name="Path 332" d="M666.39,170.541l.842.421a1.121,1.121,0,0,1,.021-.145c-.223-.086-.568-.24-.787-.337a.151.151,0,0,1-.076.061Z" transform="translate(-536.751 -152.93)" fill="#444053"/>
    <path id="Path_333" data-name="Path 333" d="M664.967,172.089s.49.082.444-.36a1.565,1.565,0,0,1-.556-.166,1.293,1.293,0,0,1-.549-.783c-.37,0-.286.21-.286.21C663.875,171.559,664.967,172.089,664.967,172.089Z" transform="translate(-534.87 -153.167)" fill="#20222b"/>
    <path id="Path_334" data-name="Path 334" d="M664.967,172.089s.49.082.444-.36a1.565,1.565,0,0,1-.556-.166,1.293,1.293,0,0,1-.549-.783c-.37,0-.286.21-.286.21C663.875,171.559,664.967,172.089,664.967,172.089Z" transform="translate(-534.87 -153.167)" opacity="0.1"/>
    <path id="Path_335" data-name="Path 335" d="M644.527,197.062a2.611,2.611,0,0,1,.191-.328c.1-.147.225-.288.339-.288a.133.133,0,0,1,.095.038.271.271,0,0,1,.059.074c.019.036.038.065.055.093.211.307.345.116.345.116.543-.189.379-1.4.379-1.4s-.21-.452-.547-.166a.769.769,0,0,0-.086.082,1.346,1.346,0,0,1-.455.318,1.9,1.9,0,0,1-.421.12,1.344,1.344,0,0,1-.211.023Z" transform="translate(-519.286 -172.376)" fill="#20222b"/>
    <path id="Path_336" data-name="Path 336" d="M647.416,198.057a.132.132,0,0,1,.095.038l-.118-.945a1.112,1.112,0,0,1-.133.065C647.315,197.447,647.378,197.819,647.416,198.057Z" transform="translate(-521.647 -173.987)" fill="#444053"/>
    <path id="Path_337" data-name="Path 337" d="M649,196.65c.21.307.345.116.345.116.543-.189.379-1.4.379-1.4s-.21-.452-.547-.166a1.472,1.472,0,0,1,.168.553A1.275,1.275,0,0,1,649,196.65Z" transform="translate(-523.021 -172.376)" fill="#20222b"/>
    <path id="Path_338" data-name="Path 338" d="M649,196.65c.21.307.345.116.345.116.543-.189.379-1.4.379-1.4s-.21-.452-.547-.166a1.472,1.472,0,0,1,.168.553A1.275,1.275,0,0,1,649,196.65Z" transform="translate(-523.021 -172.376)" opacity="0.1"/>
    <path id="Path_339" data-name="Path 339" d="M636.349,194.3a4.114,4.114,0,0,0,.631-2.1c.1-.147.225-.288.339-.288a.132.132,0,0,1,.095.038.272.272,0,0,1,.059.074c.019.036.038.065.055.093.21.307.345.116.345.116.543-.189.379-1.4.379-1.4s-.211-.452-.547-.166a.775.775,0,0,0-.086.082,1.345,1.345,0,0,1-.455.318,1.892,1.892,0,0,1-.421.12,2.832,2.832,0,0,0-.389-.585,4.8,4.8,0,0,0-1.873-1.235A9.875,9.875,0,0,0,636.349,194.3Z" transform="translate(-511.557 -167.837)" opacity="0.1"/>
    <path id="Path_340" data-name="Path 340" d="M657.39,168.113a3.653,3.653,0,0,0,.453-.1,3.958,3.958,0,0,0,.4-.139l.086-.036c.112-.048.225-.1.339-.16s.171-.088.257-.137a9.548,9.548,0,0,0,3.851-4.668,6.126,6.126,0,0,0,.377-1.6,4.306,4.306,0,0,0-.013-.873,6.166,6.166,0,0,0-.783-2.359c-.046-.078-.09-.152-.139-.223a5.028,5.028,0,0,0-4.7-2.408,5.121,5.121,0,0,0,1.808,2.711c.067.166.114.347.05.444a.151.151,0,0,1-.084.055.259.259,0,0,1-.095,0h-.107c-.37,0-.286.21-.286.21-.145.558.947,1.09.947,1.09s.49.082.444-.36a.645.645,0,0,0-.023-.118,1.173,1.173,0,0,1-.03-.408,1.1,1.1,0,0,1,.021-.145,1.718,1.718,0,0,1,.135-.421,2.705,2.705,0,0,0,.7,0,3.735,3.735,0,0,0,.96-.261c-.044.069-.084.139-.122.21a4.128,4.128,0,0,0-.631,2.1c-.1.147-.211.29-.337.29a.138.138,0,0,1-.093-.036.293.293,0,0,1-.061-.076c-.019-.034-.038-.063-.055-.09-.211-.3-.345-.114-.345-.114-.541.2-.366,1.4-.366,1.4s.211.45.549.16a.527.527,0,0,0,.084-.084,1.178,1.178,0,0,1,.32-.253,1.129,1.129,0,0,1,.133-.067,1.806,1.806,0,0,1,.421-.124,2.679,2.679,0,0,0,.394.583l.084.09-.03.027a16.635,16.635,0,0,0-1.867,1.987,7.478,7.478,0,0,0-.48.669q-.156.238-.29.474a4.139,4.139,0,0,0-.619,2.1c-.1.147-.211.288-.337.29a.15.15,0,0,1-.095-.036.292.292,0,0,1-.059-.076c-.021-.034-.038-.063-.057-.09-.211-.3-.343-.114-.343-.114A.794.794,0,0,0,657.39,168.113Z" transform="translate(-529.645 -141.008)" opacity="0.1"/>
    <g id="Group_67" data-name="Group 67" transform="translate(122.745 14.292)" opacity="0.1">
      <path id="Path_341" data-name="Path 341" d="M666.222,161.367a.757.757,0,0,0,.354.048,1.226,1.226,0,0,1,.518.143c-.08-1.078-1.553-1.389-1.553-1.389A2,2,0,0,1,666.222,161.367Z" transform="translate(-658.825 -159.082)"/>
      <path id="Path_342" data-name="Path 342" d="M633.681,161.208c.027.21.057.44.093.663a4.54,4.54,0,0,0,2.643.139c.17.055.339.135.37.244a.133.133,0,0,1,0,.1.25.25,0,0,1-.057.078q-.037.037-.069.078c-.236.288-.015.362-.015.362.335.467,1.444-.034,1.444-.034s.377-.324,0-.57a.885.885,0,0,0-.1-.059,1.173,1.173,0,0,1-.335-.238c-.034-.034-.067-.069-.1-.107a1.961,1.961,0,0,1-.236-.373,2.56,2.56,0,0,0,.452-.539c.89-1.391.873-3.837.168-5.954A5.394,5.394,0,0,0,633.681,161.208Z" transform="translate(-633.634 -155)"/>
      <path id="Path_343" data-name="Path 343" d="M645.352,212.33a2.4,2.4,0,0,0,.97.364,1.535,1.535,0,0,1,.1-.189L645.18,212A2.9,2.9,0,0,1,645.352,212.33Z" transform="translate(-642.75 -200.004)"/>
      <path id="Path_344" data-name="Path 344" d="M644.391,214.145s.493.084.444-.36a.614.614,0,0,0-.021-.118,1.182,1.182,0,0,1-.029-.408,1.039,1.039,0,0,1,.019-.145,1.9,1.9,0,0,1,.135-.421,1.536,1.536,0,0,1,.1-.189l-1.24-.5a2.926,2.926,0,0,1,.168.341c.065.166.112.349.048.444a.138.138,0,0,1-.082.057.278.278,0,0,1-.1,0,.958.958,0,0,0-.105,0c-.373,0-.288.21-.288.21C643.3,213.614,644.391,214.145,644.391,214.145Z" transform="translate(-641.367 -200.004)"/>
      <path id="Path_345" data-name="Path 345" d="M645.82,215.771l.842.421a.552.552,0,0,1,.019-.145c-.221-.086-.568-.24-.787-.337A.141.141,0,0,1,645.82,215.771Z" transform="translate(-643.255 -202.933)"/>
      <path id="Path_346" data-name="Path 346" d="M644.389,217.279s.49.082.444-.362a1.5,1.5,0,0,1-.556-.164,1.283,1.283,0,0,1-.549-.783c-.373,0-.288.21-.288.21C643.295,216.749,644.389,217.279,644.389,217.279Z" transform="translate(-641.366 -203.138)"/>
      <path id="Path_347" data-name="Path 347" d="M644.389,217.279s.49.082.444-.362a1.5,1.5,0,0,1-.556-.164,1.283,1.283,0,0,1-.549-.783c-.373,0-.288.21-.288.21C643.295,216.749,644.389,217.279,644.389,217.279Z" transform="translate(-641.366 -203.138)" opacity="0.1"/>
      <path id="Path_348" data-name="Path 348" d="M666.222,161.367a.757.757,0,0,0,.354.048,1.226,1.226,0,0,1,.518.143c-.08-1.078-1.553-1.389-1.553-1.389A2,2,0,0,1,666.222,161.367Z" transform="translate(-658.825 -159.082)" opacity="0.1"/>
    </g>
    <path id="Path_349" data-name="Path 349" d="M635.119,161.858c.381,3.094,1.448,6.827,4.224,6.484s6.213-4.63,5.832-7.726a5.1,5.1,0,1,0-10.056,1.242Z" transform="translate(-512.024 -141.185)" fill="#20222b"/>
    <path id="Path_350" data-name="Path 350" d="M645.808,214.915s.49.084.444-.36a.94.94,0,0,0-.021-.118,1.133,1.133,0,0,1-.032-.408.839.839,0,0,1,.021-.145,1.894,1.894,0,0,1,.234-.608l-1.237-.516s.349.587.211.787a.145.145,0,0,1-.084.057.325.325,0,0,1-.095,0h-.105c-.373,0-.288.21-.288.21C644.715,214.387,645.808,214.915,645.808,214.915Z" transform="translate(-519.738 -186.312)" fill="#20222b"/>
    <path id="Path_351" data-name="Path 351" d="M647.25,216.551l.842.421a.832.832,0,0,1,.021-.145c-.223-.086-.568-.24-.787-.337A.145.145,0,0,1,647.25,216.551Z" transform="translate(-521.639 -189.257)" fill="#444053"/>
    <path id="Path_352" data-name="Path 352" d="M645.827,218.089s.49.084.444-.36a1.472,1.472,0,0,1-.556-.166,1.276,1.276,0,0,1-.547-.783c-.372,0-.288.21-.288.21C644.735,217.561,645.827,218.089,645.827,218.089Z" transform="translate(-519.758 -189.486)" fill="#20222b"/>
    <path id="Path_353" data-name="Path 353" d="M645.827,218.089s.49.084.444-.36a1.472,1.472,0,0,1-.556-.166,1.276,1.276,0,0,1-.547-.783c-.372,0-.288.21-.288.21C644.735,217.561,645.827,218.089,645.827,218.089Z" transform="translate(-519.758 -189.486)" opacity="0.1"/>
    <path id="Path_354" data-name="Path 354" d="M667,161s1.473.311,1.553,1.389a1.208,1.208,0,0,0-.52-.141.765.765,0,0,1-.351-.05A2.015,2.015,0,0,0,667,161Z" transform="translate(-537.233 -145.445)" fill="#fff" opacity="0.1"/>
    <path id="Path_355" data-name="Path 355" d="M644.323,218.1a.9.9,0,0,1,.8,1.1c-.185.621-.947.817-1.444,1.231a2.53,2.53,0,0,0-.8,1.724A4.226,4.226,0,0,0,644.1,225.5c.446.44.985.777,1.425,1.223a7.28,7.28,0,0,1,1.231,1.877,4.392,4.392,0,0,1,.545,1.578,3.72,3.72,0,0,1-.9,2.445,16.737,16.737,0,0,0-1.583,2.142,4.5,4.5,0,0,0-.259,3.529.457.457,0,0,0,.15.236.166.166,0,0,0,.244-.053" transform="translate(-518.178 -190.528)" fill="none" stroke="#444053" stroke-miterlimit="10" stroke-width="1"/>
    <path id="Path_356" data-name="Path 356" d="M646.054,217.36a.421.421,0,0,1,.019.535.65.65,0,0,1-.514.238c-.238,0-.5-.074-.7.065a.6.6,0,0,0-.211.457,2.331,2.331,0,0,1-.052.516,1.025,1.025,0,0,1-.227.37,1.138,1.138,0,0,1-.421.307c-.351.137-.758.013-1.118.126a1.569,1.569,0,0,0-.871,1.136,3.273,3.273,0,0,0-.1,1.764,6.091,6.091,0,0,0,.478,1.082,2.445,2.445,0,0,1,.311,1.128,1.035,1.035,0,0,1-.593.947" transform="translate(-517.322 -189.944)" fill="none" stroke="#444053" stroke-miterlimit="10" stroke-width="1"/>
    <path id="Path_357" data-name="Path 357" d="M556.627,277.11c-.566.753-.781,1.957-1.707,2.14a2.122,2.122,0,0,1-1.379-.387,9.831,9.831,0,0,0-3.157-1.3,3.411,3.411,0,0,0-3.136.945c-.507.593-.716,1.389-1.162,2.029a4.163,4.163,0,0,1-2.357,1.549,9.645,9.645,0,0,1-2.858.244,1.553,1.553,0,0,1-1.008-.274,2.455,2.455,0,0,1-.421-.642,2.808,2.808,0,0,0-2.25-1.244,5.913,5.913,0,0,0-2.593.549,2.764,2.764,0,0,1-1.292.326,2.369,2.369,0,0,1-1.486-1.063,21.053,21.053,0,0,1-2.553-4.154" transform="translate(-428.489 -236.109)" fill="none" stroke="#444053" stroke-miterlimit="10" stroke-width="1"/>
    <path id="Path_358" data-name="Path 358" d="M497.872,342.021c.225-.819.372-1.538.372-1.538a3.22,3.22,0,0,1,.421-1.559l.011-.225h0l.063-1.661a5.585,5.585,0,0,0-.385-.886,6.479,6.479,0,0,1,.095-2.435,10.751,10.751,0,0,0,1.008-4.373c-.2-1.72,2.568-7.509,2.568-7.509a7.446,7.446,0,0,0-.175-1.684,1.43,1.43,0,0,1-.019-.354v-.029a13.146,13.146,0,0,1,1.052-3.207l.036-4.032a11.853,11.853,0,0,1,.575-5.554c.366-1.1.608-1.982.766-2.664.019-.078.036-.152.051-.223-1.894-.366-3.35-.665-3.35-.665s1.286-4.594,2.067-5.377a10.661,10.661,0,0,0,1.473-3.313s.516-3.26-.078-4.241a6.324,6.324,0,0,1-.61-2.645s-1.4-1.1-1.559-1.57a7.687,7.687,0,0,1-.4-2.077c.021-.551.21-1.038.17-1.328s.474-1.376.253-1.907a1.474,1.474,0,0,1-.076-.507v-.015a7.048,7.048,0,0,1,.179-1.355,3.839,3.839,0,0,1,1.452-.705l.036-.124.093-.322c.051-.032.1-.057.145-.08v-.118l.032-.471-.185-1.067c-.37-1.856,2.1-2.037,2.1-2.037a1.292,1.292,0,0,1,.72-.583c.5-.156-.025,2.772-.263,2.946A11.427,11.427,0,0,0,505.484,278h0l-.046.074a1.028,1.028,0,0,1,.109.122l-.118.631-.019.1a2.658,2.658,0,0,1,.366.684,1.426,1.426,0,0,0-.4,1.031,3.254,3.254,0,0,1-.2,1.263c.027-.027.358-.358.669-.263s1.185.394,1.185.394.654.143.589.284.421.8.421.8l1.844-1.583c.019-.051.04-.1.057-.152a4.145,4.145,0,0,0,.183-.728,4.048,4.048,0,0,1-.56-.21,1.216,1.216,0,0,1-.478-.333,1.893,1.893,0,0,1-.255-.775,10.922,10.922,0,0,0-.6-1.49,4.775,4.775,0,0,1-.253-2.645,1.739,1.739,0,0,1,.3-.76c.3-.387.842-.528,1.227-.829s.659-.779,1.111-1a2.122,2.122,0,0,1,1.349-.063,7.22,7.22,0,0,1,2.475,1.008,1.277,1.277,0,0,0,.827.307,1.113,1.113,0,0,0,.631-.421v-.023l.019-.023a3.125,3.125,0,0,1,.225,1.336.888.888,0,0,1-.017.21v.074a.3.3,0,0,0,0,.061h0a.373.373,0,0,0,0,.095.681.681,0,0,0,.156.246,1.264,1.264,0,0,1,.137.21.248.248,0,0,0-.021-.074,1.052,1.052,0,0,1,.162.566.564.564,0,0,1-.147.394,1.827,1.827,0,0,1-.3.221,3.367,3.367,0,0,1-1.751,3.449c-.021.048-.044.1-.065.149a4.233,4.233,0,0,0-.4,1.919.412.412,0,0,0,.017.141.927.927,0,0,1,.059.076h0s2.921.141,3.635-.457S519.3,283.6,519.3,283.6s1.042.242,1.263.048,1.44.025,1.44.025a2.637,2.637,0,0,1,1.852-.6,5.412,5.412,0,0,1,1.37-.694h.034a1.512,1.512,0,0,1,.661-.059,13.481,13.481,0,0,0,1.928-1.753c.444-.621,2.526-2.913,2.542-2.921l.01-.116.036-.343a1.287,1.287,0,0,0,.179.023c.013-.034.027-.074.046-.118a6.264,6.264,0,0,1,.461-.958s.017-.436-.107-.549a7.375,7.375,0,0,1,.12-1.7s1.41-2.978,2.486-.673c0,0,2.136,1.549.229,3.182,0,0-.747.326-.863.6-.076.181-.345.684-.524,1.016-.032.055-.059.105-.082.149l.021.019-.038.282-.017.109c.341.21.568.421.505.562a3.233,3.233,0,0,0-.24.775s-2.669,3.089-3.052,4.441c0,0-6.985,3.788-9.241,4l.312,2.044s.072,1.223.025,1.656.177,2.418.177,2.418a16.07,16.07,0,0,0,.591,3.332,5.569,5.569,0,0,1,.187,2.155,14.543,14.543,0,0,0,.356,2.481,6.349,6.349,0,0,1,0,2.469s1.038,2.654-1.618.779c0,0-1.336-.135-2.875-.246v.156c0,.2,0,.421-.017.631-.036,1.5-.107,3.557-.234,5.112-.227,2.749-1.275,8.166-1.275,8.166l-.105,2.736a3.568,3.568,0,0,1,.048.785,5.085,5.085,0,0,1-.842,2.713l-.322,1.808a7.159,7.159,0,0,0-.577,1.894.9.9,0,0,0,.015.175,1.275,1.275,0,0,1,.013.282,15.449,15.449,0,0,1-.579,2.795s-.107,2-.421,2.1c-.259.091.3,1.166.465,1.473.005-.019.009-.038.013-.057l.036.063a1.416,1.416,0,0,1,.074.509.728.728,0,0,1-.36.69c-.583.324-.9.6-.421.737.183.053.379.072.524.133,0-.023.019-.046.027-.067a.32.32,0,0,1,.183.36,1.474,1.474,0,0,1-.21.671,7.183,7.183,0,0,1-.867,1.446l-.229-.034a1.121,1.121,0,0,0,.124.253.974.974,0,0,0,.326.314,1.052,1.052,0,0,0,.4.156,1.156,1.156,0,0,1,.842.446.883.883,0,0,1-.158,1.37l-2.17.657s-3.7.337-3.477-.482.375-1.538.375-1.538a3.271,3.271,0,0,1,.366-1.44,1.512,1.512,0,0,1,.139-.21l-.13-.021a6.743,6.743,0,0,0-.545-2.2c-.08-.084-.1-.147-.074-.194-.034-.1.061-.156.183-.183a.315.315,0,0,0,.023.072,1.907,1.907,0,0,1,.36-.025s.158-.951-.211-1.315a.369.369,0,0,1-.065-.286,1.564,1.564,0,0,1,.057-.389l.013.023a14.1,14.1,0,0,1,.945-2.214,2.731,2.731,0,0,0-.162-1.225c-.227-.356.211-4.725.211-4.725a14.955,14.955,0,0,1,.3-3.1,3.539,3.539,0,0,0-.248-2.157v-.063a.046.046,0,0,0,0-.015l.048-.332v.021c.082-.558.236-1.568.337-2.035.145-.661.12-3.856.12-3.856l-.488-1.385-1.052,2.315-1.132,3.079a2.675,2.675,0,0,0-.568,1.311v.1a1.73,1.73,0,0,1,0,.21,1.861,1.861,0,0,1-.354,1.1,4.833,4.833,0,0,1-.76,1.829,1.661,1.661,0,0,0-.461,1.084,19.38,19.38,0,0,1-.842,2.494,3.822,3.822,0,0,0-.267,1.45h0v.078s-.1.764-.122,1.41v.213a2.34,2.34,0,0,0,.042.524v-.078a5.447,5.447,0,0,1,.1,1.343,3.433,3.433,0,0,1-.657,2.2c-.842.9-1.349.762-1.349.762s.345,1.174.815,1.425a.209.209,0,0,1,.05.034.116.116,0,0,1,.015-.067.566.566,0,0,1,.124.438,3.089,3.089,0,0,1-.661,1.7.949.949,0,0,1-.421.221l.074.051c.059.034.112.061.162.084a.771.771,0,0,0,.242.072,1.143,1.143,0,0,1,.842.446.881.881,0,0,1-.156,1.37l-2.172.657S497.645,342.84,497.872,342.021Z" transform="translate(-403.691 -233.356)" fill="url(#linear-gradient-2)"/>
    <path id="Path_359" data-name="Path 359" d="M551.867,597.025l2.1-.659a.907.907,0,0,0,.154-1.372,1.1,1.1,0,0,0-.8-.444,1,1,0,0,1-.391-.156.937.937,0,0,1-.316-.314,1.531,1.531,0,0,1-.21-.81s-2.252-.753-2.9-.112a1.717,1.717,0,0,0-.29.393,3.368,3.368,0,0,0-.347,1.456s-.143.718-.362,1.538S551.867,597.025,551.867,597.025Z" transform="translate(-443.667 -486.449)" fill="#693d0c"/>
    <path id="Path_360" data-name="Path 360" d="M503.805,590.354l2.1-.659a.9.9,0,0,0,.154-1.37,1.09,1.09,0,0,0-.806-.444.826.826,0,0,1-.234-.074,1.054,1.054,0,0,1-.156-.084,1.315,1.315,0,0,1-.535-1.113s-2.25-.753-2.9-.112a1.662,1.662,0,0,0-.229.288,3.29,3.29,0,0,0-.408,1.562s-.145.72-.364,1.538S503.805,590.354,503.805,590.354Z" transform="translate(-405.714 -481.19)" fill="#693d0c"/>
    <path id="Path_361" data-name="Path 361" d="M552.2,593.157a1.72,1.72,0,0,0-.29.394h0l3.4.526a1.53,1.53,0,0,1-.21-.81S552.849,592.515,552.2,593.157Z" transform="translate(-446.364 -486.447)" opacity="0.1"/>
    <path id="Path_362" data-name="Path 362" d="M504.085,586.776l-.025.631c.5.9,3.071.8,3.832.394a1.055,1.055,0,0,1-.156-.084,1.3,1.3,0,0,1-.532-1.107s-2.25-.753-2.9-.112A1.664,1.664,0,0,0,504.085,586.776Z" transform="translate(-408.584 -481.19)" opacity="0.1"/>
    <path id="Path_363" data-name="Path 363" d="M502.384,449.169a5.608,5.608,0,0,1,.372.886l-.088,2.29c.543.979,3.578.777,4,.269s.913-1.852.459-2.1-.787-1.425-.787-1.425.488.135,1.307-.762.665-2.965.539-3.464a10.254,10.254,0,0,1,.084-2.145,4.292,4.292,0,0,1,.261-1.528,19.057,19.057,0,0,0,.823-2.5,1.708,1.708,0,0,1,.448-1.086,4.95,4.95,0,0,0,.737-1.829,1.894,1.894,0,0,0,.339-1.235,2.526,2.526,0,0,1,.551-1.488l1.1-3.094,1.019-2.315.461,1.4s.021,3.195-.12,3.858-.383,2.424-.383,2.424a3.577,3.577,0,0,1,.236,2.157,14.789,14.789,0,0,0-.293,3.094,32.925,32.925,0,0,0-.21,4.725,2.971,2.971,0,0,1,.156,1.225s-1.288,2.507-.924,2.869.21,1.315.21,1.315-.81-.032-.476.33a7.01,7.01,0,0,1,.541,2.187l3.489.541a7.321,7.321,0,0,0,.842-1.448c.505-1.052-.048-.962-.511-1.094s-.156-.421.408-.739.276-1.122.276-1.122-.787-1.454-.492-1.56.4-2.1.4-2.1a12.984,12.984,0,0,0,.549-3,5.824,5.824,0,0,1,.547-2.157l.274-1.818a5.019,5.019,0,0,0,.77-3.424l.109-2.812s1.021-5.419,1.244-8.17c.141-1.759.21-4.169.246-5.672.019-.842.025-1.4.025-1.4l-12.474-1.787a10.223,10.223,0,0,1-.3,1.852c-.154.684-.389,1.566-.745,2.666a12.215,12.215,0,0,0-.562,5.554l-.04,4.032s-1.206,2.654-1.01,3.59a7.651,7.651,0,0,1,.168,1.684s-2.692,5.79-2.5,7.509a11.059,11.059,0,0,1-.981,4.375A6.723,6.723,0,0,0,502.384,449.169Z" transform="translate(-407.185 -346.353)" fill="#666"/>
    <path id="Path_364" data-name="Path 364" d="M525.328,502.724l-3.788-.654S523.611,504.356,525.328,502.724Z" transform="translate(-422.386 -414.735)" opacity="0.05"/>
    <path id="Path_365" data-name="Path 365" d="M523.835,484.47s-.183,1.343.631,1.882C524.458,486.352,522.989,486.055,523.835,484.47Z" transform="translate(-423.991 -400.839)" opacity="0.1"/>
    <path id="Path_366" data-name="Path 366" d="M526.71,464.12s3.087,2.746,4.253,2.574S526.71,464.12,526.71,464.12Z" transform="translate(-426.468 -384.772)" opacity="0.1"/>
    <path id="Path_367" data-name="Path 367" d="M561.77,511.89s2.4.644,2.433,1.618S561.77,511.89,561.77,511.89Z" transform="translate(-454.149 -422.488)" opacity="0.1"/>
    <path id="Path_368" data-name="Path 368" d="M554.665,569.24s3.395.768,2.408,1.166a16.5,16.5,0,0,1-2.589.678S553.379,571.107,554.665,569.24Z" transform="translate(-448.048 -467.769)" opacity="0.05"/>
    <g id="Group_68" data-name="Group 68" transform="translate(95.098 70.804)" opacity="0.05">
      <path id="Path_369" data-name="Path 369" d="M569.262,576.374a.673.673,0,0,0,.33-.484l.034.063s.288.793-.276,1.12l-.183.112c-.1-.023-.21-.042-.313-.072C568.391,576.978,568.708,576.7,569.262,576.374Z" transform="translate(-554.664 -543.823)"/>
      <path id="Path_370" data-name="Path 370" d="M550.488,574.038c-.09-.091-.078-.314-.011-.6a1.61,1.61,0,0,1,.162.842A.683.683,0,0,0,550.488,574.038Z" transform="translate(-540.289 -541.888)"/>
      <path id="Path_371" data-name="Path 371" d="M555.7,507.85a3.889,3.889,0,0,1,.189,1.073,4.355,4.355,0,0,0-.236-.743S555.667,508.052,555.7,507.85Z" transform="translate(-544.415 -490.102)"/>
      <path id="Path_372" data-name="Path 372" d="M518.85,497.988a1.353,1.353,0,0,1-.019-.318c.034.21.057.421.072.6C518.888,498.175,518.865,498.082,518.85,497.988Z" transform="translate(-515.343 -482.065)"/>
      <path id="Path_373" data-name="Path 373" d="M554.122,554.4a1.87,1.87,0,0,1-.063-.648,2.179,2.179,0,0,1,.137.821A.818.818,0,0,0,554.122,554.4Z" transform="translate(-543.154 -526.342)"/>
      <path id="Path_374" data-name="Path 374" d="M549.282,582.68a11.277,11.277,0,0,1,.333,1.8l3.489.541a7.321,7.321,0,0,0,.842-1.448c.044-.093.08-.177.109-.253.21.105.28.326-.021.951a7.3,7.3,0,0,1-.842,1.45l-3.489-.541a6.971,6.971,0,0,0-.526-2.2C549,582.8,549.118,582.718,549.282,582.68Z" transform="translate(-539.236 -549.184)"/>
      <path id="Path_375" data-name="Path 375" d="M570.862,451.988s-.105,2-.4,2.1h0c-.133-.337-.21-.655-.086-.7.295-.105.4-2.1.4-2.1a12.965,12.965,0,0,0,.551-3,5.811,5.811,0,0,1,.547-2.155l.274-1.818a5.026,5.026,0,0,0,.77-3.426l.107-2.812s1.023-5.419,1.244-8.168c.143-1.762.21-4.169.248-5.672,0-.271.01-.513.013-.718l.1.015s0,.56-.025,1.4c-.034,1.5-.105,3.912-.246,5.672-.223,2.751-1.244,8.17-1.244,8.17l-.109,2.812a5.02,5.02,0,0,1-.77,3.424l-.274,1.818a5.825,5.825,0,0,0-.547,2.157A12.945,12.945,0,0,1,570.862,451.988Z" transform="translate(-555.992 -423.52)"/>
      <path id="Path_376" data-name="Path 376" d="M508.01,583.217a3.4,3.4,0,0,0,.608-1.357c.345.337-.116,1.576-.52,2.056s-3.454.709-4-.269l.021-.551C504.879,583.9,507.606,583.7,508.01,583.217Z" transform="translate(-503.714 -548.536)"/>
      <path id="Path_377" data-name="Path 377" d="M502.282,571.851a5.861,5.861,0,0,1,.372.886l-.017.406c-.059-.149-.145-.351-.267-.591a1.731,1.731,0,0,1-.1-.722Z" transform="translate(-502.266 -540.617)"/>
      <path id="Path_378" data-name="Path 378" d="M521.379,559.026a5.482,5.482,0,0,1-.259-.7s.488.135,1.3-.762a4.128,4.128,0,0,0,.631-2.763c.126.5.28,2.565-.539,3.464A2.084,2.084,0,0,1,521.379,559.026Z" transform="translate(-517.152 -527.171)"/>
      <path id="Path_379" data-name="Path 379" d="M529.9,485.442a15.225,15.225,0,0,0-.124,1.715,2.72,2.72,0,0,0-.051-.272,10.263,10.263,0,0,1,.084-2.144,4.312,4.312,0,0,1,.263-1.528,19.076,19.076,0,0,0,.821-2.494,1.7,1.7,0,0,1,.448-1.086,4.955,4.955,0,0,0,.739-1.831,1.909,1.909,0,0,0,.337-1.235,2.526,2.526,0,0,1,.551-1.488l1.107-3.094,1.016-2.315.469,1.383v.442l-.379-1.124-1.012,2.315-1.1,3.094a2.526,2.526,0,0,0-.551,1.488,1.893,1.893,0,0,1-.339,1.235,4.948,4.948,0,0,1-.737,1.829,1.709,1.709,0,0,0-.448,1.086,19.038,19.038,0,0,1-.823,2.494A4.346,4.346,0,0,0,529.9,485.442Z" transform="translate(-523.917 -459.957)"/>
    </g>
    <path id="Path_380" data-name="Path 380" d="M528.753,280.915l.177,1.067-.029.471-.023.347,1.2.17.145-.246h0a10.4,10.4,0,0,1,1-1.473c.232-.181.743-3.108.257-2.946a1.263,1.263,0,0,0-.7.585S528.4,279.059,528.753,280.915Z" transform="translate(-428.052 -238.058)" fill="#ffcdd3"/>
    <path id="Path_381" data-name="Path 381" d="M529.48,297.921l1.2.17.145-.246h0a1.063,1.063,0,0,0-1.326-.271Z" transform="translate(-428.655 -253.178)" opacity="0.1"/>
    <path id="Path_382" data-name="Path 382" d="M527.92,298.9l1.581.421.044-.236.114-.631a1.1,1.1,0,0,0-1.536-.272l-.09.324Z" transform="translate(-427.423 -253.6)" fill="#dce6f2"/>
    <path id="Path_383" data-name="Path 383" d="M651.12,277.19l1.669.979.166-.316c.175-.333.436-.842.509-1.016.112-.278.842-.606.842-.606,1.848-1.635-.211-3.18-.211-3.18-1.037-2.3-2.408.676-2.408.676a7.755,7.755,0,0,0-.116,1.7c.118.114.1.547.1.547a6.348,6.348,0,0,0-.448.96A1.977,1.977,0,0,0,651.12,277.19Z" transform="translate(-524.695 -233.223)" fill="#ffcdd3"/>
    <path id="Path_384" data-name="Path 384" d="M651.12,295.059l1.669.979.166-.316c-.234-.21-1.052-.934-1.338-.913a1.991,1.991,0,0,1-.4,0C651.152,294.958,651.12,295.059,651.12,295.059Z" transform="translate(-524.695 -251.092)" opacity="0.1"/>
    <path id="Path_385" data-name="Path 385" d="M650.2,295.858l1.877,1.016.055-.421.038-.282s-1.073-.993-1.4-.97a1.73,1.73,0,0,1-.5-.021l-.036.345Z" transform="translate(-523.969 -251.386)" fill="#dce6f2"/>
    <path id="Path_386" data-name="Path 386" d="M549.65,300.992s8.307,1.263,6.766.694a2.1,2.1,0,0,1-1.539-1.871,4.362,4.362,0,0,1,.385-1.917,8.261,8.261,0,0,1,.8-1.473s-6.242-3.754-5.089-.516a5.128,5.128,0,0,1,.3,1.526,4.264,4.264,0,0,1-.223,1.522A4.572,4.572,0,0,1,549.65,300.992Z" transform="translate(-444.58 -250.922)" fill="#ffcdd3"/>
    <path id="Path_387" data-name="Path 387" d="M555.46,295.874a5.121,5.121,0,0,1,.3,1.526,2.942,2.942,0,0,0,2.086.551,3.764,3.764,0,0,0,1.894-.082,8.264,8.264,0,0,1,.8-1.473S554.3,292.635,555.46,295.874Z" transform="translate(-449.053 -250.896)" opacity="0.1"/>
    <circle id="Ellipse_17" data-name="Ellipse 17" cx="3.451" cy="3.451" r="3.451" transform="translate(105.573 40.378)" fill="#ffcdd3"/>
    <path id="Path_388" data-name="Path 388" d="M549.65,316.167s8.307,1.263,6.766.694a2.1,2.1,0,0,1-1.539-1.871,4.6,4.6,0,0,0-1.749-1.016,2.506,2.506,0,0,0-1.511-.082,2.128,2.128,0,0,0-.56.234A4.573,4.573,0,0,1,549.65,316.167Z" transform="translate(-444.58 -266.098)" opacity="0.1"/>
    <path id="Path_389" data-name="Path 389" d="M527.92,300.7l1.581.421.044-.236a1.41,1.41,0,0,0-1.513-.583Z" transform="translate(-427.423 -255.397)" opacity="0.1"/>
    <path id="Path_390" data-name="Path 390" d="M650.2,297.152l1.877,1.017.055-.421a14.128,14.128,0,0,0-1.894-.928Z" transform="translate(-523.969 -252.681)" opacity="0.1"/>
    <path id="Path_391" data-name="Path 391" d="M530.12,417.322c3.212.631,7.787,1.473,8.521,1.282a21.289,21.289,0,0,1,4.226.055c.019-.842.025-1.4.025-1.4l-12.474-1.787A10.212,10.212,0,0,1,530.12,417.322Z" transform="translate(-429.16 -346.361)" opacity="0.1"/>
    <path id="Path_392" data-name="Path 392" d="M515,323.266s10.569,2.235,11.724,1.932,7,.3,7,.3c2.57,1.869,1.57-.783,1.57-.783a6.388,6.388,0,0,0,0-2.467,15.123,15.123,0,0,1-.339-2.481,5.745,5.745,0,0,0-.179-2.155,16.545,16.545,0,0,1-.568-3.331s-.21-1.983-.168-2.416-.023-1.656-.023-1.656l-.3-2.044c2.185-.211,8.951-4.011,8.951-4.011.373-1.349,2.959-4.445,2.959-4.445a3.287,3.287,0,0,1,.231-.774c.194-.457-2.38-1.473-2.38-1.473s-2.035,2.3-2.464,2.923a13.253,13.253,0,0,1-1.869,1.757,1.42,1.42,0,0,0-.631.059h-.034a5.167,5.167,0,0,0-1.328.7,2.525,2.525,0,0,0-1.793.6s-1.183-.211-1.393-.025-1.216-.046-1.216-.046-.932-2.185-1.623-1.587-3.521.461-3.521.461a4.171,4.171,0,0,0-1.827-1.117,2.506,2.506,0,0,0-1.511-.084,1.926,1.926,0,0,0-.608.267l-1.781,1.614s-.469-.657-.406-.8-.568-.284-.568-.284-.842-.293-1.147-.391-.621.234-.648.263a3.385,3.385,0,0,0,.194-1.263,1.455,1.455,0,0,1,.387-1.029c-.917-2.525-3.289-.535-3.289-.535a4.767,4.767,0,0,0-.1,1.884c.213.53-.295,1.614-.248,1.907s-.145.779-.166,1.33a7.9,7.9,0,0,0,.385,2.075c.156.469,1.507,1.568,1.507,1.568a6.55,6.55,0,0,0,.6,2.637c.572.981.069,4.241.069,4.241a10.931,10.931,0,0,1-1.435,3.313C516.252,318.678,515,323.266,515,323.266Z" transform="translate(-417.222 -253.186)" fill="#266dd3"/>
    <path id="Path_393" data-name="Path 393" d="M591.934,325.79s.356-.945.648-1.021a6.714,6.714,0,0,0,.857-.345l-.172-.364s-1.1.257-1.288.57A2.487,2.487,0,0,0,591.934,325.79Z" transform="translate(-477.923 -274.188)" opacity="0.1"/>
    <path id="Path_394" data-name="Path 394" d="M620.2,320.637c.048.29,2.618.652,2.618.652l-1.263-1.36h-.032A5.17,5.17,0,0,0,620.2,320.637Z" transform="translate(-500.282 -270.927)" opacity="0.1"/>
    <path id="Path_395" data-name="Path 395" d="M546.674,369.6c.03-.032-6.823,7.968-11.714,3.005C534.969,372.6,542.934,374,546.674,369.6Z" transform="translate(-432.981 -310.144)" opacity="0.1"/>
    <path id="Path_396" data-name="Path 396" d="M583.781,349.94a12.612,12.612,0,0,1-1.616,2.538,10.194,10.194,0,0,1-2.464,2.2S583.694,350.475,583.781,349.94Z" transform="translate(-468.306 -294.622)" opacity="0.1"/>
    <path id="Path_397" data-name="Path 397" d="M596.7,328.58s-.762,2.791-2.479,3.683Z" transform="translate(-479.77 -277.757)" opacity="0.1"/>
    <path id="Path_398" data-name="Path 398" d="M602.062,330.117c.019-.053.495,2.25-2.3,3.405C599.76,333.522,600.943,333.17,602.062,330.117Z" transform="translate(-484.144 -278.97)" opacity="0.1"/>
    <path id="Path_399" data-name="Path 399" d="M523.207,317.985a20.2,20.2,0,0,0-1.787,1.237S522.384,317.9,523.207,317.985Z" transform="translate(-422.291 -269.389)" opacity="0.1"/>
    <path id="Path_400" data-name="Path 400" d="M552.3,280.857a.722.722,0,0,1-.286.455.7.7,0,0,1-.328.061,6.866,6.866,0,0,1-3.109-.421,1.176,1.176,0,0,1-.461-.333,1.927,1.927,0,0,1-.246-.772,11.356,11.356,0,0,0-.581-1.49,4.926,4.926,0,0,1-.24-2.633,1.785,1.785,0,0,1,.293-.762c.295-.387.808-.528,1.189-.831s.631-.779,1.078-1a1.925,1.925,0,0,1,1.3-.065,6.817,6.817,0,0,1,2.4,1.006,1.224,1.224,0,0,0,.8.307,1.115,1.115,0,0,0,.612-.436,3.172,3.172,0,0,1,.21,1.513.686.686,0,0,0,0,.227.707.707,0,0,0,.151.244.878.878,0,0,1,.124,1.088c-.116.13-.29.2-.4.326-.21.234-.154.585-.16.9a.461.461,0,0,1-.088.3.448.448,0,0,1-.421.084,1.194,1.194,0,0,0-.453-.061.769.769,0,0,0-.406.288A5.131,5.131,0,0,0,552.3,280.857Z" transform="translate(-442.462 -233.862)" fill="#3f3d56"/>
    <g id="Group_69" data-name="Group 69" transform="translate(105.514 40.037)" opacity="0.1">
      <path id="Path_401" data-name="Path 401" d="M551.792,291.885a1.168,1.168,0,0,0,.463.333,7.1,7.1,0,0,0,3.108.421.753.753,0,0,0,.328-.061.722.722,0,0,0,.286-.457,5.422,5.422,0,0,1,.958-2.006.759.759,0,0,1,.406-.288,1.2,1.2,0,0,1,.453.061.444.444,0,0,0,.421-.086.46.46,0,0,0,.088-.3,1.335,1.335,0,0,1,.158-.894c.114-.133.288-.2.406-.326a.675.675,0,0,0,.093-.688.79.79,0,0,1,.015.924c-.118.128-.293.2-.406.326-.211.234-.152.585-.158.9a.461.461,0,0,1-.088.3.448.448,0,0,1-.421.084,1.205,1.205,0,0,0-.453-.061.76.76,0,0,0-.406.288,5.323,5.323,0,0,0-.957,2.008.722.722,0,0,1-.286.455.7.7,0,0,1-.328.061,6.867,6.867,0,0,1-3.109-.421,1.169,1.169,0,0,1-.463-.333.936.936,0,0,1-.139-.284Z" transform="translate(-551.76 -285.431)"/>
      <path id="Path_402" data-name="Path 402" d="M583.933,279.018a.5.5,0,0,1-.1-.179.634.634,0,0,1,0-.225,3.21,3.21,0,0,0-.114-1.263l.019-.021a3.2,3.2,0,0,1,.2,1.513A1.114,1.114,0,0,0,583.933,279.018Z" transform="translate(-576.994 -277.33)"/>
    </g>
    <path id="Path_403" data-name="Path 403" d="M557.235,319.469s-4.333.4-4.7-.259" transform="translate(-446.862 -270.359)" opacity="0.1"/>
    <path id="Path_404" data-name="Path 404" d="M524.306,310.421s-2.4-.088-2.946.789" transform="translate(-422.244 -263.417)" opacity="0.1"/>
  </g>
</svg>
