<svg id="Layer_1" data-name="Layer 1" xmlns="http://www.w3.org/2000/svg" viewBox="0 0 1017.59 343.94"><defs><style>.cls-1{opacity:0.25;}.cls-2{fill:#e5e7e6;}</style></defs><title>home-background</title><g class="cls-1"><path id="Path_130" data-name="Path 130" class="cls-2" d="M305.66,75.73a8.66,8.66,0,0,1-15.19,6.73,8.66,8.66,0,0,1,15.19-6.73Z" transform="translate(0)"/><rect id="Rectangle_33" data-name="Rectangle 33" class="cls-2" x="304.49" y="34.46" width="1.09" height="43.53"/><path id="Path_131" data-name="Path 131" class="cls-2" d="M730.12,157.74a8.67,8.67,0,0,1-11.69,11.85,8.67,8.67,0,0,1,11.69-11.85Z" transform="translate(0)"/><rect id="Rectangle_34" data-name="Rectangle 34" class="cls-2" x="721.83" y="118.14" width="1.09" height="43.53" transform="translate(-0.8 275.62) rotate(-21.59)"/><path id="Path_132" data-name="Path 132" class="cls-2" d="M526.52,247.78a8.66,8.66,0,0,1-9.35,13.78,8.66,8.66,0,0,1,9.35-13.78Z" transform="translate(0)"/><path id="Path_133" data-name="Path 133" class="cls-2" d="M526.92,250.23a.56.56,0,0,1-.48-.28l-28.22-45.26a.53.53,0,0,1,0-.72.57.57,0,0,1,.77,0l28.21,45.26a.56.56,0,0,1,0,.76Z" transform="translate(0)"/><path id="Path_134" data-name="Path 134" class="cls-2" d="M520.43,213.2a.53.53,0,0,1-.52-.45c-1.09-5.4-7.46-5.52-11.45-5.52h-1.29c-5.32,0-7.13-.84-8.75-2.38a.58.58,0,0,1,0-.76.49.49,0,0,1,.69,0s0,0,0,0c1.21,1.13,2.58,2,8.06,2h1.29c4,0,11.24,0,12.49,6.41a.56.56,0,0,1-.4.65Z" transform="translate(0)"/><path id="Path_135" data-name="Path 135" class="cls-2" d="M530,228.35a.55.55,0,0,1-.52-.44c-1.09-5.56-7.7-5.56-11.73-5.52h-1c-5.32,0-7.13-.85-8.74-2.38a.52.52,0,0,1,0-.73.56.56,0,0,1,.76,0c1.17,1.17,2.54,2,8.06,2.1h1c4,0,11.49,0,12.78,6.41a.53.53,0,0,1-.38.64h0Z" transform="translate(0)"/><path id="Path_136" data-name="Path 136" class="cls-2" d="M534.62,235.85a.62.62,0,0,1-.53-.45c-1.09-5.68-7.74-5.68-11.73-5.68h-1c-5.32,0-7.14-.85-8.79-2.38a.56.56,0,0,1,0-.76.52.52,0,0,1,.73,0c1.24,1.12,2.62,2,8.06,2.1h1c4,0,11.53,0,12.82,6.4a.52.52,0,0,1-.44.6h0Z" transform="translate(0)"/><path id="Path_137" data-name="Path 137" class="cls-2" d="M525.11,220.53a.51.51,0,0,1-.53-.44c-1.21-6.09-9.07-5.52-12.73-5.56-5.32,0-7.14-.81-8.75-2.38a.54.54,0,0,1,0-.73.48.48,0,0,1,.68,0l.05,0c1.25,1.17,2.58,2,8.06,2.1h1c4,0,11.49,0,12.74,6.41a.53.53,0,0,1-.39.64h0Z" transform="translate(0)"/><path id="Path_138" data-name="Path 138" class="cls-2" d="M193.1,173.82c3.66,2.1,4.35,7.7,1.53,12.58A9.15,9.15,0,0,1,183,191.35c-3.62-2.1-4.31-7.7-1.49-12.53S189.43,171.73,193.1,173.82Z" transform="translate(0)"/><path id="Path_139" data-name="Path 139" class="cls-2" d="M193.79,176.6a.59.59,0,0,1-.45,0l-38.21-52.39a.52.52,0,1,1,.73-.73l38.24,52.4a.56.56,0,0,1,0,.76Z" transform="translate(0)"/><path id="Path_140" data-name="Path 140" class="cls-2" d="M182.58,132.19a.54.54,0,0,1-.53-.36c-1.85-6.77-10-6.17-14.91-5.8H166c-6.45.36-8.67-.4-10.76-2.1a.56.56,0,1,1,.68-.85c1.57,1.29,3.3,2.26,10,1.86h1.17c4.88-.37,13.95-1,16.12,6.56a.52.52,0,0,1-.36.65Z" transform="translate(0)"/><path id="Path_141" data-name="Path 141" class="cls-2" d="M195.6,149.76a.58.58,0,0,1-.53-.4c-1.85-6.77-10-6.13-14.91-5.76H179c-6.41.4-8.66-.4-10.76-2.1a.59.59,0,0,1,0-.73.52.52,0,0,1,.74,0l0,0c1.57,1.29,3.34,2.22,10,1.82h1.17c4.88-.36,13.94-1.05,16.12,6.57a.51.51,0,0,1-.36.64Z" transform="translate(0)"/><path id="Path_142" data-name="Path 142" class="cls-2" d="M188.91,140.69a.56.56,0,0,1-.53-.4c-1.85-6.73-10-6.12-14.91-5.76H172.3c-6.45.4-8.66-.4-10.76-2.1a.57.57,0,0,1,0-.72.51.51,0,0,1,.74,0l0,0c1.61,1.29,3.34,2.21,10,1.81h1.17c4.88-.36,13.94-1.05,16.12,6.57a.51.51,0,0,1-.36.64Z" transform="translate(0)"/><path id="Path_143" data-name="Path 143" class="cls-2" d="M682.6,299.44A9.16,9.16,0,0,1,684.1,312c-2.79,4.88-8.06,7.09-11.65,5s-4.31-7.74-1.49-12.58S678.94,297.35,682.6,299.44Z" transform="translate(0)"/><path id="Path_144" data-name="Path 144" class="cls-2" d="M683.25,302.26a.52.52,0,0,1-.44-.24L644.6,249.63a.54.54,0,0,1,.77-.77l38.2,52.4a.51.51,0,0,1,0,.72A.43.43,0,0,1,683.25,302.26Z" transform="translate(0)"/><path id="Path_145" data-name="Path 145" class="cls-2" d="M672.05,257.93a.56.56,0,0,1-.53-.4c-1.85-6.77-10-6.13-14.91-5.76h-1.17c-6.45.4-8.66-.4-10.76-2.1a.54.54,0,0,1,0-.73.48.48,0,0,1,.68,0s0,0,0,0c1.58,1.29,3.3,2.22,10,1.86h1.17c4.83-.4,13.94-1.09,16.12,6.52a.5.5,0,0,1-.28.63l-.08,0Z" transform="translate(0)"/><path id="Path_146" data-name="Path 146" class="cls-2" d="M685.14,275.38a.48.48,0,0,1-.48-.36c-1.89-6.77-10.08-6.17-14.95-5.8h-1.17c-6.45.4-8.67-.37-10.76-2.06a.57.57,0,0,1,.68-.85c1.61,1.29,3.35,2.26,10,1.86h1.17c4.87-.36,13.94-1.05,16.12,6.57a.52.52,0,0,1-.37.64Z" transform="translate(0)"/><path id="Path_147" data-name="Path 147" class="cls-2" d="M678.37,266.32a.54.54,0,0,1-.48-.37c-1.89-6.77-10-6.16-14.91-5.8h-1.21c-6.41.4-8.67-.36-10.72-2a.53.53,0,0,1,0-.74l0,0a.55.55,0,0,1,.72,0c1.61,1.29,3.35,2.26,10,1.85H663c4.83-.36,13.9-1.05,16.12,6.57a.53.53,0,0,1-.36.65Z" transform="translate(0)"/><path id="Path_148" data-name="Path 148" class="cls-2" d="M333.27,122.56c-.69-3.39,2.42-6.85,6.93-7.74a7.45,7.45,0,0,1,9.35,4.52c.69,3.34-2.42,6.81-6.93,7.7A7.42,7.42,0,0,1,333.27,122.56Z" transform="translate(0)"/><path id="Path_149" data-name="Path 149" class="cls-2" d="M324.88,163.67h0a.52.52,0,0,1-.4-.62v0L334,120.54a.52.52,0,0,1,.62-.4h0a.57.57,0,0,1,.4.65l-9.67,42.47a.53.53,0,0,1-.53.4Z" transform="translate(0)"/><path id="Path_150" data-name="Path 150" class="cls-2" d="M325,163.38h-.25a.48.48,0,0,1-.26-.63l0-.05c1-2,2.46-3.3,7.46-5.11l.93-.33c3.74-1.33,10.07-3.51,9.26-9.15a.53.53,0,1,1,1.05-.12c.92,6.49-6.17,8.95-10,10.28l-.88.32c-5.12,1.86-6.13,3.15-6.86,4.6a.62.62,0,0,1-.48.2Z" transform="translate(0)"/><path id="Path_151" data-name="Path 151" class="cls-2" d="M817.21,191.55a6.17,6.17,0,1,1-6.76,5.51,6,6,0,0,1,.44-1.72A5.32,5.32,0,0,1,817.21,191.55Z" transform="translate(0)"/><rect id="Rectangle_35" data-name="Rectangle 35" class="cls-2" x="806.4" y="166.69" width="1.09" height="30.87" transform="translate(98.69 609.57) rotate(-43.83)"/><path id="Path_152" data-name="Path 152" class="cls-2" d="M841.52,181.36a6.18,6.18,0,1,1-6.29,3.79A5.32,5.32,0,0,1,841.52,181.36Z" transform="translate(0)"/><rect id="Rectangle_36" data-name="Rectangle 36" class="cls-2" x="830.44" y="156.18" width="1.09" height="30.87" transform="matrix(0.72, -0.69, 0.69, 0.72, 112.31, 622.72)"/><path id="Path_153" data-name="Path 153" class="cls-2" d="M823.06,161.85l-24,13.79-4.48-4.76L819,157.3Z" transform="translate(0)"/><path id="Path_154" data-name="Path 154" class="cls-2" d="M382.88,144.85a4,4,0,0,1,0,5.4,3.63,3.63,0,0,1-5.1.57l-.06,0a4,4,0,0,1,0-5.44,3.59,3.59,0,0,1,5-.58Z" transform="translate(0)"/><path id="Path_155" data-name="Path 155" class="cls-2" d="M382.56,146.7l-10.28-21.93,1-.44,10.27,21.93Z" transform="translate(0)"/><path id="Path_156" data-name="Path 156" class="cls-2" d="M396.62,135.09a4,4,0,0,1,0,5.4,3.51,3.51,0,0,1-4.88.89c-.14-.1-.27-.21-.4-.32a4,4,0,0,1,0-5.45,3.51,3.51,0,0,1,4.89-.84A3,3,0,0,1,396.62,135.09Z" transform="translate(0)"/><path id="Path_157" data-name="Path 157" class="cls-2" d="M396,136.34,385.7,114.42l1-.45,10.27,21.93Z" transform="translate(0)"/><path id="Path_158" data-name="Path 158" class="cls-2" d="M373.37,127.72l14.95-10.8-2.26-4.76-15,10.6Z" transform="translate(0)"/><path id="Path_159" data-name="Path 159" class="cls-2" d="M375,129.65l-.64-.89,13.9-9.87.6.85Z" transform="translate(0)"/><path id="Path_160" data-name="Path 160" class="cls-2" d="M830.23,114.38a5.32,5.32,0,0,1,2,7.09,4.6,4.6,0,1,1-2-7.09Z" transform="translate(0)"/><rect id="Rectangle_37" data-name="Rectangle 37" class="cls-2" x="819.68" y="90.02" width="1.09" height="30.87" transform="translate(166.11 611.44) rotate(-45.05)"/><path id="Path_161" data-name="Path 161" class="cls-2" d="M843.61,93.1a5.32,5.32,0,0,1,2,7.09,4.59,4.59,0,1,1-2-7.09Z" transform="translate(0)"/><rect id="Rectangle_38" data-name="Rectangle 38" class="cls-2" x="832.37" y="68.16" width="1.09" height="30.87" transform="translate(184.93 613.56) rotate(-45.01)"/><path id="Path_162" data-name="Path 162" class="cls-2" d="M811.41,98.3,825.8,74.88,821,70.13,806.45,93.38Z" transform="translate(0)"/><rect id="Rectangle_39" data-name="Rectangle 39" class="cls-2" x="821.6" y="84.37" width="11.49" height="1.61" transform="translate(360.34 773.41) rotate(-61.72)"/><path id="Path_163" data-name="Path 163" class="cls-2" d="M564.8,324.27a5.32,5.32,0,0,1,3.63,6.41c-.4,3.26-2.7,5.6-5.12,5.32a5.37,5.37,0,0,1-3.67-6.45C560.21,326.44,562.38,324,564.8,324.27Z" transform="translate(0)"/><rect id="Rectangle_40" data-name="Rectangle 40" class="cls-2" x="552.38" y="302.65" width="1.09" height="30.88" transform="translate(-5.9 625.69) rotate(-58.74)"/><path id="Path_164" data-name="Path 164" class="cls-2" d="M572.66,300.45a5.33,5.33,0,0,1,3.63,6.41c-.45,3.22-2.74,5.6-5.16,5.28a5.33,5.33,0,0,1-3.63-6.41C567.91,302.51,570.24,300.13,572.66,300.45Z" transform="translate(0)"/><rect id="Rectangle_41" data-name="Rectangle 41" class="cls-2" x="559.46" y="278.3" width="1.09" height="30.88" transform="translate(18.32 620.03) rotate(-58.74)"/><path id="Path_165" data-name="Path 165" class="cls-2" d="M542.6,313.15,551,287l-5.72-3.47-8.67,26Z" transform="translate(0)"/><rect id="Rectangle_42" data-name="Rectangle 42" class="cls-2" x="536.28" y="301.02" width="25.48" height="1.09" transform="translate(90.79 728.64) rotate(-71.76)"/><path id="Path_166" data-name="Path 166" class="cls-2" d="M114,75a8.07,8.07,0,0,1-4.36,10.24,8.07,8.07,0,0,1-11-1.29,8.06,8.06,0,0,1,4.31-10.24A8.07,8.07,0,0,1,114,75Z" transform="translate(0)"/><path id="Path_167" data-name="Path 167" class="cls-2" d="M112.37,77.06l-5.08-46.35,1.09-.12,5.08,46.35Z" transform="translate(0)"/><path id="Path_168" data-name="Path 168" class="cls-2" d="M149.49,61.06a8,8,0,0,1-4.39,10.27A8,8,0,0,1,134,70a8,8,0,0,1,4.35-10.23A8,8,0,0,1,149.49,61.06Z" transform="translate(0)"/><path id="Path_169" data-name="Path 169" class="cls-2" d="M148,63.19,143,16.85l1.09-.08,5.08,46.3Z" transform="translate(0)"/><path id="Path_170" data-name="Path 170" class="cls-2" d="M181.61,46.59a8.07,8.07,0,0,1-4.27,10.24,8.06,8.06,0,0,1-11.08-1.29,8.06,8.06,0,0,1,4.38-10.24,8.07,8.07,0,0,1,11,1.29Z" transform="translate(0)"/><rect id="Rectangle_43" data-name="Rectangle 43" class="cls-2" x="177.54" y="2.41" width="1.09" height="46.63" transform="translate(-1.74 19.48) rotate(-6.23)"/><path id="Path_171" data-name="Path 171" class="cls-2" d="M107,38.17l71.22-26.85L177,0,105.93,28.37Z" transform="translate(0)"/><path id="Path_172" data-name="Path 172" class="cls-2" d="M616.63,217.87a7,7,0,0,1-9.11,9.79,7,7,0,0,1,9.11-9.79Z" transform="translate(0)"/><path id="Path_173" data-name="Path 173" class="cls-2" d="M615.86,219.73l-13.78-32.12.77-.33,13.78,32.12Z" transform="translate(0)"/><path id="Path_174" data-name="Path 174" class="cls-2" d="M639,200.1a6.93,6.93,0,0,1-9.07,9.79,6,6,0,0,1,.85-8.3A6.08,6.08,0,0,1,639,200.1Z" transform="translate(0)"/><path id="Path_175" data-name="Path 175" class="cls-2" d="M638.43,202l-13.78-32.12.73-.32,13.78,32.12Z" transform="translate(0)"/><path id="Path_176" data-name="Path 176" class="cls-2" d="M658.83,182.72A6,6,0,0,1,658,191a6.12,6.12,0,0,1-8.06,1.5,7,7,0,0,1,9.07-9.8Z" transform="translate(0)"/><path id="Path_177" data-name="Path 177" class="cls-2" d="M658.26,184.7l-13.78-32.12.72-.28L659,184.42Z" transform="translate(0)"/><path id="Path_178" data-name="Path 178" class="cls-2" d="M603.49,193l45.18-34.82-3.34-7.86-44.74,35.91Z" transform="translate(0)"/><path id="Path_179" data-name="Path 179" class="cls-2" d="M910.07,135.46a6.49,6.49,0,1,1-9.17-.5,6.49,6.49,0,0,1,9.17.5Z" transform="translate(0)"/><path id="Path_180" data-name="Path 180" class="cls-2" d="M944.25,158.34l-27.89-31.07a18.15,18.15,0,0,1-2.54,13.62,12.3,12.3,0,0,1-9.07,4.52v-1.09a11.19,11.19,0,0,0,8.34-4,18.49,18.49,0,0,0,2.06-14.55.6.6,0,0,1,.52-.68.65.65,0,0,1,.41.08l29,32.24Z" transform="translate(0)"/><path id="Path_181" data-name="Path 181" class="cls-2" d="M921.19,147.83a6.49,6.49,0,1,1-9.17-.5,6.49,6.49,0,0,1,9.17.5Z" transform="translate(0)"/><path id="Path_182" data-name="Path 182" class="cls-2" d="M915.87,157.78v-1.05a11.18,11.18,0,0,0,8.35-4,18.52,18.52,0,0,0,2-14.55h1.05a19.7,19.7,0,0,1-2.38,15A12.08,12.08,0,0,1,915.87,157.78Z" transform="translate(0)"/><path id="Path_183" data-name="Path 183" class="cls-2" d="M390.94,181a5.36,5.36,0,1,1-7.54-.8h0A5.35,5.35,0,0,1,390.94,181Z" transform="translate(0)"/><path id="Path_184" data-name="Path 184" class="cls-2" d="M418.1,201.51,396.7,175a15,15,0,0,1-2.7,10.88,10.29,10.29,0,0,1-7.73,3.35v-1.09a9,9,0,0,0,6.93-2.94,15.21,15.21,0,0,0,2.25-11.89.57.57,0,0,1,.37-.56.51.51,0,0,1,.6,0l22.49,27.88Z" transform="translate(0)"/><path id="Path_185" data-name="Path 185" class="cls-2" d="M399.65,191.64a5.29,5.29,0,0,1-.58,7.44l-.07.06a5.36,5.36,0,1,1,.73-7.55l0,0Z" transform="translate(0)"/><path id="Path_186" data-name="Path 186" class="cls-2" d="M395,199.7v-1.09a9.31,9.31,0,0,0,7-2.94,15.3,15.3,0,0,0,2.3-11.85h1.05a16.13,16.13,0,0,1-2.54,12.65A10.38,10.38,0,0,1,395,199.7Z" transform="translate(0)"/><path id="Path_187" data-name="Path 187" class="cls-2" d="M604,280.54l-32.13-33,.77-.76,32.12,33Z" transform="translate(0)"/><path id="Path_188" data-name="Path 188" class="cls-2" d="M604,280.54l-32.13-33,.77-.76,32.12,33Z" transform="translate(0)"/><path id="Path_189" data-name="Path 189" class="cls-2" d="M608.33,270.87l-32.12-33,.76-.72,32.12,33Z" transform="translate(0)"/><path id="Path_190" data-name="Path 190" class="cls-2" d="M575.89,260.43l-.53-1L599.18,247l.48,1Z" transform="translate(0)"/><rect id="Rectangle_44" data-name="Rectangle 44" class="cls-2" x="580.5" y="262.77" width="26.89" height="1.09" transform="translate(-54.18 308.5) rotate(-27.9)"/><rect id="Rectangle_45" data-name="Rectangle 45" class="cls-2" x="580.5" y="262.77" width="26.89" height="1.09" transform="translate(-54.18 308.5) rotate(-27.9)"/><rect id="Rectangle_46" data-name="Rectangle 46" class="cls-2" x="450.47" y="194.52" width="1.05" height="46.06" transform="translate(-36.15 101.75) rotate(-12.38)"/><rect id="Rectangle_47" data-name="Rectangle 47" class="cls-2" x="450.47" y="194.52" width="1.05" height="46.06" transform="translate(-36.15 101.75) rotate(-12.38)"/><rect id="Rectangle_48" data-name="Rectangle 48" class="cls-2" x="459.23" y="188.62" width="1.05" height="46.03" transform="translate(-34.68 103.49) rotate(-12.38)"/><path id="Path_191" data-name="Path 191" class="cls-2" d="M468.92,210.17l-26.8-1.93.08-1.05,26.8,1.9Z" transform="translate(0)"/><path id="Path_192" data-name="Path 192" class="cls-2" d="M469.29,221.7l-26.8-1.89.08-1.09,26.8,1.93Z" transform="translate(0)"/><path id="Path_193" data-name="Path 193" class="cls-2" d="M469.29,221.7l-26.8-1.89.08-1.09,26.8,1.93Z" transform="translate(0)"/><path id="Path_194" data-name="Path 194" class="cls-2" d="M748.86,236.53l-32.08-33.05.77-.72,32.08,33Z" transform="translate(0)"/><path id="Path_195" data-name="Path 195" class="cls-2" d="M748.86,236.53l-32.08-33.05.77-.72,32.08,33Z" transform="translate(0)"/><path id="Path_196" data-name="Path 196" class="cls-2" d="M753.21,226.82l-32.08-33,.77-.76,32.08,33Z" transform="translate(0)"/><path id="Path_197" data-name="Path 197" class="cls-2" d="M720.77,216.38l-.48-.93L744,203l.53.93Z" transform="translate(0)"/><path id="Path_198" data-name="Path 198" class="cls-2" d="M727.18,226l-.48-1,23.73-12.5.53.93Z" transform="translate(0)"/><path id="Path_199" data-name="Path 199" class="cls-2" d="M727.18,226l-.48-1,23.73-12.5.53.93Z" transform="translate(0)"/><path id="Path_200" data-name="Path 200" class="cls-2" d="M85.77,256a5.87,5.87,0,0,1-1.17.36,9.93,9.93,0,0,1-7-.52h0a10.06,10.06,0,0,1-3.38-2.58,1.3,1.3,0,0,1-.37-.44,5.09,5.09,0,0,1-.76-1.13h0a6.81,6.81,0,0,1-.6-1.21,10.28,10.28,0,0,1,17.57-10.32,1.83,1.83,0,0,1,.28.44,9.67,9.67,0,0,1,1.17,2A10.31,10.31,0,0,1,85.77,256Z" transform="translate(0)"/><path id="Path_201" data-name="Path 201" class="cls-2" d="M74.77,184.86c-3.67-5.07-7.45-10.35-11.24-15.8l-3.3,2.34,10.92,16.12c.89,1.33,1.77,2.62,2.7,4L77.52,189Zm-23.09-7.53-5.12,4a36.25,36.25,0,0,0,8.06,11.36,35.57,35.57,0,0,0,4.51,3.71l1.33,1a67.8,67.8,0,0,1-4-6.29A41.1,41.1,0,0,1,51.68,177.33ZM110.12,191a38.53,38.53,0,0,0,6.28-26.84v-.61A40.3,40.3,0,0,0,106,142.34l-.4-.4a25.92,25.92,0,0,0-1.89-1.89,36.28,36.28,0,0,0-24.18-9.83,11.92,11.92,0,0,0-1.69,0,8.78,8.78,0,0,0-1.45,0,36.26,36.26,0,0,0-27.53,17.12l-3.26-4.91q-3.15-4.73-6.17-9.67A90.66,90.66,0,0,0,43.1,122c.11-.33.2-.66.28-1,.2-.69.36-1.37.52-2.06a64,64,0,0,0,1.37-28.21,1.51,1.51,0,0,0,0-.6,45.28,45.28,0,0,0-1.61-5.48,131.41,131.41,0,0,0-7-17.89L36.29,66a49.83,49.83,0,0,0-8.06-12.09A44.79,44.79,0,0,0,21.54,48c-.57-.45-1.42-1.13-2.42-1.86l-.45-.37A24.75,24.75,0,0,0,16,44.17a9.45,9.45,0,0,0-8.42,0A16.16,16.16,0,0,0,.33,55.94h0a3.42,3.42,0,0,0,0,.64A30.91,30.91,0,0,0,0,61v2.66c0,.23,0,.45,0,.68l.2,1.17a53.89,53.89,0,0,0,6,15.8c.28.57.6,1.13.84,1.7a2.31,2.31,0,0,1,.28.48L13.23,95c1.85,4,3.79,7.66,5.8,11.33a2.18,2.18,0,0,0,.28.52C21,110,22.7,113.05,24.47,116a104.48,104.48,0,0,1-4,12.09l-2.86,7.3c-.52,1.29-1,2.7-1.57,4a7.79,7.79,0,0,0-.32,1c-.33.85-.6,1.74-.89,2.66a81.75,81.75,0,0,0-4.31,32.69,5,5,0,0,0,0,.77v.88a47.28,47.28,0,0,0,9.23,24,1.68,1.68,0,0,0,.4.44,35.86,35.86,0,0,0,6.93,7.1A43.15,43.15,0,0,0,41,216.38h.56a52.53,52.53,0,0,0,17.17,2.18,69.21,69.21,0,0,0,28.7-8.06l.4.56.32.53c2.66,4,5.16,7.57,7.45,11.16a31.93,31.93,0,0,1,5,9.07,2.26,2.26,0,0,1,0,.52,19.77,19.77,0,0,1-2.26,18.74,15,15,0,0,1-13.62,5.28,11.59,11.59,0,0,1-4.47-1.49,12.63,12.63,0,0,1-4-3.26l-.32-.49a6.75,6.75,0,0,0-.73-1l-2.14,1.53h0c.27.36.55.71.85,1l.36.45a19.14,19.14,0,0,0,3.3,2.66h0l1.62.88a19.48,19.48,0,0,0,9.39,1.86,20.2,20.2,0,0,0,12.09-5,19,19,0,0,0,6-15.31,23.42,23.42,0,0,0-1.73-8.43,2.26,2.26,0,0,0,0-.52h0a79.51,79.51,0,0,0-4.88-8.5c-2.38-3.71-4.92-7.5-7.62-11.41l-.36-.52h0a65.83,65.83,0,0,0,18.18-17.61ZM23.35,104.42l-.29-.56C21.29,100.31,19.6,96.68,18,93a67.46,67.46,0,0,1-4.32-13.34v-.6A64.46,64.46,0,0,1,12.55,71c-.37-4.35-2.22-15.88,4.39-16.6,4-.44,6.89,4.31,8.3,7.53A52.13,52.13,0,0,1,28,70.45a3,3,0,0,1,0,.6,50.77,50.77,0,0,1,1.13,15.2c-.4,5-.93,9.83-1.66,14.63a1.94,1.94,0,0,1,0,.76c-.36,2.66-.8,5.32-1.33,8.06A59,59,0,0,1,23.35,104.42ZM58.77,210.18A42.69,42.69,0,0,1,51,209a1.52,1.52,0,0,1-.6,0,35,35,0,0,1-16.12-8.39,26.16,26.16,0,0,1-4.68-6.33,1.09,1.09,0,0,1-.32-.52,33.82,33.82,0,0,1-4-16.77,55,55,0,0,1,1.65-12.37,4.61,4.61,0,0,1,.25-1,92.38,92.38,0,0,1,4.67-13.94c.89-2.1,1.85-4.31,3.1-6.77l1.65-3.39c.4-.8.85-1.61,1.21-2.46l4.84,7.66L46,150l.4.57.49.76a36.29,36.29,0,0,0-3,21.16,39.09,39.09,0,0,0,2.46,8.06,4.11,4.11,0,0,0,.28.6,36.18,36.18,0,0,0,8.06,11.37,34.66,34.66,0,0,0,4.51,3.7l1.25,1.25a66.34,66.34,0,0,1-4-6.28,41.15,41.15,0,0,1-4.75-13.87,4.82,4.82,0,0,1,0-.76,26.14,26.14,0,0,1-.32-4.84,30,30,0,0,1,2-10.52l6.53,9.71.36.57L71.14,187.6c.89,1.33,1.78,2.62,2.7,4a1.6,1.6,0,0,0,.29.44c3.34,4.88,6.65,9.55,9.75,14.07A54.79,54.79,0,0,1,58.77,210.18Zm29.46-6.49c-3.3-4.72-6.81-9.55-10.4-14.59l-.32-.4-2.74-4c-3.67-5.08-7.46-10.36-11.24-15.8a2.35,2.35,0,0,1-.37-.52c-2.7-3.51-5.28-7.14-7.94-11.17a28.71,28.71,0,0,1,41.52-10l.56.36.4.24a31.26,31.26,0,0,1,13,17.46,8.63,8.63,0,0,0,.4,1.65,3,3,0,0,1,0,.6,27.55,27.55,0,0,1-5,21,51.18,51.18,0,0,1-17.81,15.16Z" transform="translate(0)"/><path id="Path_202" data-name="Path 202" class="cls-2" d="M786.1,114a1.94,1.94,0,0,1,.09,2.74l-.09.09a2,2,0,1,1,0-2.83Z" transform="translate(0)"/><path id="Path_203" data-name="Path 203" class="cls-2" d="M783.64,116.43a2.33,2.33,0,0,0,1.25.53,2.87,2.87,0,0,0,3.1-1.82,4.45,4.45,0,0,0-2.38-5c-2-1.53-4.31-3.1-6.81-4.92s-5.24-3.75-8.06-5.88a86.13,86.13,0,0,1-8.58-7.14l-2.22-2a12.11,12.11,0,0,1-2.13-2.5v-.2h0a2.67,2.67,0,0,0,0-.4,1.29,1.29,0,0,0-.28-.93,3.17,3.17,0,0,1,.56-2.58,1.75,1.75,0,0,1,1.49-.57,5.36,5.36,0,0,1,1.25.33,7.72,7.72,0,0,1,1.61.64,15.13,15.13,0,0,1,4.88,4.47,12.45,12.45,0,0,1,2.33,6.37,23.41,23.41,0,0,1,0,3.35,3.57,3.57,0,0,1,0,.8v.73a11.69,11.69,0,0,0,0,1.45,14.2,14.2,0,0,0,.12,5.2,6.11,6.11,0,0,0,3.23,3.67,7.69,7.69,0,0,0,5.12.2,10.88,10.88,0,0,0,7.17-7.09,5.42,5.42,0,0,0-.72-4.56,5.91,5.91,0,0,0-3.51-2.3,5.8,5.8,0,0,0-6.21,2.14,6,6,0,0,0-.64,5.32,7.59,7.59,0,0,0,2.22,3.14l1.16.89h-.36a5,5,0,0,1-1.05-.36,6.85,6.85,0,0,1-3.3-3,7,7,0,0,1,0-7,7.1,7.1,0,0,1,3.59-3,7,7,0,0,1,5,.24,7.62,7.62,0,0,1,4,3.47,7.5,7.5,0,0,1,.64,5.36,13.1,13.1,0,0,1-7.53,8.42,9.19,9.19,0,0,1-6.41.32,8.58,8.58,0,0,1-5-4.63,16.23,16.23,0,0,1-1.53-6.53V98a21.49,21.49,0,0,0,0-2.78,37.39,37.39,0,0,0-1.13-5.45,9.93,9.93,0,0,0-2.34-4c-.44-.48-1.29-1.17-2-.8s0,2.54.32,3.3A12,12,0,0,0,763,91.81a68.47,68.47,0,0,0,8.34,7.25c2.82,2.1,5.56,4,8.06,5.77s4.88,3.34,6.85,4.83a16.16,16.16,0,0,1,1.49,1.25,4.91,4.91,0,0,1,1,1.53,3.53,3.53,0,0,1-1.86,4.88,3.66,3.66,0,0,1-1.85.28,3.73,3.73,0,0,1-1.49-.48Z" transform="translate(0)"/><path id="Path_204" data-name="Path 204" class="cls-2" d="M262.26,122.88c-30.59,1.82-17.41-32-17.41-32-7.22,1.85-15.48,2.22-17.94-9.67-2.7-13,12.09-30.07-4-34.14,0,0,16.44-10,19,12.62,1.61,14.26-8.58,23.57,10.4,26C252.3,85.65,244,114.3,262.26,122.88Z" transform="translate(0)"/><path id="Path_205" data-name="Path 205" class="cls-2" d="M846.35,60.7c-22.08,4-48.36,17.81-77.1,35.46l-.93.6-.64.4c-.73.4-1.41.85-2.14,1.33-15.15,9.43-30.91,20-47,30.75l-.93.6-3.46,2.34c-20.15,13.46-40.5,27.16-60.74,39.62l-.68.4q-10.56,6.53-21,12.45l-.69.4c-7.73,4.31-15.4,8.42-23,12.09l-.92.44-.73.37c-29,14-53.44,21-74,21a70.28,70.28,0,0,1-7.26-.32,6.12,6.12,0,0,1-1.21,0,62.87,62.87,0,0,1-10.11-1.65c-2.74-.69-5.48-1.45-8.06-2.34l-1.61-.56c-37.53-12.78-72.11-45.38-108.3-80.6l-2.17-2.06L391.18,129l-6.45-6.25-.8-.77-1.05-1-4-3.7a608.3,608.3,0,0,0-73.27-62.94l-1.09-.77A235.53,235.53,0,0,0,225.7,16.6a265.45,265.45,0,0,0-47.68-7,5.72,5.72,0,0,0-1.17,0,4.87,4.87,0,0,0-1.08,0,216.5,216.5,0,0,0-22.21,0A319,319,0,0,0,19,46.27C12.1,49.81,5.81,53.36.25,56.7a3.42,3.42,0,0,1,0-.64C5.69,52.8,11.78,49.37,18.47,45.9A319.77,319.77,0,0,1,155,8.79c6.77-.2,13.7,0,20.72,0H178a262.55,262.55,0,0,1,47.71,7.33A237.37,237.37,0,0,1,304.53,53l1.09.76c3.35,2.34,6.73,4.76,10.12,7.3a677.41,677.41,0,0,1,63.71,55.86l3.83,3.7,1.13,1,.77.77,6.4,6.2c.49.45.93.93,1.42,1.33l2.13,2.1c36.27,35.27,71,68.19,108.53,81.21l1.62.56c2.9,1,5.84,1.82,8.78,2.54a73.89,73.89,0,0,0,9.68,1.66H525c22,2,48.76-4.84,81.29-20.6l.76-.32.89-.44c7.58-3.71,15.23-7.82,23-12.09l.69-.4c7-4,14-8.06,21-12.42l.68-.4c20.15-12.41,40.66-26.11,60.7-39.57l3.58-2.38.89-.6c16.12-10.84,32-21.4,47.19-30.87l1.74-1.09.64-.4,1.29-.81C798,78,824.31,64.5,846.36,60.19Z" transform="translate(0)"/><path id="Path_206" data-name="Path 206" class="cls-2" d="M867.87,73.67A144.88,144.88,0,0,0,833.05,83l-1.13.4-3.5,1.41-2.34,1c-3.19,1.37-6.41,2.82-9.67,4.39s-5.85,2.78-8.83,4.31c-7.66,4-15.43,8.06-23.29,12.82h0l-.57.32-.88.53-7.38,4.39c-16.64,10.12-33.57,21.32-50.42,32.65l-.88.6L714,152.62c-18.06,12.09-36.27,24.46-54.29,35.7-2.78,1.74-5.52,3.43-8.3,5.08q-6,3.69-12.09,7.13l-.52.33-.69.36c-3.18,1.85-6.36,3.63-9.51,5.32-4.8,2.62-9.55,5.08-14.31,7.42l-.72.4c-25.15,12.09-49.25,20.15-71.09,20.15a51.88,51.88,0,0,1-7.58-.37h-1.25a70.42,70.42,0,0,1-10.2-1.77c-2.69-.7-5.37-1.47-8.06-2.3l-1.61-.52a192.13,192.13,0,0,1-56.7-32.77l-1.29-1.05c-18.5-14.75-36.68-32.24-55.26-50.33L396,141l-5-4.83L380.18,125.9l-.77-.72-1.08-1.05-4-3.71a465.87,465.87,0,0,0-68.72-55.17l-1.09-.77a238.51,238.51,0,0,0-65.32-29,228.92,228.92,0,0,0-60.46-7.73h-1A248.5,248.5,0,0,0,145.5,30h-1.09a273.34,273.34,0,0,0-35.26,7.29,5.81,5.81,0,0,0-1.09.28h0l-.89.25A352.65,352.65,0,0,0,36.65,66.54c-2.95,1.53-5.8,3.1-8.59,4.67C23,74,18.19,76.85,13.63,79.68c-2.1,1.25-4,2.54-6.08,3.78A3.77,3.77,0,0,0,7.27,83c2-1.29,4-2.62,6.24-4,4.56-2.78,9.35-5.64,14.39-8.46q4-2.31,8.46-4.6a357.62,357.62,0,0,1,70.57-28.37,5.14,5.14,0,0,1,1.09-.28,4.79,4.79,0,0,1,1-.28c1.37-.4,2.78-.81,4-1.13a276.43,276.43,0,0,1,31.11-6.17h1.09a250.27,250.27,0,0,1,32.24-2.3h1.09a231.38,231.38,0,0,1,60.45,7.82,241.18,241.18,0,0,1,65.17,29l1.09.65c7.33,4.67,14.71,9.75,22.17,15.31a570.06,570.06,0,0,1,47.31,39.94l4,3.71,1.09,1a7.28,7.28,0,0,1,.8.77c3.59,3.35,7.14,6.77,10.68,10.16l5,4.83,4.48,4.48c18.42,17.81,36.27,35.22,54.65,49.85l1.29,1.05a192.71,192.71,0,0,0,56.42,32.88l1.65.57c2.86.92,5.76,1.77,8.67,2.5a67.47,67.47,0,0,0,9.79,1.69,7,7,0,0,0,1.29,0c23.78,2.26,50.54-6,78.67-19.79l.76-.36c4.84-2.34,9.68-4.88,14.59-7.58,3.07-1.65,6.13-3.38,9.23-5.16l.69-.4.4-.2,11.81-6.93c3-1.85,6-3.71,9.06-5.64,17.86-11.12,35.91-23.29,53.8-35.38l10.24-6.9.89-.64c16.56-11.12,33.21-22.17,49.61-32.24l3.83-2.34,4-2.38h0l.8-.44,1.74-1c7.5-4.35,14.91-8.46,22.24-12.09,3.27-1.65,6.53-3.27,9.76-4.76s6.36-2.94,9.51-4.23c.76-.36,1.57-.68,2.34-1L831.4,83l1.08-.45a150.78,150.78,0,0,1,35.23-9.39Z" transform="translate(0)"/><path id="Path_207" data-name="Path 207" class="cls-2" d="M889.27,86.69a160.24,160.24,0,0,0-43.2,9.76C843,97.54,840,98.7,836.84,100c-4.91,2-9.87,4-14.83,6.61a6.24,6.24,0,0,0-1,.49c-29.41,14-59.56,33.69-89.39,53.92l-12.93,8.79L716,171.57c-33.94,23.18-66,45.06-96.73,60.09A217.18,217.18,0,0,1,585,245.24l-1.17.33q-5.08,1.44-9.92,2.41l-1.21.25A102.29,102.29,0,0,1,553,250.28a79,79,0,0,1-19.79-2.42c-2.7-.68-5.4-1.45-8.06-2.3L523.5,245a199.33,199.33,0,0,1-61-35.43l-1.45-1.17-1.78-1.49a8.37,8.37,0,0,1-1.29-1.09c-3.71-3-7.41-6.16-11.08-9.43a16.24,16.24,0,0,1-1.37-1.25c-12.09-10.52-23.7-21.92-35.71-33.49-11.2-10.8-22.49-21.72-34.17-32.24h0l-.81-.73-1.05-.92h0l-.44-.37A390,390,0,0,0,306,77.22a1.7,1.7,0,0,0-.44-.24l-1.09-.65c-2.21-1.25-4.47-2.46-6.73-3.63a246.38,246.38,0,0,0-45-18.37C248.43,53,244,51.91,239.61,51h0c-4.24-.92-8.5-1.69-12.86-2.3a211.61,211.61,0,0,0-45.06-1.89h-1.85c-4,.29-8.3.69-12.5,1.21-6.44.81-12.93,1.86-19.5,3.19h-1.09a288.37,288.37,0,0,0-35,9.5l-1.09.37A377.66,377.66,0,0,0,45.31,90.84c-6,3.35-12.09,6.93-17.89,10.68l-4,2.62-3.79,2.45a2.12,2.12,0,0,1-.28-.51l3.78-2.5,4.48-2.83c5.48-3.42,11.4-7,17.65-10.51a397.82,397.82,0,0,1,37.92-19.1q13.91-6.06,27.49-10.73l1,0a302.49,302.49,0,0,1,35-9.55l1.09-.24c6.85-1.37,13.58-2.42,20.15-3.22,4-.49,8.06-.85,11.77-1.09h1.69A212.5,212.5,0,0,1,225.1,48c4.8.69,9.55,1.57,14.26,2.58s9.15,2.18,13.67,3.51a243.1,243.1,0,0,1,45.58,18.45c2,1,4,2.1,5.88,3.19l1.09.64.36.2A386.48,386.48,0,0,1,372.52,126a3.24,3.24,0,0,1,.53.45l1,.84,1.05.93h0l.85.72c11.69,10.6,23,21.57,34.3,32.25,12.09,11.6,23.86,23.05,35.83,33.69l.64.52c3.67,3.3,7.38,6.45,11.08,9.51a14.87,14.87,0,0,0,1.29,1.09l2.9,2.38,1.49,1.17A199,199,0,0,0,522.85,244l1.61.56c2.86.93,5.72,1.78,8.63,2.5a89.27,89.27,0,0,0,39,.45l1.25-.25c3.26-.64,6.57-1.41,9.91-2.38l1.21-.32c40.3-11.56,84.63-42,131.18-73.71l2.58-1.77,13.26-9c29.7-20.15,59.73-39.7,89-53.72l1-.49c5.11-2.45,10.23-4.71,15.31-6.77,3-1.25,6-2.38,9.07-3.46a160.8,160.8,0,0,1,43.28-9.76Z" transform="translate(0)"/><path id="Path_208" data-name="Path 208" class="cls-2" d="M910.83,99.66c-25.87.77-51.91,8.55-77.86,20.44-2.78,1.29-5.56,2.62-8.3,4-35.3,17.29-70.41,41.63-104.79,65.49C680.11,217.14,641.7,243.74,606.07,257l-3,1.13-4,1.37-1.17.36c-3.22,1.05-6.45,1.94-9.63,2.7a6.43,6.43,0,0,1-1.21.28,103.72,103.72,0,0,1-24.18,3,81,81,0,0,1-20.15-2.46,146.5,146.5,0,0,1-15.68-5q-5.75-2.18-11.32-4.83a233.85,233.85,0,0,1-49.09-31.92l-1.46-1.17-3.59-3-1.32-1.13c-2.79-2.34-5.53-4.75-8.06-7.25l-1.33-1.17-1.58-1.41-1.37-1.25c-9.47-8.59-18.9-17.65-28.21-26.84-12.09-11.61-24.18-23.34-36.95-34.58-.69-.65-1.33-1.25-2-1.82A348.48,348.48,0,0,0,298.25,85.6c-2.46-1.17-4.92-2.3-7.46-3.38a248.19,248.19,0,0,0-24.18-9,161,161,0,0,0-24.79-5.88q-6.47-1.09-13.06-1.66C173,60.45,109.31,80,43.13,122.28l-7.33,4.83c-1,.65-2.06,1.33-3.07,2.06-5.55,3.83-11.12,7.58-16.6,11.65a9.12,9.12,0,0,1,.32-1c4.84-3.51,10.2-7.3,16.13-11.2l3.06-2.1,8.06-5.2A450.41,450.41,0,0,1,95.37,92.7c48-22.33,92.69-31.6,133.52-27.65,4.39.4,8.7,1,13,1.73a172.2,172.2,0,0,1,24.75,5.76q12.09,4,23.53,8.83c2.9,1.25,5.8,2.54,8.63,4a349.33,349.33,0,0,1,81,55.29l2,1.78C394.81,154,407.3,166,419.63,177.93c9.35,9,18.58,17.86,27.85,26.32l1.37,1.29,2.66,2.34,1.29,1.17c2.38,2.13,4.8,4.23,7.21,6.28l1.33,1.13,4.72,4c.48.4,1,.85,1.49,1.21a230.61,230.61,0,0,0,48.32,31.36c3.75,1.77,7.58,3.38,11.45,4.83a145,145,0,0,0,15.47,5,90.83,90.83,0,0,0,43.69-.44l1.21-.29c3.18-.76,6.41-1.69,9.63-2.7l1.13-.36C636,247,677,218.52,719.36,189.14c34.5-23.86,69.64-48.37,104.78-65.49,2.9-1.46,5.76-2.83,8.67-4,25.91-11.85,51.91-19.63,77.78-20.4Z" transform="translate(0)"/><path id="Path_209" data-name="Path 209" class="cls-2" d="M932,112.08v.77h-.4c-70.73,0-139.52,46.67-200.74,89.67l-.89.64-5.64,4-1.61,1.13-.93.65c-21.56,15.19-42.36,29.74-62.47,41.79l-1.93,1.17c-2.34,1.41-4.68,2.74-7,4a6,6,0,0,1-1,.52c-5.32,3-10.6,5.85-15.84,8.38A188.77,188.77,0,0,1,602,277.32l-1.16.32a104.81,104.81,0,0,1-28.22,4A80.71,80.71,0,0,1,552,279.05c-34.06-8.95-61.78-28.21-88.26-51.34l-1.33-1.21L456.31,221,455,219.85l-4-3.51-1.37-1.29c-2.34-2.14-4.63-4.31-7-6.53l-.68-.64-13.43-12.82c-15.27-14.67-30.75-29.46-47.51-43.53l-4.52-3.66a353.73,353.73,0,0,0-29.9-22.49c-4-2.62-7.81-5.12-12.09-7.58a292.36,292.36,0,0,0-54.73-25.75,160.35,160.35,0,0,0-33.33-7.42,172.57,172.57,0,0,0-19-1.12c-45.3-.45-96.08,15.55-149.6,47.15q-14.07,8.06-28.22,18l-1.73,1.17-1.33.93q-9.91,6.4-19.75,13.82-8.05,5.92-16.12,12.33a4.82,4.82,0,0,1,0-.76c4.59-3.63,10-8.06,16.12-12.53S38.9,154.76,45.71,150l2.66-1.69.6-.4c8.42-5.68,17.57-11.61,27.37-17.41s19.18-10.92,29.5-16.12c43.74-21.69,84.32-32.25,121.35-31.88a167.34,167.34,0,0,1,53,9,289.85,289.85,0,0,1,54.93,25.84c4,2.46,8.06,5,12.09,7.58A357.68,357.68,0,0,1,377,147c1.65,1.29,3.26,2.66,4.87,4,16.73,14,32.24,28.82,47.4,43.45,4.48,4.27,8.91,8.54,13.3,12.7l1.25,1.2,6,5.57,1.37,1.29,4.87,4.43q.61.61,1.29,1.17c1.7,1.57,3.39,3.06,5.08,4.55l1.33,1.17c26.6,23.3,54.41,42.76,88.67,51.75a92.3,92.3,0,0,0,48.36-1.49l1.17-.32a220,220,0,0,0,47.6-20.8,6.46,6.46,0,0,0,.92-.53c2-1.08,4-2.25,6-3.42l2-1.21c20.55-12.09,41.75-27.05,63.35-42.24l.88-.64,1.74-1.21,5.56-4,.89-.6c30.3-21.36,61.66-43,94.06-59.73,39.25-20.15,74.24-30.15,107-30.15Z" transform="translate(0)"/><path id="Path_210" data-name="Path 210" class="cls-2" d="M953.39,124.94v.56H948a197.38,197.38,0,0,0-29.74,2.3L917,128h-1.69c-32.24,5.36-62.91,18.1-92.29,34.3l-1,.52q-10.64,6-21,12.09l-.92.56c-19.83,12.09-39,25.52-57.43,38.69l-.89.6-7.26,5.16-.84.65L732,221.82,730,223.31l-2.9,2.05c-17.61,12.62-34.62,24.79-51.18,35.3l-1,.65c-3.59,2.3-7.13,4.47-10.68,6.57l-1.49.92-1.73,1-.93.57c-6.21,3.62-12.37,7-18.46,9.95-22.2,11-41.43,16.12-59,16.12a80.07,80.07,0,0,1-20.15-2.54h-.81l-2.9-.8-5.8-1.78-1-.36-2-.64c-2.1-.73-4-1.46-6.2-2.26-35.15-13.54-62.79-36.92-90.28-62.75L452.05,224l-4.68-3.87L446.16,219l-8.06-7.5c-13.3-12.73-26.76-25.59-41.26-38l-1.09-.93a361.1,361.1,0,0,0-62.6-43.6l-1-.52a309.93,309.93,0,0,0-38.49-17.37A149.59,149.59,0,0,0,250.45,102c-2.7-.2-5.44-.28-8.06-.32-46.43-.93-94,17-136.5,40.82-2.94,1.66-5.85,3.35-8.71,5-11.69,6.86-23,14.15-33.65,21.52l-3.3,2.34c-2.9,2-5.73,4-8.55,6.09l-5.12,3.87q-8.82,6.49-17,12.9c-3.22,2.57-6.41,5.11-9.47,7.65a1.88,1.88,0,0,1-.4-.44q4.35-3.63,9.55-7.74c5.12-4,10.8-8.5,17-13.1l5.32-4,8.06-5.88,3.3-2.3c10.28-7.09,21.48-14.35,33.45-21.36q4.35-2.59,8.87-5.07c3-1.66,6.37-3.55,9.59-5.24a315.64,315.64,0,0,1,87.42-32.25,195.91,195.91,0,0,1,39.85-3.62,57,57,0,0,1,8.06.36,146.68,146.68,0,0,1,43.65,9.19,311.3,311.3,0,0,1,38.45,17.33l1,.52c43.16,23.3,74.68,53.44,105.39,82.82l8.34,8.06,1.21,1.13,3.54,3.38,1.37,1.29c27.65,26,55.42,49.54,90.68,63.12,2,.8,4,1.57,6.17,2.25l2,.69,1,.32c1.29.46,2.64.86,4,1.21s2.54.77,4,1.09l1,.28c23.09,6.17,48.36,1.89,79.68-13.54q9.06-4.47,18.38-9.91l1-.57,1.21-.68c.49-.28,1-.6,1.45-.85,3.63-2.22,7.3-4.47,11-6.81l1-.68c16.6-10.6,33.73-22.78,51.38-35.47l1.66-1.17,1.17-.85,3.74-2.7.89-.6,6.93-5.28.89-.6C761,201,780.09,187.7,799.88,175.52l.93-.56q5.61-3.51,11.28-6.77l7-4,2.62-1.45,1-.53c29.5-16.12,60.45-29,92.7-34.37h1.08a.28.28,0,0,1,.25,0l1.2-.2a192,192,0,0,1,30.19-2.38Z" transform="translate(0)"/><path id="Path_211" data-name="Path 211" class="cls-2" d="M974.79,138.07v.53c-3.58,0-7.17-.29-10.68-.29a216.4,216.4,0,0,0-34,2.7l-2.47.4a6.14,6.14,0,0,0-1,0c-6,1-12.09,2.3-18,3.79-1.13.28-2.3.57-3.43.93A323.4,323.4,0,0,0,835,174.78a5.39,5.39,0,0,1-1,.53q-10.63,5.83-21,12.09l-.93.6c-22.77,13.86-44.33,29.34-65.37,44.33l-.84.6-9.51,6.93c-22.57,16.45-44.05,32.25-64.49,44.58l-1,.56c-27.25,16.4-53,27.29-78.07,27.29a80.58,80.58,0,0,1-18-2l-3.47-.89c-1.13-.28-2.22-.6-3.3-1a182.71,182.71,0,0,1-18.5-6.37l-1.37.16-1.85-.81c-2.06-.84-4-1.77-6.17-2.7-33.05-15.35-58.76-38.48-84.84-63.23-.48-.4-.92-.85-1.37-1.29l-6.2-5.88c-9.51-9.11-19.15-18.3-29.22-27.29l-3.15-2.78c-3.34-3-6.77-5.92-10.23-8.87l-1-.84c-2.66-2.22-5.4-4.43-8.06-6.65l-1-.93a344.47,344.47,0,0,0-64.48-40.9l-1-.49c-7.09-3.42-14.51-6.69-22.33-9.79a140.85,140.85,0,0,0-49.25-9.86h-9.43a219.18,219.18,0,0,0-67.14,13.62,17,17,0,0,0-2.3.81c-4,1.37-7.78,2.9-11.77,4.51l-1,.4A403.83,403.83,0,0,0,123,160.52l-6.61,3.79c-1.73,1-3.51,2-5.24,3.1Q94.6,177.33,77.83,189.1c-1.25.84-2.45,1.69-3.7,2.62Q62.6,199.78,51,209c-3.14,2.5-6.32,5-9.47,7.57H41c3.14-2.54,6.29-5.08,9.43-7.5q11.73-9.25,23.45-17.57l3.67-2.57Q94.35,177.05,111.08,167l5.24-3.1,6.45-3.67a391.27,391.27,0,0,1,43.29-21.32l1-.4c3.63-1.53,7.18-2.9,10.72-4l2.5-.93h0a259.67,259.67,0,0,1,33.5-9.59,191.34,191.34,0,0,1,33.89-4.27h9.55a142.37,142.37,0,0,1,50.3,9.59c7.78,3.1,15.15,6.37,22.25,9.79a5.11,5.11,0,0,1,1,.49,340.86,340.86,0,0,1,64.49,40.86l1,.73c2.74,2.21,5.44,4.39,8.06,6.57l1,.88c2.78,2.3,5.48,4.64,8.06,7l4.72,4c10.4,9.27,20.15,18.67,30.06,28.22l5.6,5.32,1.37,1.33c26.2,24.9,52,48.36,85.24,63.6,2,1,4,1.89,6.13,2.74l1.85.76,1,.45a184.74,184.74,0,0,0,18.17,6.28l3.59,1.05,3.75.93c30.43,6.73,61.78-5,95.39-25.27l1-.56c20.59-12.5,42-28.22,64.48-44.58l10-6.93.85-.6c20.87-15.15,42.63-30.63,65.41-44.33l.92-.57q10.32-6.36,21-12.09l1-.52a326.31,326.31,0,0,1,69.16-28.5l6-1.53q8.34-2.06,16.85-3.5h1.93l1.21-.2a218.75,218.75,0,0,1,34.38-2.74A49,49,0,0,1,974.79,138.07Z" transform="translate(0)"/><path id="Path_212" data-name="Path 212" class="cls-2" d="M996.19,151.05v.53A239.53,239.53,0,0,0,941.83,154l-1.25.2a308.2,308.2,0,0,0-97.69,35.19l-5.32,3c-33.78,19-64.93,42.16-94.47,64.08-21.16,15.72-41.31,30.71-60.78,42.84h0l-.92.57c-3.79,2.37-7.58,4.63-11.33,6.77-23.25,13.13-45.54,21.6-67.46,21.6a81.4,81.4,0,0,1-21.89-3,207.42,207.42,0,0,1-34.62-12.93l-.92-.45-1.82-.88c-2.05-1-4-2.06-6.08-3.15-30.88-16.64-54.77-39.37-79.64-63a682.57,682.57,0,0,0-55-48.36,5.91,5.91,0,0,0-.85-.64,6.15,6.15,0,0,0-.8-.65c-2.3-1.73-4.64-3.5-7-5.24l-2.78-2h0l-.84-.6c-2.54-1.82-5.16-3.63-7.82-5.4a361.64,361.64,0,0,0-44.34-25.51l-1.16-.57h0q-4-2.05-8.59-4l-1-.44c-2-.89-4-1.77-6-2.62-44.13-18.66-93.46-10.32-140,9.22l-1,.45A478.66,478.66,0,0,0,92,209.13l-4,2.78-.32-.53c1.25-1,2.54-1.85,3.83-2.78,12.41-8.82,24.86-17,37.2-24.18A414.22,414.22,0,0,1,180,158l1-.4a278.74,278.74,0,0,1,43.25-14.39c36.27-8.58,68.88-6.93,97,5,2,.85,4,1.69,5.92,2.62a5.33,5.33,0,0,1,1,.44c3.1,1.37,6.16,2.79,9.15,4l1.13.53a354.33,354.33,0,0,1,44.33,25.39c2.74,1.85,5.44,3.71,8.06,5.6l.64.44.32.24,2.95,2.14c2.17,1.53,4.27,3.1,6.32,4.67l1.17.93.85.65a683.13,683.13,0,0,1,55.05,48.36c24.79,23.58,48.65,46.27,79.44,62.92l6.08,3.14,1.82.89,1,.44A204.11,204.11,0,0,0,581,324.52c29,8.06,58.4-1.17,89.43-18.87h0c3.59-2,7.18-4,10.8-6.4l.77-.49h0c19.47-12.09,39.66-27.16,60.86-42.92C772.24,234,803.27,210.9,837,191.92l6.41-3.54a327.15,327.15,0,0,1,74.16-30.07l1.13-.29q10.59-2.73,21.52-4.51h1.21a241.7,241.7,0,0,1,54.81-2.46Z" transform="translate(0)"/><path id="Path_213" data-name="Path 213" class="cls-2" d="M1017.59,164v.52c-112.2-9.39-194.53,53.08-267.24,107.93-50.1,37.84-94.34,71.46-138,71.46a81.28,81.28,0,0,1-22.25-3.07,225.47,225.47,0,0,1-22.53-7.53c-2.74-1-5.4-2.14-8.06-3.3-38-16.69-63.6-41-92.37-68.27-32.52-30.92-69.44-65.94-132.63-94.23-3.19-1.46-6.45-2.7-9.72-4h0c-41-14.07-86.89-4.68-129,13.21-5.32,2.3-10.64,4.72-15.84,7.22a470.41,470.41,0,0,0-52.92,30.31c-7.77,5.15-15.19,10.27-22.28,15.47-1.37,1-2.74,1.93-4,2.94-3.59,2.62-7.1,5.24-10.48,8.06-4.88,3.75-9.55,7.42-14.06,11.09l-1.94,1.53h0a1.13,1.13,0,0,1-.36-.45h0l2-1.57c4.51-3.63,9.23-7.33,14.11-11,3.42-2.66,7-5.32,10.6-8.06l4-2.94c7.09-5.16,14.46-10.28,22.09-15.28a472.63,472.63,0,0,1,53.15-30.63c5.24-2.53,10.44-4.91,15.56-7.09A292,292,0,0,1,230,163.91c35.27-10,66.95-10.28,94.35-1h0l.81.28h0c3.18,1.13,6.32,2.38,9.39,3.75a395.48,395.48,0,0,1,56.38,30.83l3.63,2.46a550.61,550.61,0,0,1,72.94,61.14c28.66,27.2,54.21,51.42,92.09,68.07,2.66,1.17,5.36,2.3,8.06,3.34a225.09,225.09,0,0,0,22.41,7.54c50.74,14.27,101.28-24.18,159.76-68.27,34.94-26.44,74.48-56.43,118.41-77.83C918.89,169.71,967.5,159.8,1017.59,164Z" transform="translate(0)"/></g></svg>