<svg xmlns="http://www.w3.org/2000/svg" width="1017.594" height="343.937" viewBox="0 0 1017.594 343.937">
  <g id="Layer_1" data-name="Layer 1" transform="translate(0 0)">
    <path id="Path_130" data-name="Path 130" d="M15.267,3.053A8.665,8.665,0,0,1,.073,9.783a8.665,8.665,0,0,1,15.194-6.73Z" transform="translate(290.394 72.675)" fill="#e5e7e6"/>
    <rect id="Rectangle_33" data-name="Rectangle 33" width="1.088" height="43.526" transform="translate(304.492 34.458)" fill="#e5e7e6"/>
    <path id="Path_131" data-name="Path 131" d="M12.79,1.045A8.665,8.665,0,0,1,1.1,12.894,8.665,8.665,0,0,1,12.79,1.045Z" transform="translate(717.331 156.697)" fill="#e5e7e6"/>
    <rect id="Rectangle_34" data-name="Rectangle 34" width="1.088" height="43.526" transform="translate(713.861 119.869) rotate(-21.59)" fill="#e5e7e6"/>
    <path id="Path_132" data-name="Path 132" d="M11.359.43a8.665,8.665,0,0,1-9.35,13.783A8.665,8.665,0,0,1,11.359.43Z" transform="translate(515.156 247.346)" fill="#e5e7e6"/>
    <path id="Path_133" data-name="Path 133" d="M28.841,46.416a.6.6,0,0,1-.484-.282L.146.875a.524.524,0,0,1,0-.725.564.564,0,0,1,.766,0L29.123,45.409a.564.564,0,0,1,0,.766Z" transform="translate(498.078 203.818)" fill="#e5e7e6"/>
    <path id="Path_134" data-name="Path 134" d="M22.155,9.272a.524.524,0,0,1-.524-.443c-1.088-5.4-7.456-5.521-11.446-5.521H8.9C3.575,3.307,1.762,2.461.15.929a.564.564,0,0,1,0-.766.484.484,0,0,1,.725,0c1.209,1.128,2.579,1.975,8.06,2.055h1.29c4.03,0,11.244,0,12.494,6.408a.564.564,0,0,1-.4.645Z" transform="translate(498.275 203.925)" fill="#e5e7e6"/>
    <path id="Path_135" data-name="Path 135" d="M22.151,9.218a.564.564,0,0,1-.524-.443C20.539,3.213,13.929,3.213,9.9,3.253H8.891c-5.32,0-7.133-.846-8.745-2.378a.524.524,0,0,1,0-.725.564.564,0,0,1,.766,0c1.169,1.169,2.539,2.015,8.06,2.1H9.98c4.03,0,11.486,0,12.776,6.408a.524.524,0,0,1-.4.645Z" transform="translate(507.871 219.133)" fill="#e5e7e6"/>
    <path id="Path_136" data-name="Path 136" d="M22.155,9.415a.6.6,0,0,1-.524-.443C20.543,3.289,13.893,3.289,9.9,3.289H8.936C3.616,3.289,1.8,2.443.15.912a.564.564,0,0,1,0-.766.524.524,0,0,1,.725,0c1.249,1.128,2.62,2.015,8.06,2.1H9.9c4.03,0,11.526,0,12.816,6.408a.524.524,0,0,1-.443.6Z" transform="translate(512.461 226.431)" fill="#e5e7e6"/>
    <path id="Path_137" data-name="Path 137" d="M22.151,9.272a.524.524,0,0,1-.524-.443C20.418,2.743,12.559,3.307,8.891,3.267c-5.32,0-7.133-.806-8.745-2.378a.524.524,0,0,1,0-.725.484.484,0,0,1,.726,0c1.249,1.169,2.579,2.015,8.06,2.1H9.979c4.03,0,11.486,0,12.735,6.408a.524.524,0,0,1-.443.645Z" transform="translate(502.954 211.26)" fill="#e5e7e6"/>
    <path id="Path_138" data-name="Path 138" d="M13.348.784c3.667,2.1,4.353,7.7,1.531,12.574A9.148,9.148,0,0,1,3.232,18.315c-3.627-2.1-4.312-7.7-1.491-12.534S9.681-1.312,13.348.784Z" transform="translate(179.75 173.039)" fill="#e5e7e6"/>
    <path id="Path_139" data-name="Path 139" d="M38.8,53.264a.645.645,0,0,1-.443,0L.146.871a.524.524,0,0,1,0-.725.524.524,0,0,1,.725,0L39.118,52.538a.564.564,0,0,1,0,.766Z" transform="translate(154.987 123.339)" fill="#e5e7e6"/>
    <path id="Path_140" data-name="Path 140" d="M27.7,9.342a.524.524,0,0,1-.524-.363c-1.854-6.771-10.035-6.166-14.912-5.8H11.1c-6.448.363-8.665-.4-10.761-2.1A.564.564,0,1,1,1.022.234c1.572,1.29,3.3,2.257,9.995,1.854h1.169C17.062,1.725,26.13,1.04,28.306,8.657a.524.524,0,0,1-.363.645Z" transform="translate(154.877 122.848)" fill="#e5e7e6"/>
    <path id="Path_141" data-name="Path 141" d="M27.5,9.154a.564.564,0,0,1-.524-.4C25.119,1.98,16.938,2.625,12.061,2.987H10.893c-6.408.4-8.665-.4-10.761-2.1a.564.564,0,0,1,0-.725A.524.524,0,0,1,.9.166C2.47,1.456,4.243,2.383,10.893,1.98h1.169C16.938,1.617,26.006.932,28.182,8.549a.524.524,0,0,1-.363.645Z" transform="translate(168.099 140.608)" fill="#e5e7e6"/>
    <path id="Path_142" data-name="Path 142" d="M27.5,9.154a.564.564,0,0,1-.524-.4c-1.854-6.73-9.995-6.126-14.912-5.763H10.893c-6.448.4-8.665-.4-10.761-2.1a.564.564,0,0,1,0-.725A.524.524,0,0,1,.9.166C2.51,1.456,4.243,2.383,10.893,1.98h1.169C16.938,1.617,26.006.932,28.182,8.549a.524.524,0,0,1-.363.645Z" transform="translate(161.409 131.54)" fill="#e5e7e6"/>
    <path id="Path_143" data-name="Path 143" d="M13.376.784a9.148,9.148,0,0,1,1.491,12.574c-2.781,4.877-8.06,7.093-11.647,5S-1.092,10.617,1.729,5.781,9.709-1.312,13.376.784Z" transform="translate(669.228 298.66)" fill="#e5e7e6"/>
    <path id="Path_144" data-name="Path 144" d="M38.8,53.55a.564.564,0,0,1-.443-.242L.15.916A.564.564,0,0,1,.15.15a.564.564,0,0,1,.766,0L39.122,52.542a.524.524,0,0,1,0,.725A.443.443,0,0,1,38.8,53.55Z" transform="translate(644.45 248.714)" fill="#e5e7e6"/>
    <path id="Path_145" data-name="Path 145" d="M27.511,9.151a.564.564,0,0,1-.524-.4C25.133,1.977,16.952,2.622,12.075,2.985H10.906c-6.448.4-8.665-.4-10.761-2.1a.524.524,0,0,1,0-.725.484.484,0,0,1,.725,0c1.572,1.29,3.3,2.217,9.995,1.854h1.169c4.836-.4,13.944-1.088,16.121,6.529a.484.484,0,0,1-.363.645Z" transform="translate(644.535 248.781)" fill="#e5e7e6"/>
    <path id="Path_146" data-name="Path 146" d="M27.472,9.116a.484.484,0,0,1-.484-.363c-1.894-6.771-10.075-6.166-14.952-5.8H10.867C4.419,3.353,2.2,2.587.107.894A.564.564,0,0,1,.792.048C2.4,1.338,4.137,2.3,10.787,1.9h1.169C16.832,1.539,25.9.854,28.076,8.471a.524.524,0,0,1-.363.645Z" transform="translate(657.672 266.267)" fill="#e5e7e6"/>
    <path id="Path_147" data-name="Path 147" d="M27.491,9.119a.524.524,0,0,1-.484-.363C25.113,1.986,16.972,2.59,12.1,2.953H10.887C4.479,3.356,2.222,2.59.166.9a.524.524,0,0,1,0-.766.564.564,0,0,1,.725,0C2.5,1.422,4.237,2.389,10.887,1.986H12.1C16.932,1.623,26,.938,28.216,8.555a.524.524,0,0,1-.363.645Z" transform="translate(650.882 257.196)" fill="#e5e7e6"/>
    <path id="Path_148" data-name="Path 148" d="M.095,8.119C-.59,4.734,2.513,1.268,7.027.381A7.456,7.456,0,0,1,16.377,4.9c.685,3.345-2.418,6.811-6.932,7.7A7.416,7.416,0,0,1,.095,8.119Z" transform="translate(333.173 114.439)" fill="#e5e7e6"/>
    <path id="Path_149" data-name="Path 149" d="M.42,43.543h0a.524.524,0,0,1-.4-.645L9.568.42a.524.524,0,0,1,.645-.4.564.564,0,0,1,.4.645L.944,43.14a.524.524,0,0,1-.524.4Z" transform="translate(324.465 120.123)" fill="#e5e7e6"/>
    <path id="Path_150" data-name="Path 150" d="M.545,15.881H.3A.484.484,0,0,1,.062,15.2c1.008-1.975,2.458-3.3,7.456-5.118l.927-.322C12.193,8.425,18.52,6.249,17.714.606a.564.564,0,0,1,.443-.6.564.564,0,0,1,.6.484c.927,6.489-6.166,8.947-9.995,10.277l-.887.322c-5.118,1.854-6.126,3.144-6.851,4.594a.6.6,0,0,1-.484.2Z" transform="translate(324.42 147.503)" fill="#e5e7e6"/>
    <path id="Path_151" data-name="Path 151" d="M6.792.137A6.166,6.166,0,1,1,.464,3.925,5.32,5.32,0,0,1,6.792.137Z" transform="translate(810.421 191.418)" fill="#e5e7e6"/>
    <rect id="Rectangle_35" data-name="Rectangle 35" width="1.088" height="30.871" transform="translate(795.867 171.366) rotate(-43.83)" fill="#e5e7e6"/>
    <path id="Path_152" data-name="Path 152" d="M6.753.128A6.166,6.166,0,1,1,.466,3.916,5.32,5.32,0,0,1,6.753.128Z" transform="translate(834.762 181.23)" fill="#e5e7e6"/>
    <rect id="Rectangle_36" data-name="Rectangle 36" width="1.088" height="30.871" transform="matrix(0.722, -0.692, 0.692, 0.722, 819.911, 160.85)" fill="#e5e7e6"/>
    <path id="Path_153" data-name="Path 153" d="M28.493,4.554,4.474,18.337,0,13.582,24.423,0Z" transform="translate(794.563 157.298)" fill="#e5e7e6"/>
    <path id="Path_154" data-name="Path 154" d="M6.215.875a4.03,4.03,0,0,1,0,5.4A3.627,3.627,0,0,1,1.057,6.8a4.03,4.03,0,0,1,0-5.441A3.587,3.587,0,0,1,6.215.875Z" transform="translate(376.664 143.97)" fill="#e5e7e6"/>
    <path id="Path_155" data-name="Path 155" d="M10.277,22.368,0,.443.967,0,11.244,21.924Z" transform="translate(372.28 124.331)" fill="#e5e7e6"/>
    <path id="Path_156" data-name="Path 156" d="M6.336.963a4.03,4.03,0,0,1,0,5.4,3.506,3.506,0,0,1-5.28.564,4.03,4.03,0,0,1,0-5.441A3.506,3.506,0,0,1,6.336.963Z" transform="translate(390.286 134.129)" fill="#e5e7e6"/>
    <path id="Path_157" data-name="Path 157" d="M10.277,22.368,0,.443.967,0,11.244,21.924Z" transform="translate(385.7 113.974)" fill="#e5e7e6"/>
    <path id="Path_158" data-name="Path 158" d="M2.338,15.557l14.952-10.8L15.033,0,0,10.6Z" transform="translate(371.031 112.16)" fill="#e5e7e6"/>
    <path id="Path_159" data-name="Path 159" d="M.645,10.761,0,9.874,13.9,0l.6.846Z" transform="translate(374.376 118.891)" fill="#e5e7e6"/>
    <path id="Path_160" data-name="Path 160" d="M6.225.3A5.32,5.32,0,0,1,8.24,7.393,4.594,4.594,0,1,1,6.225.3Z" transform="translate(824.006 114.077)" fill="#e5e7e6"/>
    <rect id="Rectangle_37" data-name="Rectangle 37" width="1.088" height="30.871" transform="translate(808.913 94.939) rotate(-45.05)" fill="#e5e7e6"/>
    <path id="Path_161" data-name="Path 161" d="M6.225.3A5.32,5.32,0,0,1,8.24,7.393,4.594,4.594,0,1,1,6.225.3Z" transform="translate(837.386 92.798)" fill="#e5e7e6"/>
    <rect id="Rectangle_38" data-name="Rectangle 38" width="1.088" height="30.871" transform="translate(821.613 73.071) rotate(-45.01)" fill="#e5e7e6"/>
    <path id="Path_162" data-name="Path 162" d="M4.957,28.171,19.345,4.756,14.589,0,0,23.254Z" transform="translate(806.452 70.125)" fill="#e5e7e6"/>
    <rect id="Rectangle_39" data-name="Rectangle 39" width="11.486" height="1.612" transform="matrix(0.474, -0.881, 0.881, 0.474, 823.916, 89.858)" fill="#e5e7e6"/>
    <path id="Path_163" data-name="Path 163" d="M5.323.028A5.32,5.32,0,0,1,8.95,6.436c-.4,3.264-2.7,5.6-5.118,5.32A5.36,5.36,0,0,1,.164,5.308C.728,2.2,2.9-.294,5.323.028Z" transform="translate(559.479 324.241)" fill="#e5e7e6"/>
    <rect id="Rectangle_40" data-name="Rectangle 40" width="1.088" height="30.871" transform="matrix(0.519, -0.855, 0.855, 0.519, 539.443, 310.54)" fill="#e5e7e6"/>
    <path id="Path_164" data-name="Path 164" d="M5.324.029A5.32,5.32,0,0,1,8.951,6.437c-.443,3.224-2.741,5.6-5.159,5.28A5.32,5.32,0,0,1,.166,5.309C.569,2.085,2.906-.293,5.324.029Z" transform="translate(567.337 300.421)" fill="#e5e7e6"/>
    <rect id="Rectangle_41" data-name="Rectangle 41" width="1.088" height="30.871" transform="matrix(0.519, -0.855, 0.855, 0.519, 546.525, 286.197)" fill="#e5e7e6"/>
    <path id="Path_165" data-name="Path 165" d="M5.965,29.662l8.423-26.2L8.665,0,0,26.035Z" transform="translate(536.631 283.484)" fill="#e5e7e6"/>
    <rect id="Rectangle_42" data-name="Rectangle 42" width="25.471" height="1.088" transform="matrix(0.313, -0.95, 0.95, 0.313, 544.514, 313.495)" fill="#e5e7e6"/>
    <path id="Path_166" data-name="Path 166" d="M15.918,2.927a8.06,8.06,0,0,1-4.353,10.237A8.06,8.06,0,0,1,.523,11.874,8.06,8.06,0,0,1,4.835,1.637,8.06,8.06,0,0,1,15.918,2.927Z" transform="translate(98.067 72.035)" fill="#e5e7e6"/>
    <path id="Path_167" data-name="Path 167" d="M5.078,46.468,0,.121,1.088,0,6.166,46.347Z" transform="translate(107.295 30.589)" fill="#e5e7e6"/>
    <path id="Path_168" data-name="Path 168" d="M15.993,2.946A8.06,8.06,0,0,1,11.6,13.223,8.06,8.06,0,0,1,.517,11.893,8.06,8.06,0,0,1,4.87,1.656a8.06,8.06,0,0,1,11.123,1.29Z" transform="translate(133.498 58.112)" fill="#e5e7e6"/>
    <path id="Path_169" data-name="Path 169" d="M5.078,46.428,0,.081,1.088,0,6.166,46.307Z" transform="translate(142.962 16.766)" fill="#e5e7e6"/>
    <path id="Path_170" data-name="Path 170" d="M15.866,2.871a8.06,8.06,0,0,1-4.272,10.237A8.06,8.06,0,0,1,.511,11.818,8.06,8.06,0,0,1,4.9,1.581a8.06,8.06,0,0,1,10.962,1.29Z" transform="translate(165.745 43.718)" fill="#e5e7e6"/>
    <rect id="Rectangle_43" data-name="Rectangle 43" width="1.088" height="46.629" transform="translate(175.017 2.604) rotate(-6.23)" fill="#e5e7e6"/>
    <path id="Path_171" data-name="Path 171" d="M1.088,38.166,72.3,11.325,71.093,0,0,28.373Z" transform="translate(105.925 0)" fill="#e5e7e6"/>
    <path id="Path_172" data-name="Path 172" d="M10.081.732A6.972,6.972,0,0,1,.973,10.525,6.972,6.972,0,0,1,10.081.732Z" transform="translate(606.549 217.14)" fill="#e5e7e6"/>
    <path id="Path_173" data-name="Path 173" d="M13.783,32.443,0,.322.766,0,14.549,32.121Z" transform="translate(602.081 187.283)" fill="#e5e7e6"/>
    <path id="Path_174" data-name="Path 174" d="M10.354.987A6.932,6.932,0,0,1,1.286,10.78a6,6,0,0,1,.846-8.3A6.086,6.086,0,0,1,10.354.987Z" transform="translate(628.644 199.112)" fill="#e5e7e6"/>
    <path id="Path_175" data-name="Path 175" d="M13.783,32.443,0,.322.725,0,14.509,32.121Z" transform="translate(624.65 169.55)" fill="#e5e7e6"/>
    <path id="Path_176" data-name="Path 176" d="M9.863.7a6.005,6.005,0,0,1-.846,8.3A6.126,6.126,0,0,1,.957,10.5,6.972,6.972,0,0,1,10.025.7Z" transform="translate(648.963 182.025)" fill="#e5e7e6"/>
    <path id="Path_177" data-name="Path 177" d="M13.783,32.4,0,.282.725,0,14.509,32.121Z" transform="translate(644.479 152.301)" fill="#e5e7e6"/>
    <path id="Path_178" data-name="Path 178" d="M2.9,42.68,48.08,7.859,44.735,0,0,35.909Z" transform="translate(600.59 150.326)" fill="#e5e7e6"/>
    <path id="Path_179" data-name="Path 179" d="M11.329,2.161a6.493,6.493,0,1,1-9.169-.5,6.493,6.493,0,0,1,9.169.5Z" transform="translate(898.739 133.294)" fill="#e5e7e6"/>
    <path id="Path_180" data-name="Path 180" d="M39.5,33.3,11.607,2.229A18.136,18.136,0,0,1,9.068,15.851,12.292,12.292,0,0,1,0,20.365V19.277a11.2,11.2,0,0,0,8.343-4.03A18.5,18.5,0,0,0,10.4.7a.611.611,0,0,1,.927-.6L40.383,32.335Z" transform="translate(904.749 125.044)" fill="#e5e7e6"/>
    <path id="Path_181" data-name="Path 181" d="M11.329,2.161a6.493,6.493,0,1,1-9.169-.5,6.493,6.493,0,0,1,9.169.5Z" transform="translate(909.863 145.667)" fill="#e5e7e6"/>
    <path id="Path_182" data-name="Path 182" d="M0,19.627V18.579a11.2,11.2,0,0,0,8.343-4.03A18.5,18.5,0,0,0,10.4,0h1.048A19.667,19.667,0,0,1,9.068,14.992,12.091,12.091,0,0,1,0,19.627Z" transform="translate(915.872 138.155)" fill="#e5e7e6"/>
    <path id="Path_183" data-name="Path 183" d="M9.532,1.994A5.36,5.36,0,1,1,2,1.188,5.36,5.36,0,0,1,9.532,1.994Z" transform="translate(381.408 178.961)" fill="#e5e7e6"/>
    <path id="Path_184" data-name="Path 184" d="M31.838,28.872,10.438,2.353a15.073,15.073,0,0,1-2.7,10.882A10.277,10.277,0,0,1,0,16.579V15.491a8.987,8.987,0,0,0,6.932-2.942A15.234,15.234,0,0,0,9.189.66.564.564,0,0,1,9.552.1a.524.524,0,0,1,.6,0L32.645,27.985Z" transform="translate(386.265 172.638)" fill="#e5e7e6"/>
    <path id="Path_185" data-name="Path 185" d="M9.415,2A5.28,5.28,0,0,1,8.77,9.5,5.36,5.36,0,1,1,9.536,2Z" transform="translate(390.23 189.636)" fill="#e5e7e6"/>
    <path id="Path_186" data-name="Path 186" d="M0,15.879V14.791a9.269,9.269,0,0,0,6.972-2.942A15.274,15.274,0,0,0,9.269,0h1.048A16.121,16.121,0,0,1,7.778,12.655,10.357,10.357,0,0,1,0,15.879Z" transform="translate(394.97 183.817)" fill="#e5e7e6"/>
    <path id="Path_187" data-name="Path 187" d="M32.121,33.773,0,.766.766,0,32.886,33.007Z" transform="translate(571.855 246.769)" fill="#e5e7e6"/>
    <path id="Path_188" data-name="Path 188" d="M32.121,33.773,0,.766.766,0,32.886,33.007Z" transform="translate(571.855 246.769)" fill="#e5e7e6"/>
    <path id="Path_189" data-name="Path 189" d="M32.121,33.733,0,.725.766,0,32.886,33.007Z" transform="translate(576.208 237.136)" fill="#e5e7e6"/>
    <path id="Path_190" data-name="Path 190" d="M.524,13.461,0,12.494,23.818,0,24.3.967Z" transform="translate(575.361 246.97)" fill="#e5e7e6"/>
    <rect id="Rectangle_44" data-name="Rectangle 44" width="26.881" height="1.088" transform="matrix(0.884, -0.468, 0.468, 0.884, 581.803, 269.119)" fill="#e5e7e6"/>
    <rect id="Rectangle_45" data-name="Rectangle 45" width="26.881" height="1.088" transform="matrix(0.884, -0.468, 0.468, 0.884, 581.803, 269.119)" fill="#e5e7e6"/>
    <rect id="Rectangle_46" data-name="Rectangle 46" width="1.048" height="46.065" transform="translate(445.549 195.163) rotate(-12.38)" fill="#e5e7e6"/>
    <rect id="Rectangle_47" data-name="Rectangle 47" width="1.048" height="46.065" transform="translate(445.549 195.163) rotate(-12.38)" fill="#e5e7e6"/>
    <rect id="Rectangle_48" data-name="Rectangle 48" width="1.048" height="46.025" transform="translate(454.311 189.266) rotate(-12.38)" fill="#e5e7e6"/>
    <path id="Path_191" data-name="Path 191" d="M26.8,2.982,0,1.048.081,0l26.8,1.894Z" transform="translate(442.123 207.192)" fill="#e5e7e6"/>
    <path id="Path_192" data-name="Path 192" d="M26.8,2.982,0,1.088.081,0l26.8,1.934Z" transform="translate(442.486 218.718)" fill="#e5e7e6"/>
    <path id="Path_193" data-name="Path 193" d="M26.8,2.982,0,1.088.081,0l26.8,1.934Z" transform="translate(442.486 218.718)" fill="#e5e7e6"/>
    <path id="Path_194" data-name="Path 194" d="M32.08,33.773,0,.725.766,0l32.08,33.007Z" transform="translate(716.781 202.759)" fill="#e5e7e6"/>
    <path id="Path_195" data-name="Path 195" d="M32.08,33.773,0,.725.766,0l32.08,33.007Z" transform="translate(716.781 202.759)" fill="#e5e7e6"/>
    <path id="Path_196" data-name="Path 196" d="M32.08,33.733,0,.766.766,0l32.08,33.007Z" transform="translate(721.133 193.086)" fill="#e5e7e6"/>
    <path id="Path_197" data-name="Path 197" d="M.484,13.421,0,12.494,23.738,0l.524.927Z" transform="translate(720.287 202.96)" fill="#e5e7e6"/>
    <path id="Path_198" data-name="Path 198" d="M.484,13.461,0,12.494,23.738,0l.524.927Z" transform="translate(726.695 212.552)" fill="#e5e7e6"/>
    <path id="Path_199" data-name="Path 199" d="M.484,13.461,0,12.494,23.738,0l.524.927Z" transform="translate(726.695 212.552)" fill="#e5e7e6"/>
    <path id="Path_200" data-name="Path 200" d="M14.11,19.8a6.489,6.489,0,0,1-1.169.363,9.995,9.995,0,0,1-7.013-.524h0a10.116,10.116,0,0,1-3.385-2.579,1.249,1.249,0,0,1-.363-.443,5.078,5.078,0,0,1-.766-1.128h0a6.77,6.77,0,0,1-.6-1.209A10.277,10.277,0,0,1,18.382,3.958a1.653,1.653,0,0,1,.282.443,9.068,9.068,0,0,1,1.169,2.015A10.317,10.317,0,0,1,14.11,19.8Z" transform="translate(71.663 236.202)" fill="#e5e7e6"/>
    <path id="Path_201" data-name="Path 201" d="M74.771,141.687c-3.667-5.078-7.456-10.358-11.244-15.8l-3.3,2.338,10.922,16.121c.887,1.33,1.773,2.62,2.7,4.03l3.667-2.579ZM51.678,134.15l-5.118,4.03a36.272,36.272,0,0,0,8.06,11.365,34.982,34.982,0,0,0,4.514,3.708l1.33,1.048a66.02,66.02,0,0,1-4.03-6.287A41.229,41.229,0,0,1,51.678,134.15Zm58.438,13.662a38.529,38.529,0,0,0,6.287-26.841s0-.2,0-.322v-.282a40.3,40.3,0,0,0-10.438-21.2l-.4-.4c-.6-.685-1.249-1.29-1.894-1.894a36.272,36.272,0,0,0-24.181-9.834,11.606,11.606,0,0,0-1.693,0,8.743,8.743,0,0,0-1.451,0,36.272,36.272,0,0,0-27.526,17.128l-3.264-4.917q-3.144-4.715-6.166-9.672a91.645,91.645,0,0,0,3.708-10.761,9.393,9.393,0,0,0,.282-1.008c.2-.685.363-1.37.524-2.055a64.2,64.2,0,0,0,1.37-28.211,1.612,1.612,0,0,0,0-.6,46.387,46.387,0,0,0-1.612-5.481,133,133,0,0,0-7.013-17.894l-.363-.725a49.49,49.49,0,0,0-8.06-12.091,45.058,45.058,0,0,0-6.69-5.924c-.564-.443-1.411-1.128-2.418-1.854L18.671,2.6A24.5,24.5,0,0,0,16.011.993a9.431,9.431,0,0,0-8.423,0A16.121,16.121,0,0,0,.334,12.761h0a3.547,3.547,0,0,0,0,.645A30.71,30.71,0,0,0,.011,17.8c0,.967,0,1.531,0,2.136v.524a5.239,5.239,0,0,0,0,.685l.2,1.169a53.844,53.844,0,0,0,5.965,15.8c.282.564.6,1.128.846,1.693a3.023,3.023,0,0,1,.282.484L13.23,51.854c1.854,4.03,3.788,7.657,5.8,11.325a2.176,2.176,0,0,0,.282.524c1.652,3.1,3.385,6.166,5.159,9.149a105.631,105.631,0,0,1-4.03,12.091l-2.861,7.295c-.524,1.29-1.048,2.7-1.572,4.03a8.06,8.06,0,0,0-.322,1.048c-.322.846-.6,1.733-.887,2.66a81.853,81.853,0,0,0-4.312,32.685,4.876,4.876,0,0,0,0,.766v.887a47.4,47.4,0,0,0,9.229,24.02,2.1,2.1,0,0,0,.4.443,36.272,36.272,0,0,0,6.932,7.093,43.2,43.2,0,0,0,13.9,7.335h.564a52.634,52.634,0,0,0,17.169,2.176,69,69,0,0,0,28.695-8.06l.4.564.322.524c2.66,4.03,5.159,7.577,7.456,11.164a32,32,0,0,1,4.957,9.068,2.62,2.62,0,0,1,0,.524,19.788,19.788,0,0,1-2.257,18.74,15.073,15.073,0,0,1-13.622,5.279,11.688,11.688,0,0,1-4.474-1.491,12.7,12.7,0,0,1-4.03-3.264l-.322-.484c-.443-.645-.645-1.048-.725-1.048l-2.136,1.531h0a10.852,10.852,0,0,0,.846,1.048l.363.443a18.619,18.619,0,0,0,3.3,2.66h0l1.612.887a19.506,19.506,0,0,0,9.39,1.854,20.151,20.151,0,0,0,12.091-5.038,19.063,19.063,0,0,0,5.965-15.315,23.577,23.577,0,0,0-1.733-8.423,2.015,2.015,0,0,0,0-.524h0a79.155,79.155,0,0,0-4.877-8.5c-2.378-3.708-4.917-7.5-7.617-11.405l-.363-.524h0a65.854,65.854,0,0,0,18.176-17.612ZM23.346,61.244l-.282-.564c-1.773-3.547-3.466-7.174-5.118-10.841A66.942,66.942,0,0,1,13.633,36.5v-.6a65.291,65.291,0,0,1-1.088-8.06c-.363-4.353-2.217-15.879,4.393-16.6,4.03-.443,6.892,4.312,8.3,7.536a52.393,52.393,0,0,1,2.781,8.5,3.345,3.345,0,0,1,0,.6,50.659,50.659,0,0,1,1.128,15.194c-.4,4.957-.927,9.834-1.652,14.63a2.338,2.338,0,0,1,0,.766c-.363,2.66-.806,5.32-1.33,8.06C25.16,64.831,24.192,63.058,23.346,61.244ZM58.771,167a42.234,42.234,0,0,1-7.778-1.209,1.613,1.613,0,0,1-.6,0A34.982,34.982,0,0,1,34.268,157.4a26.156,26.156,0,0,1-4.675-6.327,1.048,1.048,0,0,1-.322-.524,33.692,33.692,0,0,1-4.03-16.766,54.972,54.972,0,0,1,1.652-12.373,4.231,4.231,0,0,1,.242-.967A92.9,92.9,0,0,1,31.809,106.5c.887-2.1,1.854-4.312,3.1-6.771l1.652-3.385c.4-.806.846-1.612,1.209-2.458l4.836,7.657,3.426,5.28.4.564.484.766A36.272,36.272,0,0,0,43.9,129.314a39.5,39.5,0,0,0,2.458,8.06,4.028,4.028,0,0,0,.282.6,36.271,36.271,0,0,0,8.06,11.365,34.982,34.982,0,0,0,4.514,3.708l1.249,1.249a66.02,66.02,0,0,1-4.03-6.287,41.229,41.229,0,0,1-4.756-13.864,4.957,4.957,0,0,1,0-.766,26.84,26.84,0,0,1-.322-4.836,30.065,30.065,0,0,1,1.975-10.519l6.529,9.713.363.564,10.922,16.121c.887,1.33,1.773,2.62,2.7,4.03a1.653,1.653,0,0,0,.282.443c3.345,4.877,6.65,9.552,9.753,14.065A54.77,54.77,0,0,1,58.771,167Zm29.461-6.489c-3.3-4.715-6.811-9.552-10.4-14.589l-.322-.4-2.741-4.03c-3.667-5.078-7.456-10.358-11.244-15.8a2.418,2.418,0,0,1-.363-.524c-2.7-3.506-5.28-7.133-7.939-11.164A28.655,28.655,0,0,1,96.736,104l.564.363.4.242A31.234,31.234,0,0,1,110.68,122.06a8.948,8.948,0,0,0,.4,1.652,3.1,3.1,0,0,1,0,.6,27.566,27.566,0,0,1-5.038,21.038A51.183,51.183,0,0,1,88.232,160.508Z" transform="translate(0 43.178)" fill="#e5e7e6"/>
    <path id="Path_202" data-name="Path 202" d="M3.357.564a1.934,1.934,0,0,1,0,2.821,1.975,1.975,0,1,1,0-2.821Z" transform="translate(782.743 113.41)" fill="#e5e7e6"/>
    <path id="Path_203" data-name="Path 203" d="M26.187,33.382a2.3,2.3,0,0,0,1.249.524,2.861,2.861,0,0,0,3.1-1.814,4.473,4.473,0,0,0-2.378-4.957c-1.975-1.531-4.312-3.1-6.811-4.917s-5.239-3.748-8.06-5.884A85.606,85.606,0,0,1,4.706,9.2L2.49,7.185a11.807,11.807,0,0,1-2.136-2.5v-.2h0a2.8,2.8,0,0,0,0-.4,1.251,1.251,0,0,0-.282-.927A3.184,3.184,0,0,1,.636.576,1.733,1.733,0,0,1,2.127.012,5.52,5.52,0,0,1,3.376.334,8.06,8.06,0,0,1,4.988.979,15.154,15.154,0,0,1,9.865,5.452,12.494,12.494,0,0,1,12.2,11.82a23.149,23.149,0,0,1,0,3.345,4.829,4.829,0,0,1,0,.806V16.7a10.034,10.034,0,0,0,0,1.451,14.027,14.027,0,0,0,.121,5.2,6.086,6.086,0,0,0,3.224,3.667,7.657,7.657,0,0,0,5.118.2,10.882,10.882,0,0,0,7.174-7.093,5.4,5.4,0,0,0-.725-4.554,5.884,5.884,0,0,0-3.506-2.3A5.8,5.8,0,0,0,17.4,15.407a5.965,5.965,0,0,0-.645,5.32,7.7,7.7,0,0,0,2.217,3.144l1.169.887h-.363a4.635,4.635,0,0,1-1.048-.363,6.852,6.852,0,0,1-3.3-2.982,6.972,6.972,0,0,1,0-7.053,7.133,7.133,0,0,1,3.587-2.982,7.012,7.012,0,0,1,5.038.242,7.617,7.617,0,0,1,4.03,3.466,7.5,7.5,0,0,1,.645,5.36,13.1,13.1,0,0,1-7.536,8.423,9.189,9.189,0,0,1-6.408.322,8.584,8.584,0,0,1-5-4.635,16.12,16.12,0,0,1-1.531-6.529v-3.1a20.8,20.8,0,0,0,0-2.781A36.265,36.265,0,0,0,7.124,6.7a9.913,9.913,0,0,0-2.338-4.03C4.344,2.188,3.5,1.5,2.772,1.866s0,2.539.322,3.3A12.092,12.092,0,0,0,5.512,8.757a68.878,68.878,0,0,0,8.343,7.254c2.821,2.1,5.562,4.03,8.06,5.763s4.877,3.345,6.851,4.836a15.283,15.283,0,0,1,1.491,1.249,4.8,4.8,0,0,1,1.007,1.531,4.03,4.03,0,0,1,0,3.184,4.03,4.03,0,0,1-1.854,1.693,3.587,3.587,0,0,1-1.854.282,3.667,3.667,0,0,1-1.491-.484Z" transform="translate(757.454 83.051)" fill="#e5e7e6"/>
    <path id="Path_204" data-name="Path 204" d="M39.375,78.035c-30.589,1.814-17.41-32.04-17.41-32.04C14.75,47.849,6.489,48.212,4.03,36.322,1.33,23.345,16.121,6.257,0,2.187c0,0,16.443-9.955,19.022,12.614,1.612,14.267-8.584,23.577,10.4,25.995C29.42,40.8,21.078,69.451,39.375,78.035Z" transform="translate(222.881 44.846)" fill="#e5e7e6"/>
    <path id="Path_205" data-name="Path 205" d="M846.113,52c-22.085,4.03-48.362,17.813-77.1,35.466l-.927.6-.645.4c-.725.4-1.411.846-2.136,1.33-15.154,9.431-30.912,19.949-46.992,30.75l-.927.6-3.466,2.338c-20.151,13.461-40.5,27.163-60.735,39.617l-.685.4q-10.559,6.529-21.038,12.453l-.685.4c-7.738,4.312-15.4,8.423-22.972,12.091l-.927.443-.725.363c-29.017,14.025-53.44,20.957-74.035,20.957a71.73,71.73,0,0,1-7.254-.322,6.165,6.165,0,0,1-1.209,0,63.07,63.07,0,0,1-10.116-1.652c-2.74-.685-5.481-1.451-8.06-2.338l-1.612-.564c-37.521-12.776-72.1-45.38-108.291-80.6l-2.176-2.055-2.458-2.418-6.448-6.247-.806-.766-1.048-1.048-4.03-3.708A607.711,607.711,0,0,0,305.342,45.55l-1.088-.766a235.443,235.443,0,0,0-78.79-36.876A264.863,264.863,0,0,0,177.786.936a5.562,5.562,0,0,0-1.169,0,4.957,4.957,0,0,0-1.088,0,214.791,214.791,0,0,0-22.206,0A318.949,318.949,0,0,0,18.755,37.57C11.863,41.117,5.576,44.663.015,48.009a3.547,3.547,0,0,1,0-.645c5.441-3.264,11.526-6.69,18.216-10.156A319.8,319.8,0,0,1,154.734.09c6.771-.2,13.7,0,20.715,0h2.3a262.971,262.971,0,0,1,47.717,7.335A237.379,237.379,0,0,1,304.294,44.26l1.088.766c3.345,2.338,6.73,4.756,10.116,7.295a679.608,679.608,0,0,1,63.717,55.858l3.829,3.708,1.128,1.048.766.766,6.408,6.206c.484.443.927.927,1.411,1.33l2.136,2.1c36.272,35.264,71.012,68.191,108.533,81.208l1.612.564c2.9.967,5.844,1.814,8.786,2.539A73.349,73.349,0,0,0,523.5,209.3h1.29c22,1.975,48.765-4.836,81.289-20.594l.766-.322.887-.443c7.577-3.708,15.234-7.819,22.972-12.091l.685-.4c6.972-4.03,13.985-8.06,21.038-12.413l.685-.4c20.151-12.413,40.665-26.116,60.695-39.576l3.587-2.378.887-.6c16.121-10.841,31.959-21.4,47.194-30.871l1.733-1.088.645-.4,1.29-.806c28.614-17.612,54.931-31.113,76.977-35.425Z" transform="translate(0.238 8.696)" fill="#e5e7e6"/>
    <path id="Path_206" data-name="Path 206" d="M860.607,46.309a144.682,144.682,0,0,0-34.821,9.31l-1.129.4-3.506,1.411-2.338.967c-3.184,1.37-6.408,2.821-9.672,4.393s-5.844,2.781-8.826,4.312c-7.657,4.03-15.436,8.06-23.294,12.816h0l-.564.322-.887.524-7.375,4.393c-16.645,10.116-33.572,21.32-50.418,32.645l-.887.6-10.156,6.851c-18.055,12.091-36.272,24.463-54.287,35.707-2.781,1.733-5.521,3.426-8.3,5.078q-6.045,3.688-12.091,7.133l-.524.322-.685.363c-3.184,1.854-6.368,3.627-9.511,5.32-4.8,2.62-9.552,5.078-14.307,7.416l-.725.4c-25.148,12.091-49.249,20.151-71.093,20.151a52.443,52.443,0,0,1-7.577-.363h-1.249a71.89,71.89,0,0,1-10.2-1.773q-4.03-1.048-8.06-2.3l-1.612-.524a192.241,192.241,0,0,1-56.7-32.765l-1.29-1.048c-18.5-14.751-36.675-32.242-55.254-50.337l-4.554-4.353-5.038-4.836L372.914,98.54l-.766-.725-1.088-1.048-4.03-3.708a465.731,465.731,0,0,0-68.715-55.173l-1.088-.766A238.424,238.424,0,0,0,231.9,8.1,229.157,229.157,0,0,0,171.444.364h-.967a249.3,249.3,0,0,0-32.242,2.3h-1.088a274.58,274.58,0,0,0-35.264,7.295,5.4,5.4,0,0,0-1.088.282h0l-.887.242A353.486,353.486,0,0,0,29.38,39.175c-2.942,1.531-5.8,3.1-8.584,4.675-5.078,2.821-9.874,5.642-14.428,8.463-2.1,1.249-4.03,2.539-6.086,3.788A3.023,3.023,0,0,0,0,55.618c2.015-1.29,4.03-2.62,6.247-4.03,4.554-2.781,9.35-5.642,14.388-8.463q4.03-2.3,8.463-4.594A356.915,356.915,0,0,1,99.667,10.158a5.4,5.4,0,0,1,1.088-.282,5.038,5.038,0,0,1,1.048-.282c1.37-.4,2.781-.806,4.03-1.128A275.88,275.88,0,0,1,136.946,2.3h1.088A249.3,249.3,0,0,1,170.276,0h1.088A230.809,230.809,0,0,1,231.817,7.82a241.167,241.167,0,0,1,65.168,29.017l1.088.645c7.335,4.675,14.71,9.753,22.166,15.315a568.864,568.864,0,0,1,47.314,39.939l4.03,3.708,1.088,1.048a7.052,7.052,0,0,1,.806.766c3.587,3.345,7.133,6.771,10.68,10.156l5,4.836,4.474,4.474c18.418,17.813,36.272,35.224,54.649,49.853l1.29,1.048a192.8,192.8,0,0,0,56.423,32.886l1.652.564c2.861.927,5.763,1.773,8.665,2.5a67.266,67.266,0,0,0,9.793,1.693,6.969,6.969,0,0,0,1.29,0c23.778,2.257,50.539-6,78.669-19.788l.766-.363c4.836-2.338,9.672-4.877,14.589-7.577,3.063-1.652,6.126-3.385,9.229-5.159l.685-.4.4-.2,11.808-6.932c2.982-1.854,6.045-3.708,9.068-5.642,17.854-11.123,35.909-23.295,53.8-35.385l10.237-6.892.887-.645c16.564-11.123,33.209-22.166,49.612-32.242l3.829-2.338,4.03-2.378h0l.806-.443,1.733-1.048c7.5-4.353,14.912-8.463,22.247-12.091,3.264-1.652,6.529-3.264,9.753-4.756s6.368-2.942,9.511-4.232c.766-.363,1.572-.685,2.338-.967l2.74-1.128,1.088-.443a150.365,150.365,0,0,1,35.224-9.39Z" transform="translate(7.266 27.363)" fill="#e5e7e6"/>
    <path id="Path_207" data-name="Path 207" d="M869.957,40.8a160.323,160.323,0,0,0-43.2,9.753c-3.063,1.088-6.126,2.257-9.229,3.506-4.917,2.015-9.874,4.03-14.831,6.61a6.087,6.087,0,0,0-1.048.484c-29.42,14.025-59.566,33.692-89.39,53.924l-12.937,8.786-2.66,1.814c-33.934,23.174-65.974,45.058-96.725,60.09a218.068,218.068,0,0,1-34.257,13.582l-1.169.322q-5.078,1.451-9.914,2.418l-1.209.242a101.839,101.839,0,0,1-19.748,2.055,79.234,79.234,0,0,1-19.788-2.418c-2.7-.685-5.4-1.451-8.06-2.3l-1.612-.564A199.334,199.334,0,0,1,443.2,163.676l-1.451-1.169-1.773-1.491a8.061,8.061,0,0,1-1.29-1.088c-3.708-2.982-7.416-6.166-11.083-9.431a18.423,18.423,0,0,1-1.37-1.249c-12.091-10.519-23.7-21.924-35.707-33.491-11.2-10.8-22.488-21.723-34.176-32.242h0l-.806-.725-1.048-.927h0l-.443-.363a390,390,0,0,0-67.345-50.176,2.418,2.418,0,0,0-.443-.242l-1.088-.645c-2.217-1.249-4.473-2.458-6.73-3.627A246.285,246.285,0,0,0,233.469,8.433c-4.353-1.29-8.746-2.418-13.179-3.345h0c-4.232-.927-8.5-1.693-12.856-2.3A211.344,211.344,0,0,0,162.376.9h-1.854c-4.03.282-8.3.685-12.494,1.209-6.448.806-12.937,1.854-19.506,3.184h-1.088A288.924,288.924,0,0,0,92.412,14.8l-1.088.363A378.238,378.238,0,0,0,25.995,44.947C20.03,48.292,13.9,51.879,8.1,55.627l-4.03,2.62L.282,60.7A2.176,2.176,0,0,1,0,60.181l3.788-2.5,4.474-2.821c5.481-3.426,11.405-6.972,17.652-10.519a400.44,400.44,0,0,1,37.924-19.1q13.9-6.045,27.486-10.72l1.008.04a301.1,301.1,0,0,1,35.022-9.552l1.088-.242c6.851-1.37,13.582-2.418,20.151-3.224,4.03-.484,8.06-.846,11.768-1.088h1.693a212.635,212.635,0,0,1,43.728,1.652c4.8.685,9.552,1.572,14.267,2.579s9.149,2.176,13.662,3.506A243.139,243.139,0,0,1,279.292,26.65c1.975,1.048,4.03,2.1,5.884,3.184l1.088.645.363.2a386.456,386.456,0,0,1,66.579,49.41,2.779,2.779,0,0,1,.524.443l.967.846,1.048.927h0l.846.725c11.688,10.6,23.053,21.562,34.3,32.242,12.091,11.607,23.859,23.053,35.828,33.692l.645.524c3.667,3.3,7.375,6.448,11.083,9.511a15.387,15.387,0,0,0,1.29,1.088l2.9,2.378,1.491,1.169a198.77,198.77,0,0,0,59.405,34.5l1.612.564c2.861.927,5.723,1.773,8.625,2.5a89.308,89.308,0,0,0,38.972.443l1.249-.242c3.264-.645,6.569-1.411,9.914-2.378l1.209-.322c40.3-11.567,84.634-41.995,131.183-73.712l2.579-1.773,13.259-9.028c29.7-20.151,59.727-39.7,89.027-53.722l1.048-.484c5.118-2.458,10.237-4.715,15.315-6.771,3.023-1.249,6.045-2.378,9.068-3.466a160.885,160.885,0,0,1,43.284-9.753Z" transform="translate(19.316 45.894)" fill="#e5e7e6"/>
    <path id="Path_208" data-name="Path 208" d="M894.7,35.5c-25.874.766-51.909,8.544-77.863,20.433-2.781,1.29-5.562,2.62-8.3,4.03-35.3,17.29-70.407,41.632-104.785,65.491-39.778,27.526-78.186,54.125-113.813,67.385l-3.023,1.128-4.03,1.37-1.169.363c-3.224,1.048-6.448,1.935-9.632,2.7a6.566,6.566,0,0,1-1.209.282A103.983,103.983,0,0,1,546.7,201.71a81.129,81.129,0,0,1-20.151-2.458,147.839,147.839,0,0,1-15.677-5c-3.829-1.451-7.617-3.063-11.325-4.836A234.2,234.2,0,0,1,450.454,157.5L449,156.33l-3.587-3.023-1.33-1.128c-2.781-2.338-5.521-4.756-8.06-7.254l-1.33-1.169-1.572-1.411-1.37-1.249c-9.471-8.584-18.9-17.652-28.211-26.841-12.091-11.607-24.181-23.335-36.957-34.579-.685-.645-1.33-1.249-2.015-1.814A348.13,348.13,0,0,0,282.113,21.44c-2.458-1.169-4.917-2.3-7.456-3.385a248.1,248.1,0,0,0-24.181-9.028,162.334,162.334,0,0,0-24.786-5.884c-4.312-.725-8.665-1.29-13.058-1.652C156.855-3.709,93.178,15.878,27,58.114l-7.335,4.836c-1.008.645-2.055,1.33-3.063,2.055C11.043,68.835,5.481,72.583,0,76.653a8.059,8.059,0,0,1,.322-1.048c4.836-3.506,10.2-7.295,16.121-11.2l3.063-2.1,8.06-5.2A452.232,452.232,0,0,1,79.234,28.533C127.193,6.205,171.928-3.064,212.754.886c4.393.4,8.705.967,12.977,1.733a171.611,171.611,0,0,1,24.745,5.763q12.09,4.03,23.536,8.826c2.9,1.249,5.8,2.539,8.625,4.03A349.376,349.376,0,0,1,363.6,76.532l2.015,1.773c13.058,11.567,25.551,23.577,37.884,35.466,9.35,8.987,18.579,17.854,27.849,26.317l1.37,1.29,2.66,2.337,1.29,1.169c2.378,2.136,4.8,4.232,7.214,6.287l1.33,1.128,4.715,4.03c.484.4.967.846,1.491,1.209a230.324,230.324,0,0,0,48.322,31.355c3.748,1.773,7.577,3.385,11.446,4.836a144.169,144.169,0,0,0,15.476,4.957,90.64,90.64,0,0,0,43.687-.443l1.209-.282c3.184-.766,6.408-1.693,9.632-2.7l1.128-.363c37.561-12.091,78.508-40.544,120.906-69.924,34.5-23.859,69.642-48.362,104.785-65.491,2.9-1.451,5.763-2.821,8.665-4.03,25.914-11.849,51.909-19.627,77.783-20.393Z" transform="translate(16.132 64.162)" fill="#e5e7e6"/>
    <path id="Path_209" data-name="Path 209" d="M921.317,29.591v.766h-.4c-70.73,0-139.525,46.67-200.744,89.672l-.887.645-5.642,4.03-1.612,1.128-.927.645c-21.562,15.194-42.357,29.743-62.468,41.793l-1.934,1.169c-2.338,1.411-4.675,2.741-6.972,4.03a5.68,5.68,0,0,1-.967.524c-5.32,3.023-10.6,5.844-15.839,8.383a188.733,188.733,0,0,1-31.556,12.453l-1.169.322a104.784,104.784,0,0,1-28.211,4.03,80.886,80.886,0,0,1-20.635-2.62c-34.055-8.947-61.783-28.211-88.261-51.345l-1.33-1.209-6.126-5.481-1.29-1.169-4.03-3.506-1.37-1.29c-2.338-2.136-4.635-4.312-6.972-6.529l-.685-.645-13.421-12.816c-15.274-14.67-30.75-29.461-47.516-43.526l-4.514-3.667a357.6,357.6,0,0,0-29.9-22.488c-4.03-2.62-7.819-5.118-12.091-7.577a291.986,291.986,0,0,0-54.73-25.753,160.362,160.362,0,0,0-33.33-7.416,174.058,174.058,0,0,0-19.023-1.128c-45.3-.443-96.08,15.557-149.6,47.153Q53.093,56.23,38.947,66.185l-1.733,1.169-1.33.927Q25.969,74.688,16.136,82.1,8.075,88.028.015,94.436a4.877,4.877,0,0,1,0-.766c4.594-3.627,10.035-8.06,16.121-12.534s12.091-8.866,18.9-13.622l2.66-1.693.6-.4c8.423-5.683,17.572-11.607,27.365-17.41s19.184-10.922,29.5-16.121C138.9,10.205,179.479-.354,216.517.009a167.373,167.373,0,0,1,53,8.987A290.176,290.176,0,0,1,324.445,34.83c4.03,2.458,8.06,5,12.091,7.577a359.9,359.9,0,0,1,29.743,22.085c1.652,1.29,3.264,2.66,4.877,4.03,16.725,13.985,32.242,28.816,47.4,43.445,4.473,4.272,8.907,8.544,13.3,12.7l1.249,1.209,5.965,5.562,1.37,1.29,4.877,4.433a16.92,16.92,0,0,0,1.29,1.169c1.693,1.572,3.385,3.063,5.078,4.554l1.33,1.169c26.6,23.294,54.408,42.76,88.664,51.748a92.332,92.332,0,0,0,48.362-1.491l1.169-.322a219.889,219.889,0,0,0,47.6-20.8,6.889,6.889,0,0,0,.927-.524c1.975-1.088,4.03-2.257,5.965-3.426l2.055-1.209C668.3,155.937,689.5,140.985,711.1,125.791l.887-.645,1.733-1.209,5.562-4.03.887-.6c30.307-21.36,61.662-42.962,94.065-59.727,39.254-20.151,74.236-30.146,107.042-30.146Z" transform="translate(10.676 82.489)" fill="#e5e7e6"/>
    <path id="Path_210" data-name="Path 210" d="M933.674,24.073v.564h-5.36a197.482,197.482,0,0,0-29.743,2.3l-1.249.2h-1.693c-32.242,5.36-62.911,18.1-92.291,34.3l-.967.524Q791.731,68,781.414,74.047l-.927.564c-19.828,12.091-38.972,25.511-57.43,38.69l-.887.6-7.254,5.159-.846.645-1.773,1.249-2.055,1.491-2.9,2.055c-17.612,12.614-34.619,24.786-51.183,35.3l-.967.645c-3.587,2.3-7.133,4.473-10.68,6.569l-1.491.927-1.733,1.008-.927.564c-6.206,3.627-12.373,6.972-18.458,9.955-22.206,10.962-41.43,16.121-59,16.121a80.6,80.6,0,0,1-20.151-2.539h-.806l-2.9-.806-5.8-1.773-1.048-.363-1.975-.645c-2.1-.725-4.03-1.451-6.206-2.257-35.143-13.541-62.79-36.917-90.276-62.75l-1.411-1.29-4.675-3.869-1.209-1.169-8.06-7.5c-13.3-12.735-26.76-25.592-41.269-38l-1.088-.927A360.859,360.859,0,0,0,313.428,28.1l-.967-.524a310.645,310.645,0,0,0-38.488-17.37,149.521,149.521,0,0,0-43.244-9.068c-2.7-.2-5.441-.282-8.06-.322-46.428-.927-93.984,16.967-136.5,40.826-2.942,1.652-5.844,3.345-8.705,5.038C65.773,53.534,54.488,60.828,43.808,68.2l-3.3,2.338c-2.9,2.015-5.723,4.03-8.544,6.086L26.841,80.5q-8.826,6.489-16.967,12.9C6.65,95.971,3.466,98.51.4,101.05a2.1,2.1,0,0,1-.4-.443q4.353-3.627,9.552-7.738c5.118-4.03,10.8-8.5,17.007-13.1l5.32-4.03,8.06-5.884,3.3-2.3C53.521,60.466,64.725,53.211,76.695,46.2c2.9-1.733,5.844-3.426,8.866-5.078s6.368-3.547,9.592-5.239A315.726,315.726,0,0,1,182.568,3.64,196.31,196.31,0,0,1,222.426.013a59.065,59.065,0,0,1,8.06.363,147.062,147.062,0,0,1,43.647,9.189,313.261,313.261,0,0,1,38.448,17.33l.967.524c43.163,23.295,74.679,53.44,105.389,82.82l8.342,8.06,1.209,1.128,3.547,3.385,1.37,1.29c27.647,25.995,55.415,49.531,90.679,63.113,2.015.806,4.03,1.572,6.166,2.257l1.975.685,1.048.322q1.935.685,4.03,1.209c1.249.363,2.539.766,4.03,1.088l1.008.282c23.093,6.166,48.362,1.894,79.677-13.541q9.068-4.473,18.378-9.914l.967-.564,1.209-.685c.484-.282.967-.6,1.451-.846,3.627-2.217,7.295-4.474,11-6.811l1.048-.685c16.6-10.6,33.733-22.771,51.385-35.466l1.652-1.169,1.169-.846,3.748-2.7.887-.6,6.932-5.28.887-.6c18.5-13.179,37.642-26.519,57.43-38.69l.927-.564c3.748-2.338,7.5-4.594,11.285-6.771l7.013-4.03,2.62-1.451.967-.524c29.5-16.121,60.453-29.017,92.694-34.378h1.088a.282.282,0,0,1,.242,0l1.209-.2a193.006,193.006,0,0,1,30.186-2.378Z" transform="translate(19.719 100.863)" fill="#e5e7e6"/>
    <path id="Path_211" data-name="Path 211" d="M933.835,18.378V18.9c-3.587,0-7.174-.282-10.68-.282a214.813,214.813,0,0,0-34,2.7l-2.471.4a4.713,4.713,0,0,0-1.048,0c-6.045,1.008-12.091,2.3-17.975,3.788-1.128.282-2.3.564-3.426.927a323.218,323.218,0,0,0-70.246,28.655,5.683,5.683,0,0,1-.967.524q-10.64,5.844-21,12.091l-.927.6c-22.771,13.864-44.332,29.34-65.37,44.332l-.846.6-9.511,6.932c-22.569,16.443-44.05,32.242-64.483,44.574l-.967.564c-27.244,16.4-53,27.284-78.065,27.284a80.6,80.6,0,0,1-18.055-1.975l-3.466-.887c-1.128-.282-2.217-.6-3.3-.967a181.351,181.351,0,0,1-18.5-6.368l-1.37.161-1.854-.806c-2.055-.846-4.03-1.773-6.166-2.7-33.048-15.355-58.76-38.488-84.836-63.234-.484-.4-.927-.846-1.37-1.29l-6.207-5.884c-9.511-9.108-19.143-18.3-29.219-27.284l-3.144-2.781c-3.345-2.982-6.771-5.924-10.237-8.866l-1.008-.846c-2.66-2.217-5.4-4.433-8.06-6.65l-1.048-.927a344.14,344.14,0,0,0-64.483-40.906l-.967-.484c-7.093-3.426-14.509-6.69-22.327-9.793A141.056,141.056,0,0,0,216.985.242h-9.431a219.121,219.121,0,0,0-67.143,13.622,17.331,17.331,0,0,0-2.3.806c-4.03,1.37-7.778,2.9-11.768,4.514l-1.008.4A403.029,403.029,0,0,0,82.014,40.826L75.4,44.614c-1.733,1.008-3.506,2.015-5.239,3.1Q53.642,57.632,36.876,69.4c-1.249.846-2.458,1.693-3.708,2.62Q21.642,80.08,10.035,89.269c-3.144,2.5-6.327,5-9.471,7.577H0c3.144-2.539,6.287-5.078,9.431-7.5Q21.158,80.08,32.886,71.778L36.554,69.2Q53.4,57.35,70.125,47.314l5.239-3.1,6.448-3.667A390.285,390.285,0,0,1,125.1,19.224l1.007-.4c3.627-1.531,7.174-2.9,10.72-4.03l2.5-.927h0a258.5,258.5,0,0,1,33.491-9.592A192.078,192.078,0,0,1,206.709,0h9.552a142.266,142.266,0,0,1,50.3,9.592c7.778,3.1,15.154,6.368,22.247,9.793a5.4,5.4,0,0,1,.967.484,341.114,341.114,0,0,1,64.483,40.866l.967.725c2.741,2.217,5.441,4.393,8.06,6.569l1.008.887c2.781,2.3,5.481,4.635,8.06,6.972l4.715,4.03c10.4,9.269,20.151,18.66,30.065,28.211l5.6,5.32,1.37,1.33c26.2,24.907,52.03,48.362,85.239,63.6,2.015.967,4.03,1.894,6.126,2.741l1.854.766,1.008.443a185.112,185.112,0,0,0,18.176,6.287l3.587,1.048,3.748.927c30.428,6.73,61.783-5.038,95.395-25.269l.967-.564c20.594-12.494,42.035-28.211,64.483-44.574l9.955-6.932.846-.6c20.876-15.154,42.639-30.629,65.41-44.332l.927-.564q10.317-6.368,21-12.091l.967-.524a326.043,326.043,0,0,1,69.158-28.494l5.965-1.531c5.562-1.37,11.164-2.539,16.846-3.506h1.934l1.209-.2a219.845,219.845,0,0,1,34.377-2.741A48.529,48.529,0,0,1,933.835,18.378Z" transform="translate(40.958 119.697)" fill="#e5e7e6"/>
    <path id="Path_212" data-name="Path 212" d="M908.566,13.258v.524A239.634,239.634,0,0,0,854.2,16.24l-1.249.2a308.109,308.109,0,0,0-97.692,35.184l-5.32,2.982c-33.773,18.982-64.926,42.156-94.468,64.08-21.159,15.718-41.309,30.71-60.775,42.841h0l-.927.564c-3.788,2.378-7.577,4.635-11.325,6.771-23.254,13.138-45.541,21.6-67.466,21.6a81.367,81.367,0,0,1-21.884-2.982,207.116,207.116,0,0,1-34.619-12.937l-.927-.443-1.814-.887c-2.055-1.008-4.03-2.055-6.086-3.144-30.871-16.645-54.77-39.375-79.637-62.992A681.431,681.431,0,0,0,315,58.718a5.885,5.885,0,0,0-.846-.645,6.288,6.288,0,0,0-.806-.645c-2.3-1.733-4.635-3.506-7.013-5.239l-2.781-2.015h0l-.846-.6c-2.539-1.814-5.159-3.627-7.819-5.4a362.144,362.144,0,0,0-44.332-25.511l-1.169-.564h0q-4.03-2.055-8.584-4.03l-1.008-.443c-1.975-.887-4.03-1.773-6.045-2.62C189.62-7.659,140.291.684,93.742,20.23l-1.008.443A478.993,478.993,0,0,0,4.353,71.333L.322,74.114,0,73.59c1.249-.967,2.539-1.854,3.829-2.781,12.413-8.826,24.866-16.967,37.2-24.181a414.63,414.63,0,0,1,51.3-26.438l1.007-.4A277.236,277.236,0,0,1,136.583,5.4c36.272-8.584,68.876-6.932,96.966,4.957,2.015.846,4.03,1.693,5.924,2.62a4.516,4.516,0,0,1,1.008.443c3.1,1.37,6.166,2.781,9.149,4.03l1.128.524a354.657,354.657,0,0,1,44.332,25.39c2.741,1.854,5.441,3.708,8.06,5.6l.645.443.322.242,2.942,2.136c2.176,1.531,4.272,3.1,6.327,4.675l1.169.927.846.645A683.288,683.288,0,0,1,370.455,106.4c24.786,23.577,48.644,46.267,79.435,62.911l6.086,3.144,1.814.887.967.443a203.158,203.158,0,0,0,34.579,12.937c29.017,8.06,58.4-1.169,89.43-18.861h0c3.587-2.015,7.174-4.03,10.8-6.408l.766-.484h0c19.466-12.091,39.657-27.163,60.856-42.922,29.42-21.844,60.453-44.937,94.145-63.919l6.408-3.547A327.813,327.813,0,0,1,829.9,20.512l1.128-.282q10.6-2.741,21.521-4.514h1.209a241.569,241.569,0,0,1,54.811-2.458Z" transform="translate(87.628 137.794)" fill="#e5e7e6"/>
    <path id="Path_213" data-name="Path 213" d="M943.669,7.837v.524c-112.2-9.39-194.537,53.078-267.242,107.929-50.1,37.843-94.347,71.455-137.994,71.455a81.371,81.371,0,0,1-22.247-3.063,225.638,225.638,0,0,1-22.529-7.536c-2.741-1.048-5.4-2.136-8.06-3.3-38-16.685-63.6-40.987-92.372-68.271C360.7,74.657,323.786,39.635,260.592,11.343c-3.184-1.451-6.448-2.7-9.713-4.03h0C209.892-6.753,163.988,2.638,121.913,20.532c-5.32,2.3-10.64,4.715-15.839,7.214A470.409,470.409,0,0,0,53.158,58.053C45.38,63.212,37.964,68.33,30.871,73.529c-1.37.967-2.741,1.934-4.03,2.942-3.587,2.62-7.093,5.239-10.479,8.06C11.486,88.279,6.811,91.947,2.3,95.614L.363,97.146h0A1.249,1.249,0,0,1,0,96.7H0l1.975-1.572C6.489,91.5,11.2,87.8,16.08,84.088c3.426-2.66,6.972-5.32,10.6-8.06l4.03-2.942C37.8,67.927,45.178,62.809,52.8,57.811a473.064,473.064,0,0,1,53.158-30.629c5.239-2.539,10.438-4.917,15.557-7.093A292.184,292.184,0,0,1,156.089,7.716c35.264-9.955,66.941-10.277,94.347-.967h0l.806.282h0c3.184,1.128,6.327,2.378,9.39,3.748A395.446,395.446,0,0,1,317.015,41.61l3.627,2.458a551.378,551.378,0,0,1,72.947,61.138c28.655,27.2,54.206,51.425,92.09,68.07,2.66,1.169,5.36,2.3,8.06,3.345a224.439,224.439,0,0,0,22.408,7.536c50.74,14.267,101.279-24.181,159.757-68.271,34.942-26.438,74.478-56.423,118.407-77.823C844.97,13.519,893.574,3.605,943.669,7.837Z" transform="translate(73.925 156.192)" fill="#e5e7e6"/>
  </g>
</svg>
