<?xml version="1.0" encoding="utf-8"?>
<!-- Generator: Adobe Illustrator 23.0.2, SVG Export Plug-In . SVG Version: 6.00 Build 0)  -->
<svg version="1.1" id="Layer_1" xmlns="http://www.w3.org/2000/svg" xmlns:xlink="http://www.w3.org/1999/xlink" x="0px" y="0px"
	 viewBox="0 0 1017.6 343.9" style="enable-background:new 0 0 1017.6 343.9;" xml:space="preserve">
<style type="text/css">
	.st0{opacity:0.18;}
	.st1{fill:#E5E7E6;}
</style>
<title>home-background</title>
<g class="st0">
	<path id="Path_130" class="st1" d="M305.7,75.7c0.6,4.7-2.7,9.1-7.5,9.7c-2.9,0.4-5.8-0.7-7.7-3c-0.6-4.7,2.7-9.1,7.5-9.7
		C300.8,72.4,303.8,73.5,305.7,75.7z"/>
	<rect id="Rectangle_33" x="304.5" y="34.5" class="st1" width="1.1" height="43.5"/>
	<path id="Path_131" class="st1" d="M730.1,157.7c2.3,4.2,0.8,9.5-3.4,11.8c-2.6,1.4-5.7,1.5-8.3,0.1c-2.3-4.2-0.8-9.5,3.4-11.8
		C724.4,156.4,727.5,156.3,730.1,157.7z"/>
	
		<rect id="Rectangle_34" x="721.8" y="118.1" transform="matrix(0.9298 -0.368 0.368 0.9298 -0.7977 275.6216)" class="st1" width="1.1" height="43.5"/>
	<path id="Path_132" class="st1" d="M526.5,247.8c3.1,3.7,2.6,9.1-1.1,12.2c-2.3,1.9-5.4,2.5-8.3,1.6c-3.1-3.7-2.6-9.1,1.1-12.2
		C520.6,247.4,523.7,246.8,526.5,247.8z"/>
	<path id="Path_133" class="st1" d="M526.9,250.2c-0.2,0-0.4-0.1-0.5-0.3l-28.2-45.3c-0.2-0.2-0.2-0.5,0-0.7c0.2-0.2,0.6-0.2,0.8,0
		l28.2,45.3c0.2,0.2,0.2,0.5,0,0.8L526.9,250.2z"/>
	<path id="Path_134" class="st1" d="M520.4,213.2c-0.3,0-0.5-0.2-0.5-0.4c-1.1-5.4-7.5-5.5-11.5-5.5h-1.3c-5.3,0-7.1-0.8-8.8-2.4
		c-0.2-0.2-0.2-0.5,0-0.8c0.2-0.2,0.5-0.2,0.7,0l0,0c1.2,1.1,2.6,2,8.1,2h1.3c4,0,11.2,0,12.5,6.4c0.1,0.3-0.1,0.6-0.4,0.6
		L520.4,213.2z"/>
	<path id="Path_135" class="st1" d="M530,228.4c-0.3,0-0.5-0.2-0.5-0.4c-1.1-5.6-7.7-5.6-11.7-5.5h-1c-5.3,0-7.1-0.9-8.7-2.4
		c-0.2-0.2-0.2-0.5,0-0.7c0.2-0.2,0.5-0.2,0.8,0c1.2,1.2,2.5,2,8.1,2.1h1c4,0,11.5,0,12.8,6.4c0.1,0.3-0.1,0.6-0.4,0.6l0,0
		L530,228.4z"/>
	<path id="Path_136" class="st1" d="M534.6,235.9c-0.3,0-0.5-0.2-0.5-0.4c-1.1-5.7-7.7-5.7-11.7-5.7h-1c-5.3,0-7.1-0.9-8.8-2.4
		c-0.2-0.2-0.2-0.5,0-0.8c0.2-0.2,0.5-0.2,0.7,0c1.2,1.1,2.6,2,8.1,2.1h1c4,0,11.5,0,12.8,6.4c0,0.3-0.1,0.6-0.4,0.6c0,0,0,0,0,0
		l0,0L534.6,235.9z"/>
	<path id="Path_137" class="st1" d="M525.1,220.5c-0.3,0-0.5-0.2-0.5-0.4c-1.2-6.1-9.1-5.5-12.7-5.6c-5.3,0-7.1-0.8-8.8-2.4
		c-0.2-0.2-0.2-0.5,0-0.7c0.2-0.2,0.5-0.2,0.7,0c0,0,0,0,0,0h0c1.3,1.2,2.6,2,8.1,2.1h1c4,0,11.5,0,12.7,6.4
		c0.1,0.3-0.1,0.6-0.4,0.6l0,0L525.1,220.5z"/>
	<path id="Path_138" class="st1" d="M193.1,173.8c3.7,2.1,4.4,7.7,1.5,12.6c-1.9,4.5-7.1,6.7-11.6,4.9c-3.6-2.1-4.3-7.7-1.5-12.5
		S189.4,171.7,193.1,173.8z"/>
	<path id="Path_139" class="st1" d="M193.8,176.6c-0.1,0.1-0.3,0.1-0.4,0l-38.2-52.4c-0.2-0.2-0.3-0.5-0.1-0.7
		c0.2-0.2,0.5-0.3,0.7-0.1c0,0,0.1,0.1,0.1,0.1l38.2,52.4c0.2,0.2,0.2,0.5,0,0.8L193.8,176.6z"/>
	<path id="Path_140" class="st1" d="M182.6,132.2c-0.2,0-0.5-0.1-0.5-0.4c-1.9-6.8-10-6.2-14.9-5.8H166c-6.4,0.4-8.7-0.4-10.8-2.1
		c-0.3-0.1-0.4-0.5-0.3-0.7c0.1-0.3,0.5-0.4,0.7-0.3c0.1,0,0.2,0.1,0.2,0.2c1.6,1.3,3.3,2.3,10,1.9h1.2c4.9-0.4,13.9-1,16.1,6.6
		c0.1,0.3-0.1,0.6-0.3,0.6c0,0,0,0,0,0L182.6,132.2z"/>
	<path id="Path_141" class="st1" d="M195.6,149.8c-0.2,0-0.5-0.2-0.5-0.4c-1.9-6.8-10-6.1-14.9-5.8H179c-6.4,0.4-8.7-0.4-10.8-2.1
		c-0.2-0.2-0.2-0.5,0-0.7c0.2-0.2,0.5-0.2,0.7,0c0,0,0,0,0,0l0,0c1.6,1.3,3.3,2.2,10,1.8h1.2c4.9-0.4,13.9-1.1,16.1,6.6
		c0.1,0.3-0.1,0.6-0.3,0.6c0,0,0,0,0,0L195.6,149.8z"/>
	<path id="Path_142" class="st1" d="M188.9,140.7c-0.2,0-0.5-0.2-0.5-0.4c-1.9-6.7-10-6.1-14.9-5.8h-1.2c-6.4,0.4-8.7-0.4-10.8-2.1
		c-0.2-0.2-0.2-0.5,0-0.7c0.2-0.2,0.5-0.2,0.7,0c0,0,0,0,0,0l0,0c1.6,1.3,3.3,2.2,10,1.8h1.2c4.9-0.4,13.9-1.1,16.1,6.6
		c0.1,0.3-0.1,0.6-0.3,0.6c0,0,0,0,0,0L188.9,140.7z"/>
	<path id="Path_143" class="st1" d="M682.6,299.4c3.8,3.1,4.4,8.6,1.5,12.6c-2.8,4.9-8.1,7.1-11.7,5s-4.3-7.7-1.5-12.6
		S678.9,297.4,682.6,299.4z"/>
	<path id="Path_144" class="st1" d="M683.3,302.3c-0.2,0-0.3-0.1-0.4-0.2l-38.2-52.4c-0.2-0.2-0.2-0.6,0-0.8c0.2-0.2,0.6-0.2,0.8,0
		l0,0l38.2,52.4c0.2,0.2,0.2,0.5,0,0.7C683.5,302.1,683.4,302.2,683.3,302.3z"/>
	<path id="Path_145" class="st1" d="M672,257.9c-0.2,0-0.5-0.2-0.5-0.4c-1.8-6.8-10-6.1-14.9-5.8h-1.2c-6.5,0.4-8.7-0.4-10.8-2.1
		c-0.2-0.2-0.2-0.5,0-0.7c0.2-0.2,0.5-0.2,0.7,0c0,0,0,0,0,0l0,0c1.6,1.3,3.3,2.2,10,1.9h1.2c4.8-0.4,13.9-1.1,16.1,6.5
		c0.1,0.3,0,0.5-0.3,0.6h-0.1L672,257.9z"/>
	<path id="Path_146" class="st1" d="M685.1,275.4c-0.2,0-0.4-0.1-0.5-0.4c-1.9-6.8-10.1-6.2-15-5.8h-1.2c-6.5,0.4-8.7-0.4-10.8-2.1
		c-0.2-0.3-0.1-0.6,0.2-0.8c0.2-0.1,0.4-0.1,0.5-0.1c1.6,1.3,3.3,2.3,10,1.9h1.2c4.9-0.4,13.9-1,16.1,6.6c0.1,0.3-0.1,0.6-0.4,0.6
		c0,0,0,0,0,0L685.1,275.4z"/>
	<path id="Path_147" class="st1" d="M678.4,266.3c-0.2,0-0.4-0.2-0.5-0.4c-1.9-6.8-10-6.2-14.9-5.8h-1.2c-6.4,0.4-8.7-0.4-10.7-2
		c-0.2-0.2-0.2-0.5,0-0.7l0,0c0.2-0.2,0.5-0.2,0.7,0c1.6,1.3,3.3,2.3,10,1.9h1.2c4.8-0.4,13.9-1,16.1,6.6c0.1,0.3-0.1,0.6-0.4,0.6
		L678.4,266.3z"/>
	<path id="Path_148" class="st1" d="M333.3,122.6c-0.7-3.4,2.4-6.8,6.9-7.7c3.8-1.3,8,0.7,9.4,4.5c0.7,3.3-2.4,6.8-6.9,7.7
		C338.8,128.3,334.7,126.3,333.3,122.6z"/>
	<path id="Path_149" class="st1" d="M324.9,163.7L324.9,163.7c-0.3-0.1-0.5-0.3-0.4-0.6c0,0,0,0,0,0l0,0l9.5-42.5
		c0.1-0.3,0.3-0.5,0.6-0.4c0,0,0,0,0,0l0,0c0.3,0.1,0.5,0.4,0.4,0.7l-9.7,42.5C325.3,163.5,325.1,163.7,324.9,163.7L324.9,163.7z"/>
	<path id="Path_150" class="st1" d="M325,163.4h-0.3c-0.2-0.1-0.4-0.4-0.3-0.6c0,0,0,0,0,0v-0.1c1-2,2.5-3.3,7.5-5.1l0.9-0.3
		c3.7-1.3,10.1-3.5,9.3-9.1c-0.1-0.3,0.1-0.6,0.4-0.6c0.3-0.1,0.6,0.1,0.6,0.4c0,0,0,0.1,0,0.1c0.9,6.5-6.2,8.9-10,10.3l-0.9,0.3
		c-5.1,1.9-6.1,3.1-6.9,4.6C325.3,163.3,325.2,163.4,325,163.4L325,163.4z"/>
	<path id="Path_151" class="st1" d="M817.2,191.6c3.4,0.3,5.9,3.4,5.5,6.8c-0.3,3.4-3.4,5.9-6.8,5.5c-3.4-0.3-5.9-3.4-5.5-6.8
		c0,0,0,0,0,0c0.1-0.6,0.2-1.2,0.4-1.7C811.6,192.6,814.4,190.9,817.2,191.6z"/>
	
		<rect id="Rectangle_35" x="806.4" y="166.7" transform="matrix(0.7214 -0.6925 0.6925 0.7214 98.6888 609.5668)" class="st1" width="1.1" height="30.9"/>
	<path id="Path_152" class="st1" d="M841.5,181.4c3.4,0.3,5.9,3.3,5.6,6.7c-0.3,3.4-3.3,5.9-6.7,5.6s-5.9-3.3-5.6-6.7
		c0.1-0.6,0.2-1.2,0.4-1.8C836,182.4,838.7,180.7,841.5,181.4z"/>
	
		<rect id="Rectangle_36" x="828.5" y="157.5" transform="matrix(0.722 -0.6919 0.6919 0.722 110.8485 621.6819)" class="st1" width="1.1" height="30.8"/>
	<path id="Path_153" class="st1" d="M823.1,161.9l-24,13.8l-4.5-4.8l24.4-13.6L823.1,161.9z"/>
	<path id="Path_154" class="st1" d="M382.9,144.9c1.4,1.5,1.4,3.9,0,5.4c-1.3,1.6-3.5,1.8-5.1,0.6h-0.1c-1.4-1.5-1.4-3.9,0-5.4
		c1.2-1.5,3.5-1.8,5-0.6L382.9,144.9z"/>
	<path id="Path_155" class="st1" d="M382.6,146.7l-10.3-21.9l1-0.4l10.3,21.9L382.6,146.7z"/>
	<path id="Path_156" class="st1" d="M396.6,135.1c1.4,1.5,1.4,3.9,0,5.4c-1.1,1.6-3.3,2-4.9,0.9c-0.1-0.1-0.3-0.2-0.4-0.3
		c-1.4-1.5-1.4-3.9,0-5.4c1.1-1.6,3.3-2,4.9-0.8C396.4,134.9,396.5,135,396.6,135.1z"/>
	<path id="Path_157" class="st1" d="M396,136.3l-10.3-21.9l1-0.4l10.3,21.9L396,136.3z"/>
	<path id="Path_158" class="st1" d="M373.4,127.7l15-10.8l-2.3-4.8l-15,10.6L373.4,127.7z"/>
	<path id="Path_159" class="st1" d="M375,129.6l-0.6-0.9l13.9-9.9l0.6,0.8L375,129.6z"/>
	<path id="Path_160" class="st1" d="M830.2,114.4c2.5,1.4,3.3,4.6,2,7.1c-1.5,2-4.4,2.4-6.4,0.9c-2-1.5-2.4-4.4-0.9-6.4
		C826.2,114.3,828.3,113.6,830.2,114.4z"/>
	
		<rect id="Rectangle_37" x="819.7" y="90" transform="matrix(0.7065 -0.7077 0.7077 0.7065 166.1145 611.4421)" class="st1" width="1.1" height="30.9"/>
	<path id="Path_161" class="st1" d="M843.6,93.1c2.5,1.4,3.3,4.6,2,7.1c-1.5,2-4.4,2.4-6.4,0.8s-2.4-4.4-0.8-6.4
		C839.6,93,841.7,92.4,843.6,93.1z"/>
	
		<rect id="Rectangle_38" x="832.4" y="68.2" transform="matrix(0.707 -0.7072 0.7072 0.707 184.9331 613.5532)" class="st1" width="1.1" height="30.9"/>
	<path id="Path_162" class="st1" d="M811.4,98.3l14.4-23.4l-4.8-4.8l-14.5,23.3L811.4,98.3z"/>
	
		<rect id="Rectangle_39" x="821.6" y="84.4" transform="matrix(0.4738 -0.8806 0.8806 0.4738 360.353 773.3987)" class="st1" width="11.5" height="1.6"/>
	<path id="Path_163" class="st1" d="M564.8,324.3c2.7,0.8,4.3,3.6,3.6,6.4c-0.4,3.3-2.7,5.6-5.1,5.3c-2.8-0.8-4.4-3.7-3.7-6.5
		C560.2,326.4,562.4,324,564.8,324.3z"/>
	
		<rect id="Rectangle_40" x="552.4" y="302.7" transform="matrix(0.5189 -0.8548 0.8548 0.5189 -5.9156 625.6926)" class="st1" width="1.1" height="30.9"/>
	<path id="Path_164" class="st1" d="M572.7,300.5c2.7,0.8,4.3,3.6,3.6,6.4c-0.5,3.2-2.7,5.6-5.2,5.3c-2.7-0.8-4.3-3.6-3.6-6.4
		C567.9,302.5,570.2,300.1,572.7,300.5z"/>
	
		<rect id="Rectangle_41" x="559.5" y="278.3" transform="matrix(0.5189 -0.8548 0.8548 0.5189 18.3031 620.0307)" class="st1" width="1.1" height="30.9"/>
	<path id="Path_165" class="st1" d="M542.6,313.1L551,287l-5.7-3.5l-8.7,26L542.6,313.1z"/>
	
		<rect id="Rectangle_42" x="536.3" y="301.1" transform="matrix(0.313 -0.9498 0.9498 0.313 90.7534 728.6539)" class="st1" width="25.5" height="1.1"/>
	<path id="Path_166" class="st1" d="M114,75c1.5,4-0.4,8.5-4.4,10.2c-3.4,2.6-8.3,2-11-1.3c-1.5-4,0.4-8.5,4.3-10.2
		C106.4,71.1,111.2,71.7,114,75z"/>
	<path id="Path_167" class="st1" d="M112.4,77.1l-5.1-46.3l1.1-0.1l5.1,46.3L112.4,77.1z"/>
	<path id="Path_168" class="st1" d="M149.5,61.1c1.6,4-0.4,8.6-4.4,10.3c-3.4,2.6-8.4,2.1-11.1-1.3c-1.5-4,0.4-8.5,4.4-10.2
		C141.8,57.1,146.8,57.7,149.5,61.1z"/>
	<path id="Path_169" class="st1" d="M148,63.2l-5-46.3l1.1-0.1l5.1,46.3L148,63.2z"/>
	<path id="Path_170" class="st1" d="M181.6,46.6c1.5,4-0.4,8.5-4.3,10.2c-3.4,2.6-8.3,2-11.1-1.3c-1.5-4,0.4-8.5,4.4-10.2
		C174.1,42.7,178.9,43.3,181.6,46.6L181.6,46.6z"/>
	
		<rect id="Rectangle_43" x="177.5" y="2.4" transform="matrix(0.9941 -0.1085 0.1085 0.9941 -1.7402 19.4777)" class="st1" width="1.1" height="46.6"/>
	<path id="Path_171" class="st1" d="M107,38.2l71.2-26.9L177,0l-71.1,28.4L107,38.2z"/>
	<path id="Path_172" class="st1" d="M616.6,217.9c1.9,3.4,0.8,7.6-2.6,9.6c-2,1.1-4.4,1.2-6.5,0.2c-1.9-3.4-0.8-7.6,2.6-9.6
		C612.1,217,614.6,216.9,616.6,217.9z"/>
	<path id="Path_173" class="st1" d="M615.9,219.7l-13.8-32.1l0.8-0.3l13.8,32.1L615.9,219.7z"/>
	<path id="Path_174" class="st1" d="M639,200.1c2,3.3,1,7.5-2.3,9.5c-2.1,1.3-4.6,1.4-6.8,0.3c-2-2.5-1.6-6.2,0.8-8.3
		C632.7,199,636.3,198.3,639,200.1z"/>
	<path id="Path_175" class="st1" d="M638.4,202l-13.8-32.1l0.7-0.3l13.8,32.1L638.4,202z"/>
	<path id="Path_176" class="st1" d="M658.8,182.7c2,2.5,1.6,6.2-0.8,8.3c-1.9,2.5-5.4,3.1-8.1,1.5c-1.9-3.4-0.7-7.6,2.6-9.5
		c2-1.1,4.4-1.2,6.5-0.3L658.8,182.7z"/>
	<path id="Path_177" class="st1" d="M658.3,184.7l-13.8-32.1l0.7-0.3l13.8,32.1L658.3,184.7z"/>
	<path id="Path_178" class="st1" d="M603.5,193l45.2-34.8l-3.3-7.9l-44.7,35.9L603.5,193z"/>
	<path id="Path_179" class="st1" d="M910.1,135.5c2.4,2.7,2.2,6.8-0.5,9.2c-2.7,2.4-6.8,2.2-9.2-0.5c-2.4-2.7-2.2-6.8,0.5-9.2
		C903.6,132.6,907.7,132.8,910.1,135.5C910.1,135.5,910.1,135.5,910.1,135.5z"/>
	<path id="Path_180" class="st1" d="M944.3,158.3l-27.9-31.1c1,4.7,0.1,9.6-2.5,13.6c-2.2,2.7-5.5,4.4-9.1,4.5v-1.1
		c3.2-0.1,6.3-1.5,8.3-4c2.7-4.4,3.4-9.6,2.1-14.6c0-0.3,0.2-0.6,0.5-0.7c0,0,0,0,0,0c0.1,0,0.3,0,0.4,0.1l29,32.2L944.3,158.3z"/>
	<path id="Path_181" class="st1" d="M921.2,147.8c2.4,2.7,2.2,6.8-0.5,9.2c-2.7,2.4-6.8,2.2-9.2-0.5c-2.4-2.7-2.2-6.8,0.5-9.2
		C914.7,144.9,918.8,145.2,921.2,147.8C921.2,147.8,921.2,147.8,921.2,147.8z"/>
	<path id="Path_182" class="st1" d="M915.9,157.8v-1.1c3.2-0.1,6.3-1.5,8.3-4c2.6-4.4,3.4-9.6,2-14.6h1c1.2,5.1,0.4,10.5-2.4,15
		C922.7,156,919.4,157.6,915.9,157.8z"/>
	<path id="Path_183" class="st1" d="M390.9,181c1.9,2.3,1.5,5.7-0.8,7.5c-2.3,1.9-5.7,1.5-7.5-0.8c-1.9-2.3-1.5-5.7,0.8-7.5l0,0
		C385.7,178.3,389.1,178.7,390.9,181C390.9,181,390.9,181,390.9,181z"/>
	<path id="Path_184" class="st1" d="M418.1,201.5L396.7,175c0.5,3.8-0.4,7.7-2.7,10.9c-2,2.2-4.8,3.4-7.7,3.4v-1.1
		c2.6,0.1,5.2-1,6.9-2.9c2.4-3.5,3.2-7.8,2.3-11.9c0-0.2,0.1-0.5,0.4-0.6c0.2-0.1,0.4-0.1,0.6,0l22.5,27.9L418.1,201.5z"/>
	<path id="Path_185" class="st1" d="M399.6,191.6c1.9,2.2,1.6,5.5-0.6,7.4l-0.1,0.1c-2.3,1.9-5.7,1.6-7.5-0.7
		c-1.9-2.3-1.6-5.7,0.7-7.5C394.5,189,397.8,189.3,399.6,191.6L399.6,191.6L399.6,191.6z"/>
	<path id="Path_186" class="st1" d="M395,199.7v-1.1c2.6,0.1,5.2-1,7-2.9c2.4-3.5,3.2-7.8,2.3-11.9h1c1,4.4,0,9-2.5,12.6
		C400.8,198.6,397.9,199.8,395,199.7z"/>
	<path id="Path_187" class="st1" d="M604,280.5l-32.1-33l0.8-0.8l32.1,33L604,280.5z"/>
	<path id="Path_188" class="st1" d="M604,280.5l-32.1-33l0.8-0.8l32.1,33L604,280.5z"/>
	<path id="Path_189" class="st1" d="M608.3,270.9l-32.1-33l0.8-0.7l32.1,33L608.3,270.9z"/>
	<path id="Path_190" class="st1" d="M575.9,260.4l-0.5-1l23.8-12.4l0.5,1L575.9,260.4z"/>
	
		<rect id="Rectangle_44" x="580.5" y="262.7" transform="matrix(0.8838 -0.4679 0.4679 0.8838 -54.1621 308.5254)" class="st1" width="26.9" height="1.1"/>
	
		<rect id="Rectangle_45" x="580.5" y="262.7" transform="matrix(0.8838 -0.4679 0.4679 0.8838 -54.1621 308.5254)" class="st1" width="26.9" height="1.1"/>
	
		<rect id="Rectangle_46" x="450.5" y="194.5" transform="matrix(0.9767 -0.2144 0.2144 0.9767 -36.1546 101.7505)" class="st1" width="1" height="46.1"/>
	
		<rect id="Rectangle_47" x="450.5" y="194.5" transform="matrix(0.9767 -0.2144 0.2144 0.9767 -36.1546 101.7505)" class="st1" width="1" height="46.1"/>
	
		<rect id="Rectangle_48" x="459.2" y="188.6" transform="matrix(0.9767 -0.2144 0.2144 0.9767 -34.6827 103.4906)" class="st1" width="1" height="46"/>
	<path id="Path_191" class="st1" d="M468.9,210.2l-26.8-1.9l0.1-1.1l26.8,1.9L468.9,210.2z"/>
	<path id="Path_192" class="st1" d="M469.3,221.7l-26.8-1.9l0.1-1.1l26.8,1.9L469.3,221.7z"/>
	<path id="Path_193" class="st1" d="M469.3,221.7l-26.8-1.9l0.1-1.1l26.8,1.9L469.3,221.7z"/>
	<path id="Path_194" class="st1" d="M748.9,236.5l-32.1-33.1l0.8-0.7l32.1,33L748.9,236.5z"/>
	<path id="Path_195" class="st1" d="M748.9,236.5l-32.1-33.1l0.8-0.7l32.1,33L748.9,236.5z"/>
	<path id="Path_196" class="st1" d="M753.2,226.8l-32.1-33l0.8-0.8l32.1,33L753.2,226.8z"/>
	<path id="Path_197" class="st1" d="M720.8,216.4l-0.5-0.9L744,203l0.5,0.9L720.8,216.4z"/>
	<path id="Path_198" class="st1" d="M727.2,226l-0.5-1l23.7-12.5l0.5,0.9L727.2,226z"/>
	<path id="Path_199" class="st1" d="M727.2,226l-0.5-1l23.7-12.5l0.5,0.9L727.2,226z"/>
	<path id="Path_200" class="st1" d="M85.8,256c-0.4,0.2-0.8,0.3-1.2,0.4c-2.3,0.7-4.8,0.5-7-0.5l0,0c-1.3-0.6-2.5-1.5-3.4-2.6
		c-0.2-0.1-0.3-0.3-0.4-0.4c-0.3-0.3-0.6-0.7-0.8-1.1l0,0c-0.2-0.4-0.4-0.8-0.6-1.2c-2.2-5.2,0.3-11.3,5.5-13.5
		c4.3-1.8,9.2-0.5,12.1,3.1c0.1,0.1,0.2,0.3,0.3,0.4c0.5,0.6,0.9,1.3,1.2,2C93.6,247.9,91.1,253.9,85.8,256z"/>
	<path id="Path_201" class="st1" d="M74.8,184.9c-3.7-5.1-7.4-10.4-11.2-15.8l-3.3,2.3l10.9,16.1c0.9,1.3,1.8,2.6,2.7,4l3.7-2.5
		L74.8,184.9z M51.7,177.3l-5.1,4c1.9,4.3,4.7,8.1,8.1,11.4c1.4,1.4,2.9,2.6,4.5,3.7l1.3,1c-1.4-2-2.8-4.1-4-6.3
		C54.1,186.8,52.4,182.2,51.7,177.3z M110.1,191c5.3-7.9,7.6-17.4,6.3-26.8v-0.6c-1.3-8-4.9-15.3-10.4-21.2l-0.4-0.4
		c-0.6-0.7-1.2-1.3-1.9-1.9c-6.6-6.2-15.2-9.7-24.2-9.8c-0.6,0-1.1,0-1.7,0c-0.5,0-1,0-1.4,0c-11.4,1.1-21.6,7.4-27.5,17.1l-3.3-4.9
		c-2.1-3.2-4.2-6.4-6.2-9.7c1.4-3.5,2.7-7.1,3.7-10.8c0.1-0.3,0.2-0.7,0.3-1c0.2-0.7,0.4-1.4,0.5-2.1c2.6-9.2,3-18.8,1.4-28.2
		c0-0.2,0-0.4,0-0.6c-0.4-1.9-1-3.7-1.6-5.5c-1.9-6.1-4.2-12.1-7-17.9L36.3,66c-2.1-4.4-4.8-8.5-8.1-12.1c-2-2.2-4.3-4.2-6.7-5.9
		c-0.6-0.5-1.4-1.1-2.4-1.9l-0.5-0.4c-0.9-0.6-1.7-1.1-2.7-1.6c-2.7-1.3-5.8-1.3-8.4,0c-4.1,2.6-6.7,7-7.3,11.8l0,0
		c0,0.2,0,0.4,0,0.6C0.1,58,0,59.5,0,61v2.7c0,0.2,0,0.5,0,0.7l0.2,1.2c1.2,5.5,3.2,10.9,6,15.8C6.5,81.9,6.8,82.4,7,83
		c0.1,0.1,0.2,0.3,0.3,0.5L13.2,95c1.9,4,3.8,7.7,5.8,11.3c0.1,0.2,0.2,0.4,0.3,0.5c1.7,3.2,3.4,6.2,5.2,9.2
		c-1.1,4.1-2.4,8.1-4,12.1l-2.9,7.3c-0.5,1.3-1,2.7-1.6,4c-0.1,0.3-0.2,0.7-0.3,1c-0.3,0.9-0.6,1.7-0.9,2.7
		c-3.6,10.5-5.1,21.6-4.3,32.7c0,0.3,0,0.5,0,0.8v0.9c0.8,8.7,4,17,9.2,24c0.1,0.2,0.2,0.3,0.4,0.4c2,2.7,4.3,5.1,6.9,7.1
		c4.1,3.3,8.9,5.8,13.9,7.4h0.6c5.6,1.7,11.4,2.4,17.2,2.2c10-0.6,19.8-3.3,28.7-8.1l0.4,0.6l0.3,0.5c2.7,4,5.2,7.6,7.4,11.2
		c2.1,2.7,3.8,5.8,5,9.1c0,0.2,0,0.3,0,0.5c2.5,6.2,1.6,13.3-2.3,18.7c-3.3,4-8.5,6-13.6,5.3c-1.6-0.2-3.1-0.7-4.5-1.5
		c-1.5-0.8-2.9-1.9-4-3.3l-0.3-0.5c-0.2-0.4-0.5-0.7-0.7-1l-2.1,1.5l0,0c0.3,0.4,0.6,0.7,0.8,1l0.4,0.4c1,1,2.1,1.9,3.3,2.7l0,0
		l1.6,0.9c2.9,1.4,6.2,2,9.4,1.9c4.5-0.3,8.7-2,12.1-5c4.2-3.9,6.4-9.6,6-15.3c-0.1-2.9-0.6-5.8-1.7-8.4c0-0.2,0-0.3,0-0.5l0,0
		c-1.5-2.9-3.1-5.8-4.9-8.5c-2.4-3.7-4.9-7.5-7.6-11.4l-0.4-0.5l0,0c7.1-4.6,13.3-10.6,18.2-17.6L110.1,191z M23.4,104.4l-0.3-0.6
		c-1.8-3.6-3.5-7.2-5.1-10.9c-1.9-4.3-3.3-8.8-4.3-13.3v-0.6c-0.5-2.7-0.9-5.4-1.1-8.1c-0.4-4.3-2.2-15.9,4.4-16.6
		c4-0.4,6.9,4.3,8.3,7.5c1.2,2.8,2.1,5.6,2.8,8.5c0,0.2,0,0.4,0,0.6c1.1,5,1.5,10.1,1.1,15.2c-0.4,5-0.9,9.8-1.7,14.6
		c0.1,0.3,0.1,0.5,0,0.8c-0.4,2.7-0.8,5.3-1.3,8.1C25.1,108,24.2,106.2,23.4,104.4z M58.8,210.2c-2.6-0.2-5.2-0.5-7.8-1.2
		c-0.2,0-0.4,0-0.6,0c-6-1.3-11.6-4.2-16.1-8.4c-1.9-1.9-3.4-4-4.7-6.3c-0.2-0.1-0.3-0.3-0.3-0.5c-2.8-5.2-4.1-10.9-4-16.8
		c0.1-4.2,0.6-8.3,1.6-12.4c0-0.3,0.1-0.7,0.3-1c1.2-4.8,2.7-9.4,4.7-13.9c0.9-2.1,1.8-4.3,3.1-6.8l1.7-3.4c0.4-0.8,0.8-1.6,1.2-2.5
		l4.8,7.7L46,150l0.4,0.6l0.5,0.8c-3.1,6.6-4.1,14-3,21.2c0.5,2.8,1.4,5.5,2.5,8.1c0.1,0.2,0.2,0.4,0.3,0.6
		c1.9,4.3,4.7,8.1,8.1,11.4c1.4,1.4,2.9,2.6,4.5,3.7l1.3,1.3c-1.4-2-2.8-4.1-4-6.3c-2.4-4.3-4-9-4.8-13.9c0-0.3,0-0.5,0-0.8
		c-0.3-1.6-0.4-3.2-0.3-4.8c0-3.6,0.7-7.2,2-10.5l6.5,9.7l0.4,0.6l10.9,16.1c0.9,1.3,1.8,2.6,2.7,4c0.1,0.2,0.2,0.3,0.3,0.4
		c3.3,4.9,6.7,9.6,9.8,14.1C75.9,209.4,67.3,210.8,58.8,210.2z M88.2,203.7c-3.3-4.7-6.8-9.6-10.4-14.6l-0.3-0.4l-2.7-4
		c-3.7-5.1-7.5-10.4-11.2-15.8c-0.1-0.2-0.3-0.3-0.4-0.5c-2.7-3.5-5.3-7.1-7.9-11.2c7.5-13.9,25-19.1,38.9-11.6
		c0.9,0.5,1.8,1,2.6,1.6l0.6,0.4l0.4,0.2c6.3,4.1,10.9,10.3,13,17.5c0.1,0.6,0.2,1.1,0.4,1.6c0,0.2,0,0.4,0,0.6c1.3,7.4-0.5,15-5,21
		C101.4,194.9,95.3,200.1,88.2,203.7L88.2,203.7z"/>
	<path id="Path_202" class="st1" d="M786.1,114c0.8,0.7,0.8,2,0.1,2.7l-0.1,0.1c-0.8,0.8-2,0.8-2.8,0c-0.8-0.8-0.8-2,0-2.8
		C784.1,113.2,785.3,113.2,786.1,114z"/>
	<path id="Path_203" class="st1" d="M783.6,116.4c0.4,0.3,0.8,0.5,1.3,0.5c1.3,0.2,2.6-0.6,3.1-1.8c0.5-2-0.5-4.1-2.4-5
		c-2-1.5-4.3-3.1-6.8-4.9s-5.2-3.8-8.1-5.9c-3-2.2-5.9-4.6-8.6-7.1l-2.2-2c-0.8-0.7-1.5-1.6-2.1-2.5v-0.2l0,0c0-0.1,0-0.3,0-0.4
		c0-0.3-0.1-0.7-0.3-0.9c-0.2-0.9,0-1.8,0.6-2.6c0.4-0.4,0.9-0.6,1.5-0.6c0.4,0.1,0.8,0.2,1.3,0.3c0.6,0.2,1.1,0.4,1.6,0.6
		c1.9,1.1,3.6,2.6,4.9,4.5c1.4,1.9,2.2,4.1,2.3,6.4c0.1,1.1,0.1,2.2,0,3.3c0,0.3,0,0.5,0,0.8v0.7c0,0.5,0,1,0,1.4
		c-0.3,1.7-0.2,3.5,0.1,5.2c0.5,1.6,1.7,2.9,3.2,3.7c1.6,0.7,3.4,0.7,5.1,0.2c3.4-1,6.1-3.7,7.2-7.1c0.5-1.6,0.2-3.2-0.7-4.6
		c-0.8-1.2-2.1-2-3.5-2.3c-2.3-0.6-4.8,0.2-6.2,2.1c-1,1.6-1.3,3.5-0.6,5.3c0.5,1.2,1.2,2.3,2.2,3.1l1.2,0.9h-0.4
		c-0.4-0.1-0.7-0.2-1-0.4c-1.4-0.6-2.6-1.7-3.3-3c-1.3-2.2-1.3-4.8,0-7c0.8-1.4,2.1-2.4,3.6-3c1.6-0.5,3.4-0.5,5,0.2
		c1.7,0.6,3.1,1.9,4,3.5c0.9,1.6,1.1,3.6,0.6,5.4c-1.1,3.8-3.9,6.9-7.5,8.4c-2,0.9-4.3,1-6.4,0.3c-2.2-0.8-4-2.5-5-4.6
		c-1-2-1.5-4.3-1.5-6.5V98c0.1-0.9,0.1-1.9,0-2.8c-0.2-1.8-0.6-3.7-1.1-5.4c-0.5-1.5-1.3-2.9-2.3-4c-0.4-0.5-1.3-1.2-2-0.8
		s0,2.5,0.3,3.3c0.6,1.3,1.5,2.5,2.5,3.5c2.6,2.6,5.4,5.1,8.3,7.3c2.8,2.1,5.6,4,8.1,5.8s4.9,3.3,6.8,4.8c0.5,0.4,1,0.8,1.5,1.3
		c0.4,0.4,0.8,1,1,1.5c0.9,1.7,0.2,3.9-1.6,4.7c-0.1,0.1-0.2,0.1-0.3,0.1c-0.6,0.3-1.2,0.3-1.8,0.3c-0.5-0.1-1-0.2-1.5-0.5
		L783.6,116.4z"/>
	<path id="Path_204" class="st1" d="M262.3,122.9c-30.6,1.8-17.4-32-17.4-32c-7.2,1.8-15.5,2.2-17.9-9.7c-2.7-13,12.1-30.1-4-34.1
		c0,0,16.4-10,19,12.6c1.6,14.3-8.6,23.6,10.4,26C252.3,85.7,244,114.3,262.3,122.9z"/>
	<path id="Path_205" class="st1" d="M846.3,60.7c-22.1,4-48.4,17.8-77.1,35.5l-0.9,0.6l-0.6,0.4c-0.7,0.4-1.4,0.8-2.1,1.3
		c-15.2,9.4-30.9,20-47,30.8l-0.9,0.6l-3.5,2.3c-20.2,13.5-40.5,27.2-60.7,39.6l-0.7,0.4c-7,4.4-14,8.5-21,12.4L631,185
		c-7.7,4.3-15.4,8.4-23,12.1l-0.9,0.4l-0.7,0.4c-29,14-53.4,21-74,21c-2.4,0-4.8-0.1-7.3-0.3c-0.4,0-0.8,0-1.2,0
		c-3.4-0.3-6.8-0.8-10.1-1.6c-2.7-0.7-5.5-1.4-8.1-2.3l-1.6-0.6c-37.5-12.8-72.1-45.4-108.3-80.6l-2.2-2.1l-2.5-2.4l-6.5-6.3
		l-0.8-0.8l-1-1l-4-3.7c-22.7-22.9-47.2-43.9-73.3-62.9l-1.1-0.8c-23.7-17.1-50.5-29.7-78.8-37c-15.6-3.8-31.6-6.1-47.7-7
		c-0.4,0-0.8,0-1.2,0c-0.4,0-0.7,0-1.1,0c-7.4-0.4-14.8-0.4-22.2,0c-47,2.1-93,14.7-134.6,36.7c-6.9,3.5-13.2,7.1-18.8,10.4
		c0-0.2,0-0.4,0-0.6c5.4-3.3,11.5-6.7,18.2-10.2C60.6,23.5,107.3,10.8,155,8.8c6.8-0.2,13.7,0,20.7,0h2.3c16.1,1,32.1,3.4,47.7,7.3
		c28.3,7.3,55,19.8,78.8,36.9l1.1,0.8c3.4,2.3,6.7,4.8,10.1,7.3c22.4,17.3,43.7,35.9,63.7,55.9l3.8,3.7l1.1,1l0.8,0.8l6.4,6.2
		c0.5,0.4,0.9,0.9,1.4,1.3l2.1,2.1c36.3,35.3,71,68.2,108.5,81.2l1.6,0.6c2.9,1,5.8,1.8,8.8,2.5c3.2,0.8,6.4,1.3,9.7,1.7h1.3
		c22,2,48.8-4.8,81.3-20.6l0.8-0.3l0.9-0.4c7.6-3.7,15.2-7.8,23-12.1l0.7-0.4c7-4,14-8.1,21-12.4l0.7-0.4
		c20.2-12.4,40.7-26.1,60.7-39.6l3.6-2.4l0.9-0.6c16.1-10.8,32-21.4,47.2-30.9l1.7-1.1l0.6-0.4l1.3-0.8c28.7-17.6,55-31.1,77-35.4
		L846.3,60.7z"/>
	<path id="Path_206" class="st1" d="M867.9,73.7c-11.9,1.6-23.6,4.8-34.8,9.3l-1.1,0.4l-3.5,1.4l-2.3,1c-3.2,1.4-6.4,2.8-9.7,4.4
		s-5.8,2.8-8.8,4.3c-7.7,4-15.4,8.1-23.3,12.8l0,0l-0.6,0.3l-0.9,0.5l-7.4,4.4c-16.6,10.1-33.6,21.3-50.4,32.7l-0.9,0.6l-10.2,6.8
		c-18.1,12.1-36.3,24.5-54.3,35.7c-2.8,1.7-5.5,3.4-8.3,5.1c-4,2.5-8,4.8-12.1,7.1l-0.5,0.3l-0.7,0.4c-3.2,1.9-6.4,3.6-9.5,5.3
		c-4.8,2.6-9.5,5.1-14.3,7.4l-0.7,0.4c-25.2,12.1-49.3,20.1-71.1,20.1c-2.5,0.1-5.1-0.1-7.6-0.4h-1.3c-3.4-0.3-6.8-0.9-10.2-1.8
		c-2.7-0.7-5.4-1.5-8.1-2.3l-1.6-0.5c-20.6-7.6-39.8-18.7-56.7-32.8l-1.3-1.1c-18.5-14.8-36.7-32.2-55.3-50.3L396,141l-5-4.8
		l-10.8-10.3l-0.8-0.7l-1.1-1.1l-4-3.7c-21.1-20.5-44.1-39-68.7-55.2l-1.1-0.8c-20.2-12.9-42.2-22.7-65.3-29
		c-19.7-5.3-40.1-7.9-60.5-7.7h-1c-10.8,0-21.6,0.8-32.2,2.2h-1.1c-11.9,1.7-23.7,4.1-35.3,7.3c-0.4,0.1-0.7,0.2-1.1,0.3l0,0
		l-0.9,0.3c-24.5,7-48.1,16.6-70.5,28.7c-3,1.5-5.8,3.1-8.6,4.7c-5.1,2.8-9.9,5.6-14.4,8.5c-2.1,1.3-4,2.5-6.1,3.8
		c-0.1-0.2-0.2-0.3-0.3-0.5c2-1.3,4-2.6,6.2-4c4.6-2.8,9.4-5.6,14.4-8.5c2.7-1.5,5.5-3.1,8.5-4.6C58.8,54,82.5,44.5,106.9,37.6
		c0.4-0.1,0.7-0.2,1.1-0.3c0.3-0.1,0.7-0.2,1-0.3c1.4-0.4,2.8-0.8,4-1.1c10.2-2.7,20.6-4.7,31.1-6.2h1.1c10.7-1.5,21.5-2.2,32.2-2.3
		h1.1c20.4-0.1,40.7,2.6,60.4,7.8c23,6.4,45,16.2,65.2,29l1.1,0.7c7.3,4.7,14.7,9.8,22.2,15.3c16.5,12.4,32.3,25.8,47.3,39.9l4,3.7
		l1.1,1c0.3,0.2,0.6,0.5,0.8,0.8c3.6,3.4,7.1,6.8,10.7,10.2l5,4.8l4.5,4.5c18.4,17.8,36.3,35.2,54.6,49.8l1.3,1.1
		c16.8,14.1,35.9,25.2,56.4,32.9l1.7,0.6c2.9,0.9,5.8,1.8,8.7,2.5c3.2,0.8,6.5,1.4,9.8,1.7c0.4,0,0.9,0,1.3,0
		c23.8,2.3,50.5-6,78.7-19.8l0.8-0.4c4.8-2.3,9.7-4.9,14.6-7.6c3.1-1.6,6.1-3.4,9.2-5.2l0.7-0.4l0.4-0.2l11.8-6.9
		c3-1.9,6-3.7,9.1-5.6c17.9-11.1,35.9-23.3,53.8-35.4l10.2-6.9l0.9-0.6c16.6-11.1,33.2-22.2,49.6-32.2l3.8-2.3l4-2.4l0,0l0.8-0.4
		l1.7-1c7.5-4.3,14.9-8.5,22.2-12.1c3.3-1.7,6.5-3.3,9.8-4.8s6.4-2.9,9.5-4.2c0.8-0.4,1.6-0.7,2.3-1l2.9-1.2l1.1-0.4
		c11.3-4.5,23.2-7.7,35.2-9.4L867.9,73.7z"/>
	<path id="Path_207" class="st1" d="M889.3,86.7c-14.8,1.2-29.3,4.5-43.2,9.8c-3.1,1.1-6.1,2.2-9.2,3.5c-4.9,2-9.9,4-14.8,6.6
		c-0.3,0.1-0.7,0.3-1,0.5c-29.4,14-59.6,33.7-89.4,53.9l-12.9,8.8l-2.7,1.8c-33.9,23.2-66,45.1-96.7,60.1c-11,5.5-22.5,10-34.3,13.6
		l-1.2,0.3c-3.4,1-6.7,1.8-9.9,2.4l-1.2,0.3c-6.5,1.3-13.1,2-19.7,2c-6.7,0-13.3-0.8-19.8-2.4c-2.7-0.7-5.4-1.4-8.1-2.3l-1.7-0.6
		c-22.3-8.1-42.9-20.1-61-35.4l-1.5-1.2l-1.8-1.5c-0.5-0.3-0.9-0.7-1.3-1.1c-3.7-3-7.4-6.2-11.1-9.4c-0.5-0.4-0.9-0.8-1.4-1.3
		c-12.1-10.5-23.7-21.9-35.7-33.5c-11.2-10.8-22.5-21.7-34.2-32.2l0,0l-0.8-0.7l-1-0.9l0,0l-0.4-0.4c-20.6-19.1-43.2-35.9-67.4-50.2
		c-0.1-0.1-0.3-0.2-0.4-0.2l-1.1-0.7c-2.2-1.3-4.5-2.5-6.7-3.6c-14.4-7.6-29.4-13.7-45-18.4c-4.3-1.3-8.7-2.4-13.1-3.3l0,0
		c-4.2-0.9-8.5-1.7-12.9-2.3c-14.9-2.2-30-2.9-45.1-1.9h-1.9c-4,0.3-8.3,0.7-12.5,1.2c-6.4,0.8-12.9,1.9-19.5,3.2h-1.1
		c-11.9,2.4-23.5,5.6-35,9.5l-1.1,0.4C88,68.9,66.1,78.9,45.3,90.8c-6,3.3-12.1,6.9-17.9,10.7l-4,2.6l-3.8,2.4
		c-0.1-0.2-0.2-0.3-0.3-0.5l3.8-2.5l4.5-2.8c5.5-3.4,11.4-7,17.7-10.5c12.3-7,24.9-13.4,37.9-19.1c9.3-4,18.4-7.6,27.5-10.7h1
		c11.5-3.9,23.2-7.1,35-9.5l1.1-0.2c6.9-1.4,13.6-2.4,20.1-3.2c4-0.5,8.1-0.8,11.8-1.1h1.7c14.6-0.9,29.3-0.4,43.7,1.7
		c4.8,0.7,9.6,1.6,14.3,2.6s9.1,2.2,13.7,3.5c15.8,4.6,31,10.8,45.6,18.5c2,1,4,2.1,5.9,3.2l1.1,0.6l0.4,0.2
		c23.9,14,46.2,30.6,66.6,49.4c0.2,0.1,0.4,0.3,0.5,0.4l1,0.8l1,0.9l0,0l0.9,0.7c11.7,10.6,23,21.6,34.3,32.3
		c12.1,11.6,23.9,23.1,35.8,33.7l0.6,0.5c3.7,3.3,7.4,6.4,11.1,9.5c0.4,0.4,0.8,0.8,1.3,1.1l2.9,2.4l1.5,1.2
		c17.6,14.8,37.7,26.5,59.4,34.5l1.6,0.6c2.9,0.9,5.7,1.8,8.6,2.5c12.8,3,26.1,3.2,39,0.4l1.3-0.3c3.3-0.6,6.6-1.4,9.9-2.4l1.2-0.3
		c40.3-11.6,84.6-42,131.2-73.7l2.6-1.8l13.3-9c29.7-20.1,59.7-39.7,89-53.7l1-0.5c5.1-2.4,10.2-4.7,15.3-6.8c3-1.3,6-2.4,9.1-3.5
		c13.9-5.2,28.5-8.5,43.3-9.8L889.3,86.7z"/>
	<path id="Path_208" class="st1" d="M910.8,99.7c-25.9,0.8-51.9,8.6-77.9,20.4c-2.8,1.3-5.6,2.6-8.3,4
		c-35.3,17.3-70.4,41.6-104.8,65.5c-39.8,27.6-78.2,54.2-113.8,67.4l-3,1.1l-4,1.4l-1.2,0.4c-3.2,1-6.5,1.9-9.6,2.7
		c-0.4,0.1-0.8,0.2-1.2,0.3c-7.9,1.9-16,3-24.2,3c-6.8,0-13.6-0.8-20.2-2.5c-5.3-1.4-10.6-3-15.7-5c-3.8-1.5-7.6-3.1-11.3-4.8
		c-17.6-8.5-34.1-19.3-49.1-31.9l-1.5-1.2l-3.6-3l-1.3-1.1c-2.8-2.3-5.5-4.8-8.1-7.3l-1.3-1.2l-1.6-1.4l-1.4-1.3
		c-9.5-8.6-18.9-17.6-28.2-26.8c-12.1-11.6-24.2-23.3-37-34.6c-0.7-0.6-1.3-1.3-2-1.8c-24.7-22.7-52.4-41.7-82.5-56.4
		c-2.5-1.2-4.9-2.3-7.5-3.4c-7.9-3.4-16-6.4-24.2-9c-8.1-2.6-16.4-4.6-24.8-5.9c-4.3-0.7-8.7-1.3-13.1-1.7
		C173,60.5,109.3,80,43.1,122.3l-7.3,4.8c-1,0.7-2.1,1.3-3.1,2.1c-5.5,3.8-11.1,7.6-16.6,11.6c0.1-0.3,0.2-0.7,0.3-1
		c4.8-3.5,10.2-7.3,16.1-11.2l3.1-2.1l8.1-5.2c16.6-10.7,33.8-20.2,51.7-28.6c48-22.3,92.7-31.6,133.5-27.7c4.4,0.4,8.7,1,13,1.7
		c8.4,1.3,16.7,3.2,24.8,5.8c8.1,2.7,15.9,5.6,23.5,8.8c2.9,1.3,5.8,2.5,8.6,4c29.5,14.5,56.7,33.1,81,55.3l2,1.8
		c13,11.6,25.5,23.6,37.8,35.5c9.4,9,18.6,17.9,27.9,26.3l1.4,1.3l2.7,2.3l1.3,1.2c2.4,2.1,4.8,4.2,7.2,6.3l1.3,1.1l4.7,4
		c0.5,0.4,1,0.9,1.5,1.2c14.7,12.4,31,23,48.3,31.4c3.8,1.8,7.6,3.4,11.5,4.8c5.1,2,10.2,3.6,15.5,5c14.4,3.4,29.4,3.3,43.7-0.4
		l1.2-0.3c3.2-0.8,6.4-1.7,9.6-2.7l1.1-0.4C636,247,677,218.5,719.4,189.1c34.5-23.9,69.6-48.4,104.8-65.5c2.9-1.5,5.8-2.8,8.7-4
		c25.9-11.8,51.9-19.6,77.8-20.4L910.8,99.7z"/>
	<path id="Path_209" class="st1" d="M932,112.1v0.8h-0.4c-70.7,0-139.5,46.7-200.7,89.7l-0.9,0.6l-5.6,4l-1.6,1.1l-0.9,0.6
		c-21.6,15.2-42.4,29.7-62.5,41.8l-1.9,1.2c-2.3,1.4-4.7,2.7-7,4c-0.3,0.2-0.7,0.4-1,0.5c-5.3,3-10.6,5.9-15.8,8.4
		c-10.1,5.1-20.7,9.3-31.5,12.5l-1.2,0.3c-9.2,2.6-18.7,4-28.2,4c-7,0-13.9-0.8-20.6-2.6c-34.1-9-61.8-28.2-88.3-51.3l-1.3-1.2
		l-6.1-5.5l-1.3-1.1l-4-3.5l-1.4-1.3c-2.3-2.1-4.6-4.3-7-6.5l-0.7-0.6l-13.4-12.8c-15.3-14.7-30.8-29.5-47.5-43.5l-4.5-3.7
		c-9.6-8-19.5-15.5-29.9-22.5c-4-2.6-7.8-5.1-12.1-7.6c-17.3-10.5-35.6-19.1-54.7-25.8c-10.8-3.7-22-6.1-33.3-7.4
		c-6.3-0.7-12.7-1.1-19-1.1c-45.3-0.4-96.1,15.6-149.6,47.2c-9.4,5.4-18.8,11.4-28.2,18l-1.7,1.2l-1.3,0.9
		c-6.6,4.3-13.2,8.9-19.8,13.8c-5.4,3.9-10.7,8.1-16.1,12.3c0-0.3,0-0.5,0-0.8c4.6-3.6,10-8.1,16.1-12.5s12.1-8.9,18.9-13.6l2.7-1.7
		l0.6-0.4c8.4-5.7,17.6-11.6,27.4-17.4s19.2-10.9,29.5-16.1c43.7-21.7,84.3-32.3,121.4-31.9c18,0.1,35.9,3.2,53,9
		c19.2,6.7,37.6,15.3,54.9,25.8c4,2.5,8.1,5,12.1,7.6c10.3,6.8,20.2,14.2,29.8,22.1c1.6,1.3,3.3,2.7,4.9,4
		c16.7,14,32.2,28.8,47.4,43.4c4.5,4.3,8.9,8.5,13.3,12.7l1.3,1.2l6,5.6l1.4,1.3l4.9,4.4c0.4,0.4,0.8,0.8,1.3,1.2
		c1.7,1.6,3.4,3.1,5.1,4.6l1.3,1.2c26.6,23.3,54.4,42.8,88.7,51.7c16,3.8,32.7,3.3,48.4-1.5l1.2-0.3c16.6-5,32.6-12,47.6-20.8
		c0.3-0.2,0.6-0.3,0.9-0.5c2-1.1,4-2.3,6-3.4l2-1.2c20.5-12.1,41.8-27.1,63.3-42.2l0.9-0.6l1.7-1.2l5.6-4l0.9-0.6
		c30.3-21.4,61.7-43,94.1-59.7c39.3-20.2,74.2-30.2,107-30.2L932,112.1z"/>
	<path id="Path_210" class="st1" d="M953.4,124.9v0.6H948c-10,0-19.9,0.8-29.7,2.3L917,128h-1.7c-32.2,5.4-62.9,18.1-92.3,34.3
		l-1,0.5c-7.1,4-14.1,8-21,12.1l-0.9,0.6c-19.8,12.1-39,25.5-57.4,38.7l-0.9,0.6l-7.3,5.2l-0.8,0.6l-1.7,1.3l-2,1.5l-2.9,2.1
		c-17.6,12.6-34.6,24.8-51.2,35.3l-1,0.6c-3.6,2.3-7.1,4.5-10.7,6.6l-1.5,0.9l-1.7,1l-0.9,0.6c-6.2,3.6-12.4,7-18.5,10
		c-22.2,11-41.4,16.1-59,16.1c-6.8,0-13.6-0.8-20.2-2.5h-0.8l-2.9-0.8l-5.8-1.8l-1-0.4l-2-0.6c-2.1-0.7-4-1.5-6.2-2.3
		c-35.1-13.5-62.8-36.9-90.3-62.8L452,224l-4.7-3.9l-1.2-1.1l-8.1-7.5c-13.3-12.7-26.8-25.6-41.3-38l-1.1-0.9
		c-19.3-16.7-40.3-31.3-62.6-43.6l-1-0.5c-12.4-6.7-25.3-12.5-38.5-17.4c-13.9-5.1-28.4-8.2-43.2-9.1c-2.7-0.2-5.4-0.3-8.1-0.3
		c-46.4-0.9-94,17-136.5,40.8c-2.9,1.7-5.8,3.4-8.7,5c-11.7,6.9-23,14.1-33.7,21.5l-3.3,2.3c-2.9,2-5.7,4-8.5,6.1l-5.1,3.9
		c-5.9,4.3-11.5,8.6-17,12.9c-3.2,2.6-6.4,5.1-9.5,7.6c-0.2-0.1-0.3-0.3-0.4-0.4c2.9-2.4,6.1-5,9.6-7.7c5.1-4,10.8-8.5,17-13.1
		l5.3-4l8.1-5.9l3.3-2.3c10.3-7.1,21.5-14.4,33.5-21.4c2.9-1.7,5.9-3.4,8.9-5.1c3-1.7,6.4-3.6,9.6-5.2c27.4-15,56.8-25.9,87.4-32.3
		c13.1-2.6,26.5-3.8,39.9-3.6c2.7-0.1,5.4,0,8.1,0.4c14.9,0.8,29.7,3.9,43.6,9.2c13.2,4.9,26,10.7,38.5,17.3l1,0.5
		c43.2,23.3,74.7,53.4,105.4,82.8l8.3,8.1l1.2,1.1l3.5,3.4l1.4,1.3c27.6,26,55.4,49.5,90.7,63.1c2,0.8,4,1.6,6.2,2.3l2,0.7l1,0.3
		c1.3,0.5,2.6,0.9,4,1.2s2.5,0.8,4,1.1l1,0.3c23.1,6.2,48.4,1.9,79.7-13.5c6-3,12.2-6.3,18.4-9.9l1-0.6l1.2-0.7
		c0.5-0.3,1-0.6,1.5-0.9c3.6-2.2,7.3-4.5,11-6.8l1-0.7c16.6-10.6,33.7-22.8,51.4-35.5l1.7-1.2l1.2-0.9l3.7-2.7l0.9-0.6l6.9-5.3
		l0.9-0.6c18.7-13.2,37.8-26.5,57.5-38.7l0.9-0.6c3.7-2.3,7.5-4.6,11.3-6.8l7-4l2.6-1.4l1-0.5c29.5-16.1,60.5-29,92.7-34.4h1.1
		c0.1,0,0.2,0,0.3,0l1.2-0.2c10-1.6,20.1-2.4,30.2-2.4L953.4,124.9z"/>
	<path id="Path_211" class="st1" d="M974.8,138.1v0.5c-3.6,0-7.2-0.3-10.7-0.3c-11.4,0-22.8,0.9-34,2.7l-2.5,0.4c-0.3,0-0.7,0-1,0
		c-6,1-12.1,2.3-18,3.8c-1.1,0.3-2.3,0.6-3.4,0.9c-24.4,6.8-48,16.4-70.2,28.7c-0.3,0.2-0.6,0.4-1,0.5c-7.1,3.9-14.1,7.9-21,12.1
		l-0.9,0.6c-22.8,13.9-44.3,29.3-65.4,44.3l-0.8,0.6l-9.5,6.9c-22.6,16.4-44,32.2-64.5,44.6l-1,0.6c-27.3,16.4-53,27.3-78.1,27.3
		c-6.1,0-12.1-0.7-18-2l-3.5-0.9c-1.1-0.3-2.2-0.6-3.3-1c-6.3-1.8-12.5-3.9-18.5-6.4l-1.4,0.2l-1.8-0.8c-2.1-0.8-4-1.8-6.2-2.7
		c-33-15.4-58.8-38.5-84.8-63.2c-0.5-0.4-0.9-0.9-1.4-1.3l-6.2-5.9c-9.5-9.1-19.1-18.3-29.2-27.3l-3.1-2.8c-3.3-3-6.8-5.9-10.2-8.9
		l-1-0.8c-2.7-2.2-5.4-4.4-8.1-6.6l-1-0.9c-19.9-16-41.5-29.7-64.5-40.9l-1-0.5c-7.1-3.4-14.5-6.7-22.3-9.8
		c-15.7-6.2-32.4-9.6-49.3-9.9h-9.4c-23,1-45.6,5.6-67.1,13.6c-0.8,0.2-1.6,0.5-2.3,0.8c-4,1.4-7.8,2.9-11.8,4.5l-1,0.4
		c-14.9,6.2-29.3,13.3-43.4,21.3l-6.6,3.8c-1.7,1-3.5,2-5.2,3.1c-11,6.6-22.1,13.8-33.3,21.7c-1.3,0.8-2.4,1.7-3.7,2.6
		c-7.7,5.4-15.4,11.1-23.1,17.3c-3.1,2.5-6.3,5-9.5,7.6H41c3.1-2.5,6.3-5.1,9.4-7.5c7.8-6.2,15.6-12,23.5-17.6l3.7-2.6
		c11.2-7.9,22.4-15.2,33.5-21.9l5.2-3.1l6.4-3.7c14-8,28.4-15.1,43.3-21.3l1-0.4c3.6-1.5,7.2-2.9,10.7-4l2.5-0.9l0,0
		c10.9-3.9,22.1-7.1,33.5-9.6c11.1-2.4,22.5-3.9,33.9-4.3h9.6c17.2,0.1,34.3,3.4,50.3,9.6c7.8,3.1,15.1,6.4,22.3,9.8
		c0.4,0.1,0.7,0.3,1,0.5c23,11.2,44.6,24.9,64.5,40.9l1,0.7c2.7,2.2,5.4,4.4,8.1,6.6l1,0.9c2.8,2.3,5.5,4.6,8.1,7l4.7,4
		c10.4,9.3,20.1,18.7,30.1,28.2l5.6,5.3l1.4,1.3c26.2,24.9,52,48.4,85.2,63.6c2,1,4,1.9,6.1,2.7l1.8,0.8l1,0.5
		c5.9,2.4,12,4.5,18.2,6.3l3.6,1l3.8,0.9c30.4,6.7,61.8-5,95.4-25.3l1-0.6c20.6-12.5,42-28.2,64.5-44.6l10-6.9l0.8-0.6
		c20.9-15.1,42.6-30.6,65.4-44.3l0.9-0.6c6.9-4.2,13.9-8.3,21-12.1l1-0.5c21.9-12.1,45.1-21.7,69.2-28.5l6-1.5
		c5.6-1.4,11.2-2.5,16.8-3.5h1.9l1.2-0.2c11.4-1.8,22.9-2.7,34.4-2.7C967.9,137.9,971.3,137.8,974.8,138.1z"/>
	<path id="Path_212" class="st1" d="M996.2,151.1v0.5c-18.2-1.3-36.4-0.4-54.4,2.4l-1.3,0.2c-34.3,6.1-67.4,18-97.7,35.2l-5.3,3
		c-33.8,19-64.9,42.2-94.5,64.1c-21.2,15.7-41.3,30.7-60.8,42.8l0,0l-0.9,0.6c-3.8,2.4-7.6,4.6-11.3,6.8
		c-23.3,13.1-45.5,21.6-67.5,21.6c-7.4,0-14.8-1-21.9-3c-11.9-3.3-23.5-7.6-34.6-12.9l-0.9-0.5l-1.8-0.9c-2-1-4-2.1-6.1-3.1
		c-30.9-16.6-54.8-39.4-79.6-63c-17.5-17.1-35.8-33.2-55-48.4c-0.3-0.2-0.5-0.5-0.9-0.6c-0.2-0.2-0.5-0.5-0.8-0.6
		c-2.3-1.7-4.6-3.5-7-5.2l-2.8-2l0,0l-0.8-0.6c-2.5-1.8-5.2-3.6-7.8-5.4c-14.2-9.5-29-18.1-44.3-25.5l-1.2-0.6l0,0
		c-2.7-1.4-5.5-2.7-8.6-4l-1-0.4c-2-0.9-4-1.8-6-2.6c-44.1-18.7-93.5-10.3-140,9.2l-1,0.4c-31.2,13.7-60.9,30.7-88.5,50.7l-4,2.8
		l-0.3-0.5c1.3-1,2.5-1.9,3.8-2.8c12.4-8.8,24.9-17,37.2-24.2c16.5-10,33.6-18.8,51.3-26.4l1-0.4c14-6,28.5-10.8,43.3-14.4
		c36.3-8.6,68.9-6.9,97,5c2,0.9,4,1.7,5.9,2.6c0.3,0.1,0.7,0.3,1,0.4c3.1,1.4,6.2,2.8,9.1,4l1.1,0.5c15.4,7.4,30.2,15.9,44.3,25.4
		c2.7,1.9,5.4,3.7,8.1,5.6l0.6,0.4l0.3,0.2l3,2.1c2.2,1.5,4.3,3.1,6.3,4.7l1.2,0.9l0.9,0.6c19.2,15.1,37.6,31.3,55,48.4
		c24.8,23.6,48.6,46.3,79.4,62.9l6.1,3.1l1.8,0.9l1,0.4c11.1,5.3,22.6,9.7,34.5,12.9c29,8.1,58.4-1.2,89.4-18.9l0,0
		c3.6-2,7.2-4,10.8-6.4l0.8-0.5l0,0c19.5-12.1,39.7-27.2,60.9-42.9c29.4-21.8,60.4-44.9,94.1-63.9l6.4-3.5
		c23.4-13,48.3-23.1,74.2-30.1l1.1-0.3c7.1-1.8,14.2-3.3,21.5-4.5h1.2C959.5,150.6,977.9,149.8,996.2,151.1L996.2,151.1z"/>
	<path id="Path_213" class="st1" d="M1017.6,164v0.5c-112.2-9.4-194.5,53.1-267.2,107.9c-50.1,37.8-94.3,71.5-138,71.5
		c-7.5,0-15-1-22.3-3.1c-7.6-2.1-15.2-4.6-22.5-7.5c-2.7-1-5.4-2.1-8.1-3.3c-38-16.7-63.6-41-92.4-68.3
		c-32.5-30.9-69.4-65.9-132.6-94.2c-3.2-1.5-6.5-2.7-9.7-4l0,0c-41-14.1-86.9-4.7-129,13.2c-5.3,2.3-10.6,4.7-15.8,7.2
		c-18.3,8.9-36,19.1-52.9,30.3c-7.8,5.1-15.2,10.3-22.3,15.5c-1.4,1-2.7,1.9-4,2.9c-3.6,2.6-7.1,5.2-10.5,8.1
		c-4.9,3.8-9.6,7.4-14.1,11.1l-1.9,1.5l0,0c-0.2-0.1-0.3-0.3-0.4-0.4l0,0l2-1.6c4.5-3.6,9.2-7.3,14.1-11c3.4-2.7,7-5.3,10.6-8.1
		l4-2.9c7.1-5.2,14.5-10.3,22.1-15.3c17-11.4,34.8-21.6,53.1-30.6c5.2-2.5,10.4-4.9,15.6-7.1c11.3-4.9,22.8-9,34.6-12.4
		c35.3-10,67-10.3,94.4-1l0,0l0.8,0.3l0,0c3.2,1.1,6.3,2.4,9.4,3.8c19.6,8.7,38.5,19,56.4,30.8l3.6,2.5c26,18.2,50.4,38.7,72.9,61.1
		c28.7,27.2,54.2,51.4,92.1,68.1c2.7,1.2,5.4,2.3,8.1,3.3c7.3,2.9,14.8,5.4,22.4,7.5c50.7,14.3,101.3-24.2,159.8-68.3
		c34.9-26.4,74.5-56.4,118.4-77.8C918.9,169.7,967.5,159.8,1017.6,164z"/>
</g>
</svg>
