<svg xmlns="http://www.w3.org/2000/svg" width="174.641" height="136.528" viewBox="0 0 174.641 136.528">
  <g id="Noteset" transform="translate(-1092.915 -435.547)" opacity="0.91">
    <path id="XMLID_1006_" d="M33.446,2.738V18.608a5.287,5.287,0,0,0-1.939-.359,6.855,6.855,0,0,0-4.665,1.956c-2.42,2.318-2.723,5.8-.675,7.762A4.919,4.919,0,0,0,29.6,29.277a6.855,6.855,0,0,0,4.665-1.956,6.45,6.45,0,0,0,2.007-3.863,5.188,5.188,0,0,0,.034-.6h0V7.77L47.768,5.944v9.926a5.287,5.287,0,0,0-1.939-.359,6.855,6.855,0,0,0-4.665,1.956c-2.42,2.318-2.723,5.8-.675,7.761a4.919,4.919,0,0,0,3.437,1.309,6.855,6.855,0,0,0,4.665-1.956A6.45,6.45,0,0,0,50.6,20.72a5.193,5.193,0,0,0,.034-.6h0V0Z" transform="matrix(0.94, -0.342, 0.342, 0.94, 1138.108, 467.76)" fill="#06a77d"/>
    <path id="XMLID_1006_2" data-name="XMLID_1006_" d="M31.337,2.069v12a4,4,0,0,0-1.466-.271,5.182,5.182,0,0,0-3.526,1.479c-1.829,1.752-2.058,4.384-.51,5.867a3.719,3.719,0,0,0,2.6.99,5.182,5.182,0,0,0,3.526-1.479,4.876,4.876,0,0,0,1.517-2.92,3.922,3.922,0,0,0,.026-.452h0V5.873l8.661-1.38V12a4,4,0,0,0-1.466-.271A5.182,5.182,0,0,0,37.172,13.2c-1.829,1.752-2.058,4.384-.51,5.867a3.719,3.719,0,0,0,2.6.99,5.182,5.182,0,0,0,3.526-1.479,4.876,4.876,0,0,0,1.517-2.92,3.928,3.928,0,0,0,.026-.452h0V0Z" transform="matrix(0.94, -0.342, 0.342, 0.94, 1114.451, 514.275)" fill="#f9cb40"/>
    <path id="XMLID_1005_" d="M4.216,65.156v8.087a2.485,2.485,0,0,0-.946-.183,3.277,3.277,0,0,0-2.277,1,2.829,2.829,0,0,0-.33,3.955,2.346,2.346,0,0,0,1.678.667,3.277,3.277,0,0,0,2.277-1,3.337,3.337,0,0,0,.98-1.969,2.76,2.76,0,0,0,.016-.3h0V67.953h5.593v5.29a2.485,2.485,0,0,0-.946-.183,3.277,3.277,0,0,0-2.277,1,2.829,2.829,0,0,0-.33,3.955,2.346,2.346,0,0,0,1.678.667,3.277,3.277,0,0,0,2.277-1,3.337,3.337,0,0,0,.98-1.969,2.76,2.76,0,0,0,.017-.3h0V67.953H18.2v5.29a2.485,2.485,0,0,0-.946-.183,3.277,3.277,0,0,0-2.277,1,2.829,2.829,0,0,0-.33,3.955,2.346,2.346,0,0,0,1.678.667,3.277,3.277,0,0,0,2.277-1,3.337,3.337,0,0,0,.98-1.969,2.759,2.759,0,0,0,.017-.3h0V65.156Z" transform="translate(1207.475 434.407) rotate(20)" fill="#ed6a5a"/>
    <path id="XMLID_1005_2" data-name="XMLID_1005_" d="M4.511,65.156V73.81a2.66,2.66,0,0,0-1.013-.2,3.506,3.506,0,0,0-2.437,1.067,3.028,3.028,0,0,0-.353,4.232,2.51,2.51,0,0,0,1.8.714,3.506,3.506,0,0,0,2.437-1.067A3.572,3.572,0,0,0,5.99,76.455a2.953,2.953,0,0,0,.018-.326h0v-7.98h5.986V73.81a2.66,2.66,0,0,0-1.013-.2,3.506,3.506,0,0,0-2.437,1.067,3.028,3.028,0,0,0-.353,4.232,2.51,2.51,0,0,0,1.8.714,3.506,3.506,0,0,0,2.437-1.067,3.572,3.572,0,0,0,1.048-2.107,2.953,2.953,0,0,0,.018-.326h0v-7.98h5.986V73.81a2.66,2.66,0,0,0-1.013-.2,3.506,3.506,0,0,0-2.437,1.067,3.028,3.028,0,0,0-.353,4.232,2.51,2.51,0,0,0,1.8.714,3.507,3.507,0,0,0,2.437-1.067,3.571,3.571,0,0,0,1.048-2.107,2.953,2.953,0,0,0,.018-.326h0V65.156Z" transform="translate(1158.998 486.183) rotate(20)" fill="#06a77d"/>
    <g id="XMLID_520_" transform="matrix(0.914, 0.407, -0.407, 0.914, 1209.864, 427.412)">
      <path id="XMLID_521_" d="M35.386,0C25.392,0,20,7.187,20,13.95a11.905,11.905,0,0,0,3.046,8.369,10.989,10.989,0,0,0,8.237,3.325A6.154,6.154,0,1,0,26.355,15.8a8.263,8.263,0,0,1-.2-1.852c0-3.874,3.171-7.8,9.232-7.8,7.727,0,13.335,7.334,13.335,17.438,0,9.654-4.221,15.69-7.761,19.053a23.692,23.692,0,0,1-15.831,6.59V55.39A29.574,29.574,0,0,0,45.2,47.107a31.968,31.968,0,0,0,9.677-23.515c0-6.559-1.958-12.537-5.513-16.835A17.943,17.943,0,0,0,35.386,0Z" transform="translate(0 0)" fill="#266dd3"/>
      <circle id="XMLID_522_" cx="3.098" cy="3.098" r="3.098" transform="translate(60.988 9.055)" fill="#266dd3"/>
      <circle id="XMLID_523_" cx="3.098" cy="3.098" r="3.098" transform="translate(60.988 21.447)" fill="#266dd3"/>
    </g>
    <path id="XMLID_963_" d="M59.054,5.1A7.027,7.027,0,0,1,56.472,0h-1.93V11.169a3.429,3.429,0,0,0-1.306-.252,4.521,4.521,0,0,0-3.142,1.376c-1.63,1.63-1.834,4.078-.455,5.458a3.237,3.237,0,0,0,2.315.921A4.521,4.521,0,0,0,55.1,17.295a4.605,4.605,0,0,0,1.352-2.716,3.81,3.81,0,0,0,.023-.42h0V5.152a12.02,12.02,0,0,0,1.277,1.365,4.3,4.3,0,0,1,.622,5.765l1.606,1.07A6.222,6.222,0,0,0,59.054,5.1Z" transform="translate(1065.832 527.823)" fill="#ed6a5a"/>
    <path id="XMLID_963_2" data-name="XMLID_963_" d="M57.484,4.321A5.958,5.958,0,0,1,55.294,0H53.658V9.47a2.908,2.908,0,0,0-1.107-.214,3.834,3.834,0,0,0-2.665,1.166A3.31,3.31,0,0,0,49.5,15.05a2.745,2.745,0,0,0,1.963.781,3.834,3.834,0,0,0,2.665-1.166,3.905,3.905,0,0,0,1.146-2.3A3.231,3.231,0,0,0,55.293,12h0V4.369a10.193,10.193,0,0,0,1.082,1.157,3.648,3.648,0,0,1,.527,4.889l1.361.908A5.276,5.276,0,0,0,57.484,4.321Z" transform="translate(1044.19 556.244)" fill="#f9cb40"/>
    <path id="XMLID_963_3" data-name="XMLID_963_" d="M59.7,5.414A7.464,7.464,0,0,1,56.954,0H54.9V11.864a3.643,3.643,0,0,0-1.387-.268,4.8,4.8,0,0,0-3.338,1.461c-1.732,1.731-1.948,4.332-.483,5.8a3.439,3.439,0,0,0,2.459.978,4.8,4.8,0,0,0,3.338-1.461,4.892,4.892,0,0,0,1.436-2.885,4.045,4.045,0,0,0,.024-.447h0V5.473a12.769,12.769,0,0,0,1.356,1.45,4.57,4.57,0,0,1,.661,6.124l1.705,1.137A6.61,6.61,0,0,0,59.7,5.414Z" transform="translate(1173.128 512.85)" fill="#f9cb40"/>
    <path id="XMLID_1006_3" data-name="XMLID_1006_" d="M30.8,1.9V12.906a3.667,3.667,0,0,0-1.345-.249,4.754,4.754,0,0,0-3.236,1.357c-1.678,1.608-1.888,4.023-.468,5.383a3.412,3.412,0,0,0,2.384.908,4.754,4.754,0,0,0,3.236-1.357,4.474,4.474,0,0,0,1.392-2.679,3.6,3.6,0,0,0,.024-.415h0V5.389l7.947-1.266v6.884a3.667,3.667,0,0,0-1.345-.249,4.754,4.754,0,0,0-3.236,1.357c-1.678,1.608-1.888,4.023-.468,5.383a3.412,3.412,0,0,0,2.384.908A4.754,4.754,0,0,0,41.3,17.05,4.474,4.474,0,0,0,42.7,14.37a3.6,3.6,0,0,0,.023-.415h0V0Z" transform="matrix(0.94, -0.342, 0.342, 0.94, 1153.688, 542.434)" fill="#266dd3"/>
  </g>
</svg>
