<svg id="Layer_1" data-name="Layer 1" xmlns="http://www.w3.org/2000/svg" viewBox="0 0 173.67 131.84"><defs><style>.cls-1{opacity:0.91;}.cls-2{fill:#06a77d;}.cls-3{fill:#f9cb40;}.cls-4{fill:#ed6a5a;}.cls-5{fill:#266dd3;}</style></defs><title>noteset</title><g id="Noteset" class="cls-1"><path class="cls-2" d="M77.57,23.35,83,38.27a5.16,5.16,0,0,0-2,.32A6.88,6.88,0,0,0,77.33,42c-1.48,3-.57,6.38,2,7.52a4.88,4.88,0,0,0,3.68.06,6.9,6.9,0,0,0,3.72-3.43,6.46,6.46,0,0,0,.56-4.32,5.54,5.54,0,0,0-.17-.58h0L82,27.1l10.15-5.64,3.39,9.33a5.35,5.35,0,0,0-1.94.33,6.9,6.9,0,0,0-3.72,3.43c-1.48,3-.58,6.39,2,7.53a5,5,0,0,0,3.68.06,6.88,6.88,0,0,0,3.72-3.44,6.45,6.45,0,0,0,.56-4.32,4.11,4.11,0,0,0-.17-.57h0L92.79,14.9Z" transform="translate(-0.01 -4.69)"/><path id="XMLID_1006_2" data-name="XMLID 1006 2" class="cls-3" d="M51.7,70l4.1,11.28a3.88,3.88,0,0,0-1.47.24,5.2,5.2,0,0,0-2.8,2.6c-1.13,2.27-.44,4.82,1.52,5.69a3.71,3.71,0,0,0,2.78,0,5.19,5.19,0,0,0,2.81-2.6A4.85,4.85,0,0,0,59.07,84a3.06,3.06,0,0,0-.13-.43h0L55,72.79l7.67-4.26,2.57,7.06a4.11,4.11,0,0,0-1.48.24A5.24,5.24,0,0,0,61,78.42c-1.12,2.28-.43,4.83,1.53,5.69a3.67,3.67,0,0,0,2.78,0,5.17,5.17,0,0,0,2.81-2.59,4.87,4.87,0,0,0,.43-3.27c0-.14-.08-.29-.13-.43h0l-5.2-14.29Z" transform="translate(-0.01 -4.69)"/><path class="cls-4" d="M96.24,61.53l-2.77,7.6a2.43,2.43,0,0,0-.83-.5,3.33,3.33,0,0,0-2.48.16A2.84,2.84,0,0,0,88.5,72.4a2.38,2.38,0,0,0,1.35,1.2,3.42,3.42,0,0,0,4.07-1.68,1.59,1.59,0,0,0,.12-.27h0l2.55-7,5.26,1.91-1.81,5a2.43,2.43,0,0,0-.83-.5,3.33,3.33,0,0,0-2.48.16,2.84,2.84,0,0,0-1.66,3.61A2.38,2.38,0,0,0,96.42,76a3.42,3.42,0,0,0,4.07-1.68,1.59,1.59,0,0,0,.12-.27h0l2.55-7,5.26,1.91-1.81,5a2.3,2.3,0,0,0-.82-.49,3.26,3.26,0,0,0-2.49.16,2.83,2.83,0,0,0-1.66,3.6,2.35,2.35,0,0,0,1.35,1.2,3.28,3.28,0,0,0,2.48-.16,3.33,3.33,0,0,0,1.6-1.52c0-.09.08-.18.11-.27h0l3.51-9.64Z" transform="translate(-0.01 -4.69)"/><path id="XMLID_1005_2" data-name="XMLID 1005 2" class="cls-2" d="M48,113.41l-3,8.13a2.63,2.63,0,0,0-.89-.54,3.53,3.53,0,0,0-2.65.17A3,3,0,0,0,39.76,125a2.48,2.48,0,0,0,1.45,1.28,3.48,3.48,0,0,0,2.65-.16,3.66,3.66,0,0,0,1.7-1.62c0-.1.09-.2.13-.3h0l2.73-7.5,5.63,2-1.94,5.32a2.68,2.68,0,0,0-.88-.54,3.55,3.55,0,0,0-2.66.17,3,3,0,0,0-1.78,3.86,2.48,2.48,0,0,0,1.45,1.28,3.48,3.48,0,0,0,2.65-.16,3.61,3.61,0,0,0,1.71-1.63,2.08,2.08,0,0,0,.13-.3h0l2.73-7.5,5.62,2-1.94,5.33a2.49,2.49,0,0,0-.88-.54,3.53,3.53,0,0,0-2.65.17,3,3,0,0,0-1.78,3.86,2.49,2.49,0,0,0,1.44,1.28,3.5,3.5,0,0,0,2.66-.16,3.63,3.63,0,0,0,1.7-1.63,2.08,2.08,0,0,0,.13-.3h0L63.51,119Z" transform="translate(-0.01 -4.69)"/><path class="cls-5" d="M149.29,6.27c-9.13-4.07-17,.3-19.74,6.49a11.89,11.89,0,0,0-.62,8.88A11,11,0,0,0,135.1,28a6.16,6.16,0,1,0-.49-11,8,8,0,0,1,.57-1.77c1.57-3.54,6.07-5.84,11.61-3.37C153.85,15,156,24,151.88,33.25,148,42.08,141.64,45.88,137,47.51a23.77,23.77,0,0,1-17.15-.42l-2.51,5.63a29.63,29.63,0,0,0,21.72.6A32,32,0,0,0,157.5,35.76c2.67-6,3.32-12.25,1.82-17.63A18,18,0,0,0,149.29,6.27Z" transform="translate(-0.01 -4.69)"/><circle class="cls-5" cx="170.57" cy="24.37" r="3.1"/><circle class="cls-5" cx="165.53" cy="35.69" r="3.1"/><path class="cls-4" d="M32,97.38a7,7,0,0,1-2.58-5.1H27.46v11.17a3.48,3.48,0,0,0-1.31-.26A4.57,4.57,0,0,0,23,104.57c-1.63,1.63-1.83,4.08-.45,5.46a3.25,3.25,0,0,0,2.31.92A4.53,4.53,0,0,0,28,109.57a4.62,4.62,0,0,0,1.35-2.71c0-.14,0-.28,0-.42h0v-9a11.77,11.77,0,0,0,1.28,1.36,4.3,4.3,0,0,1,.62,5.77l1.61,1.07A6.22,6.22,0,0,0,32,97.38Z" transform="translate(-0.01 -4.69)"/><path id="XMLID_963_2" data-name="XMLID 963 2" class="cls-3" d="M8.76,125a6,6,0,0,1-2.19-4.32H4.93v9.47a2.77,2.77,0,0,0-1.1-.22,3.89,3.89,0,0,0-2.67,1.17,3.32,3.32,0,0,0-.39,4.63,2.79,2.79,0,0,0,2,.78,3.84,3.84,0,0,0,2.66-1.17,3.87,3.87,0,0,0,1.15-2.3c0-.12,0-.24,0-.36h0v-7.63a9.8,9.8,0,0,0,1.08,1.15,3.66,3.66,0,0,1,.53,4.89l1.36.91A5.28,5.28,0,0,0,8.76,125Z" transform="translate(-0.01 -4.69)"/><path id="XMLID_963_3" data-name="XMLID 963 3" class="cls-3" d="M139.91,82.72a7.45,7.45,0,0,1-2.74-5.42h-2.06V89.17a3.65,3.65,0,0,0-1.38-.27,4.78,4.78,0,0,0-3.34,1.46c-1.73,1.73-1.95,4.33-.48,5.8a3.45,3.45,0,0,0,2.45,1,4.82,4.82,0,0,0,3.34-1.46,4.9,4.9,0,0,0,1.44-2.89c0-.15,0-.3,0-.45h0V82.78a14.32,14.32,0,0,0,1.36,1.45,4.57,4.57,0,0,1,.66,6.12l1.7,1.14A6.6,6.6,0,0,0,139.91,82.72Z" transform="translate(-0.01 -4.69)"/><path id="XMLID_1006_3" data-name="XMLID 1006 3" class="cls-5" d="M90.37,98.14l3.77,10.35a3.65,3.65,0,0,0-1.35.22,4.81,4.81,0,0,0-2.58,2.38c-1,2.09-.4,4.43,1.4,5.22a3.36,3.36,0,0,0,2.55,0A4.71,4.71,0,0,0,96.74,114a4.45,4.45,0,0,0,.39-3,2.91,2.91,0,0,0-.12-.39h0l-3.57-9.84,7-3.91,2.36,6.47a3.65,3.65,0,0,0-1.35.23,4.74,4.74,0,0,0-2.58,2.38c-1,2.09-.4,4.43,1.4,5.22a3.41,3.41,0,0,0,2.55,0,4.81,4.81,0,0,0,2.58-2.38,4.57,4.57,0,0,0,.4-3l-.12-.4h0l-4.78-13.11Z" transform="translate(-0.01 -4.69)"/></g></svg>